solid OpenSCAD_Model
  facet normal 0.994522 0.104528 0
    outer loop
      vertex 38 0 5
      vertex 37.1696 7.90064 0
      vertex 37.1696 7.90064 5
    endloop
  endfacet
  facet normal 0.994522 0.104528 0
    outer loop
      vertex 37.1696 7.90064 0
      vertex 38 0 5
      vertex 38 0 0
    endloop
  endfacet
  facet normal -0.994522 0.104528 0
    outer loop
      vertex -38 0 0
      vertex -37.1696 7.90064 5
      vertex -37.1696 7.90064 0
    endloop
  endfacet
  facet normal -0.994522 0.104528 0
    outer loop
      vertex -37.1696 7.90064 5
      vertex -38 0 0
      vertex -38 0 5
    endloop
  endfacet
  facet normal 0 1 -0
    outer loop
      vertex 3.97208 37.7918 0
      vertex -3.97208 37.7918 5
      vertex 3.97208 37.7918 5
    endloop
  endfacet
  facet normal 0 1 0
    outer loop
      vertex -3.97208 37.7918 5
      vertex 3.97208 37.7918 0
      vertex -3.97208 37.7918 0
    endloop
  endfacet
  facet normal 0 -1 0
    outer loop
      vertex -3.97208 -37.7918 0
      vertex 3.97208 -37.7918 5
      vertex -3.97208 -37.7918 5
    endloop
  endfacet
  facet normal 0 -1 -0
    outer loop
      vertex 3.97208 -37.7918 5
      vertex -3.97208 -37.7918 0
      vertex 3.97208 -37.7918 0
    endloop
  endfacet
  facet normal 0.587785 0.809017 -0
    outer loop
      vertex 25.427 28.2395 0
      vertex 19 32.909 5
      vertex 25.427 28.2395 5
    endloop
  endfacet
  facet normal 0.587785 0.809017 0
    outer loop
      vertex 19 32.909 5
      vertex 25.427 28.2395 0
      vertex 19 32.909 0
    endloop
  endfacet
  facet normal -0.587785 0.809017 0
    outer loop
      vertex -19 32.909 0
      vertex -25.427 28.2395 5
      vertex -19 32.909 5
    endloop
  endfacet
  facet normal -0.587785 0.809017 0
    outer loop
      vertex -25.427 28.2395 5
      vertex -19 32.909 0
      vertex -25.427 28.2395 0
    endloop
  endfacet
  facet normal -0.406737 0.913545 0
    outer loop
      vertex -11.7426 36.1401 0
      vertex -19 32.909 5
      vertex -11.7426 36.1401 5
    endloop
  endfacet
  facet normal -0.406737 0.913545 0
    outer loop
      vertex -19 32.909 5
      vertex -11.7426 36.1401 0
      vertex -19 32.909 0
    endloop
  endfacet
  facet normal 0.951056 -0.309017 0
    outer loop
      vertex 34.7147 -15.456 5
      vertex 37.1696 -7.90064 0
      vertex 37.1696 -7.90064 5
    endloop
  endfacet
  facet normal 0.951056 -0.309017 0
    outer loop
      vertex 37.1696 -7.90064 0
      vertex 34.7147 -15.456 5
      vertex 34.7147 -15.456 0
    endloop
  endfacet
  facet normal 0.866025 0.5 0
    outer loop
      vertex 34.7147 15.456 5
      vertex 30.7426 22.3358 0
      vertex 30.7426 22.3358 5
    endloop
  endfacet
  facet normal 0.866025 0.5 0
    outer loop
      vertex 30.7426 22.3358 0
      vertex 34.7147 15.456 5
      vertex 34.7147 15.456 0
    endloop
  endfacet
  facet normal 0.951056 0.309017 0
    outer loop
      vertex 37.1696 7.90064 5
      vertex 34.7147 15.456 0
      vertex 34.7147 15.456 5
    endloop
  endfacet
  facet normal 0.951056 0.309017 0
    outer loop
      vertex 34.7147 15.456 0
      vertex 37.1696 7.90064 5
      vertex 37.1696 7.90064 0
    endloop
  endfacet
  facet normal 0.743145 0.669131 0
    outer loop
      vertex 30.7426 22.3358 5
      vertex 25.427 28.2395 0
      vertex 25.427 28.2395 5
    endloop
  endfacet
  facet normal 0.743145 0.669131 0
    outer loop
      vertex 25.427 28.2395 0
      vertex 30.7426 22.3358 5
      vertex 30.7426 22.3358 0
    endloop
  endfacet
  facet normal 0.207912 0.978148 -0
    outer loop
      vertex 11.7426 36.1401 0
      vertex 3.97208 37.7918 5
      vertex 11.7426 36.1401 5
    endloop
  endfacet
  facet normal 0.207912 0.978148 0
    outer loop
      vertex 3.97208 37.7918 5
      vertex 11.7426 36.1401 0
      vertex 3.97208 37.7918 0
    endloop
  endfacet
  facet normal 0.406737 0.913545 -0
    outer loop
      vertex 19 32.909 0
      vertex 11.7426 36.1401 5
      vertex 19 32.909 5
    endloop
  endfacet
  facet normal 0.406737 0.913545 0
    outer loop
      vertex 11.7426 36.1401 5
      vertex 19 32.909 0
      vertex 11.7426 36.1401 0
    endloop
  endfacet
  facet normal -0.866025 0.5 0
    outer loop
      vertex -34.7147 15.456 0
      vertex -30.7426 22.3358 5
      vertex -30.7426 22.3358 0
    endloop
  endfacet
  facet normal -0.866025 0.5 0
    outer loop
      vertex -30.7426 22.3358 5
      vertex -34.7147 15.456 0
      vertex -34.7147 15.456 5
    endloop
  endfacet
  facet normal -0.743145 0.669131 0
    outer loop
      vertex -30.7426 22.3358 0
      vertex -25.427 28.2395 5
      vertex -25.427 28.2395 0
    endloop
  endfacet
  facet normal -0.743145 0.669131 0
    outer loop
      vertex -25.427 28.2395 5
      vertex -30.7426 22.3358 0
      vertex -30.7426 22.3358 5
    endloop
  endfacet
  facet normal -0.951056 0.309017 0
    outer loop
      vertex -37.1696 7.90064 0
      vertex -34.7147 15.456 5
      vertex -34.7147 15.456 0
    endloop
  endfacet
  facet normal -0.951056 0.309017 0
    outer loop
      vertex -34.7147 15.456 5
      vertex -37.1696 7.90064 0
      vertex -37.1696 7.90064 5
    endloop
  endfacet
  facet normal -0 0 1
    outer loop
      vertex -25.2652 -3.68528 5
      vertex -10 -5 5
      vertex -24.3251 -1.9482 5
    endloop
  endfacet
  facet normal 0 0 1
    outer loop
      vertex -26.7183 -5.023 5
      vertex -10 -5 5
      vertex -25.2652 -3.68528 5
    endloop
  endfacet
  facet normal 0 0 1
    outer loop
      vertex -10 -5 5
      vertex -25.427 -28.2395 5
      vertex -19 -32.909 5
    endloop
  endfacet
  facet normal 0 0 1
    outer loop
      vertex -30.7426 -22.3358 5
      vertex -10 -5 5
      vertex -26.7183 -5.023 5
    endloop
  endfacet
  facet normal 0 0 1
    outer loop
      vertex -30.7426 -22.3358 5
      vertex -26.7183 -5.023 5
      vertex -28.5271 -5.8164 5
    endloop
  endfacet
  facet normal 0 0 1
    outer loop
      vertex -34.7147 -15.456 5
      vertex -28.5271 -5.8164 5
      vertex -30.4955 -5.97951 5
    endloop
  endfacet
  facet normal 0 0 1
    outer loop
      vertex -10 -5 5
      vertex -30.7426 -22.3358 5
      vertex -25.427 -28.2395 5
    endloop
  endfacet
  facet normal 0 0 1
    outer loop
      vertex -34.7147 -15.456 5
      vertex -30.4955 -5.97951 5
      vertex -32.4102 -5.49464 5
    endloop
  endfacet
  facet normal 0 0 1
    outer loop
      vertex -37.1696 -7.90064 5
      vertex -32.4102 -5.49464 5
      vertex -34.0637 -4.41434 5
    endloop
  endfacet
  facet normal 0 0 1
    outer loop
      vertex -28.5271 -5.8164 5
      vertex -34.7147 -15.456 5
      vertex -30.7426 -22.3358 5
    endloop
  endfacet
  facet normal 0 0 1
    outer loop
      vertex -37.1696 -7.90064 5
      vertex -34.0637 -4.41434 5
      vertex -35.2768 -2.85568 5
    endloop
  endfacet
  facet normal 0 0 1
    outer loop
      vertex -38 0 5
      vertex -35.2768 -2.85568 5
      vertex -35.9182 -0.987567 5
    endloop
  endfacet
  facet normal 0 0 1
    outer loop
      vertex -35.9182 0.987567 5
      vertex -38 0 5
      vertex -35.9182 -0.987567 5
    endloop
  endfacet
  facet normal 0 0 1
    outer loop
      vertex -32.4102 -5.49464 5
      vertex -37.1696 -7.90064 5
      vertex -34.7147 -15.456 5
    endloop
  endfacet
  facet normal 0 0 1
    outer loop
      vertex -35.2768 -2.85568 5
      vertex -38 0 5
      vertex -37.1696 -7.90064 5
    endloop
  endfacet
  facet normal 0 0 1
    outer loop
      vertex 19 -32.909 5
      vertex 10 -5 5
      vertex 11.7426 -36.1401 5
    endloop
  endfacet
  facet normal 0 0 1
    outer loop
      vertex 10 -5 5
      vertex 3.97208 -37.7918 5
      vertex 11.7426 -36.1401 5
    endloop
  endfacet
  facet normal 0 0 1
    outer loop
      vertex 10 -5 5
      vertex -3.97208 -37.7918 5
      vertex 3.97208 -37.7918 5
    endloop
  endfacet
  facet normal -0 0 1
    outer loop
      vertex -10 -5 5
      vertex -3.97208 -37.7918 5
      vertex 10 -5 5
    endloop
  endfacet
  facet normal 0 0 1
    outer loop
      vertex -10 -5 5
      vertex -11.7426 -36.1401 5
      vertex -3.97208 -37.7918 5
    endloop
  endfacet
  facet normal 0 -0 1
    outer loop
      vertex -25.2652 3.68528 5
      vertex -2.99404 7.65249 5
      vertex -26.7183 5.023 5
    endloop
  endfacet
  facet normal -0 -0 1
    outer loop
      vertex -24.3251 1.9482 5
      vertex -10 0 5
      vertex -25.2652 3.68528 5
    endloop
  endfacet
  facet normal 0 0 1
    outer loop
      vertex -10 0 5
      vertex -24.3251 -1.9482 5
      vertex -10 -5 5
    endloop
  endfacet
  facet normal 0 0 1
    outer loop
      vertex -10 -5 5
      vertex -19 -32.909 5
      vertex -11.7426 -36.1401 5
    endloop
  endfacet
  facet normal 0 0 1
    outer loop
      vertex -24.3251 -1.9482 5
      vertex -10 0 5
      vertex -24 0 5
    endloop
  endfacet
  facet normal 0 -0 1
    outer loop
      vertex -24 0 5
      vertex -10 0 5
      vertex -24.3251 1.9482 5
    endloop
  endfacet
  facet normal 0 0 1
    outer loop
      vertex -3.88377 5.95726 5
      vertex -25.2652 3.68528 5
      vertex -10 0 5
    endloop
  endfacet
  facet normal 0 0 1
    outer loop
      vertex -2.99404 7.65249 5
      vertex -25.2652 3.68528 5
      vertex -3.88377 5.95726 5
    endloop
  endfacet
  facet normal -0 0 1
    outer loop
      vertex -30.7426 22.3358 5
      vertex -26.7183 5.023 5
      vertex -25.427 28.2395 5
    endloop
  endfacet
  facet normal 0 0 1
    outer loop
      vertex -26.7183 5.023 5
      vertex -30.7426 22.3358 5
      vertex -28.5271 5.8164 5
    endloop
  endfacet
  facet normal -0 0 1
    outer loop
      vertex -34.7147 15.456 5
      vertex -28.5271 5.8164 5
      vertex -30.7426 22.3358 5
    endloop
  endfacet
  facet normal 0 0 1
    outer loop
      vertex -28.5271 5.8164 5
      vertex -34.7147 15.456 5
      vertex -30.4955 5.97951 5
    endloop
  endfacet
  facet normal 0 0 1
    outer loop
      vertex -30.4955 5.97951 5
      vertex -34.7147 15.456 5
      vertex -32.4102 5.49464 5
    endloop
  endfacet
  facet normal -0 0 1
    outer loop
      vertex -37.1696 7.90064 5
      vertex -32.4102 5.49464 5
      vertex -34.7147 15.456 5
    endloop
  endfacet
  facet normal 0 0 1
    outer loop
      vertex -32.4102 5.49464 5
      vertex -37.1696 7.90064 5
      vertex -34.0637 4.41434 5
    endloop
  endfacet
  facet normal 0 0 1
    outer loop
      vertex -34.0637 4.41434 5
      vertex -37.1696 7.90064 5
      vertex -35.2768 2.85568 5
    endloop
  endfacet
  facet normal 0 0 1
    outer loop
      vertex -35.2768 2.85568 5
      vertex -38 0 5
      vertex -35.9182 0.987567 5
    endloop
  endfacet
  facet normal 0 0 1
    outer loop
      vertex -38 0 5
      vertex -35.2768 2.85568 5
      vertex -37.1696 7.90064 5
    endloop
  endfacet
  facet normal -0 0 1
    outer loop
      vertex 3.54182 3.14111 5
      vertex 10 0 5
      vertex 4 5 5
    endloop
  endfacet
  facet normal -0 0 1
    outer loop
      vertex 2.27226 1.70806 5
      vertex 10 0 5
      vertex 3.54182 3.14111 5
    endloop
  endfacet
  facet normal -0 0 1
    outer loop
      vertex 0.482146 1.02916 5
      vertex 10 0 5
      vertex 2.27226 1.70806 5
    endloop
  endfacet
  facet normal 0 0 1
    outer loop
      vertex 0.482146 1.02916 5
      vertex -10 0 5
      vertex 10 0 5
    endloop
  endfacet
  facet normal 0 0 1
    outer loop
      vertex -1.41842 1.25993 5
      vertex -10 0 5
      vertex 0.482146 1.02916 5
    endloop
  endfacet
  facet normal 0 0 1
    outer loop
      vertex -2.99404 2.34751 5
      vertex -10 0 5
      vertex -1.41842 1.25993 5
    endloop
  endfacet
  facet normal 0 0 1
    outer loop
      vertex -3.88377 4.04274 5
      vertex -10 0 5
      vertex -2.99404 2.34751 5
    endloop
  endfacet
  facet normal 0 0 1
    outer loop
      vertex -3.88377 5.95726 5
      vertex -10 0 5
      vertex -3.88377 4.04274 5
    endloop
  endfacet
  facet normal -0 0 1
    outer loop
      vertex -25.427 28.2395 5
      vertex -2.99404 7.65249 5
      vertex -19 32.909 5
    endloop
  endfacet
  facet normal 0 0 1
    outer loop
      vertex -1.41842 8.74006 5
      vertex -19 32.909 5
      vertex -2.99404 7.65249 5
    endloop
  endfacet
  facet normal -0 0 1
    outer loop
      vertex 35.6749 1.9482 5
      vertex 38 0 5
      vertex 37.1696 7.90064 5
    endloop
  endfacet
  facet normal 0 0 1
    outer loop
      vertex 35.6749 -1.9482 5
      vertex 38 0 5
      vertex 36 0 5
    endloop
  endfacet
  facet normal 0 0 1
    outer loop
      vertex 38 0 5
      vertex 35.6749 1.9482 5
      vertex 36 0 5
    endloop
  endfacet
  facet normal 0 0 1
    outer loop
      vertex 37.1696 7.90064 5
      vertex 34.7348 3.68528 5
      vertex 35.6749 1.9482 5
    endloop
  endfacet
  facet normal 0 0 1
    outer loop
      vertex 31.4729 5.8164 5
      vertex 37.1696 7.90064 5
      vertex 34.7147 15.456 5
    endloop
  endfacet
  facet normal 0 0 1
    outer loop
      vertex 37.1696 7.90064 5
      vertex 33.2817 5.023 5
      vertex 34.7348 3.68528 5
    endloop
  endfacet
  facet normal 0 0 1
    outer loop
      vertex 37.1696 7.90064 5
      vertex 31.4729 5.8164 5
      vertex 33.2817 5.023 5
    endloop
  endfacet
  facet normal 0 0 1
    outer loop
      vertex 27.5898 5.49464 5
      vertex 34.7147 15.456 5
      vertex 30.7426 22.3358 5
    endloop
  endfacet
  facet normal 0 0 1
    outer loop
      vertex 34.7147 15.456 5
      vertex 29.5045 5.97951 5
      vertex 31.4729 5.8164 5
    endloop
  endfacet
  facet normal 0 0 1
    outer loop
      vertex 34.7147 15.456 5
      vertex 27.5898 5.49464 5
      vertex 29.5045 5.97951 5
    endloop
  endfacet
  facet normal 0 0 1
    outer loop
      vertex 30.7426 22.3358 5
      vertex 25.9363 4.41434 5
      vertex 27.5898 5.49464 5
    endloop
  endfacet
  facet normal 0 0 1
    outer loop
      vertex 25.427 28.2395 5
      vertex 25.9363 4.41434 5
      vertex 30.7426 22.3358 5
    endloop
  endfacet
  facet normal -0 0 1
    outer loop
      vertex 3.54182 6.85889 5
      vertex 25.9363 4.41434 5
      vertex 25.427 28.2395 5
    endloop
  endfacet
  facet normal 0 -0 1
    outer loop
      vertex 10 0 5
      vertex 25.9363 4.41434 5
      vertex 3.54182 6.85889 5
    endloop
  endfacet
  facet normal 0 0 1
    outer loop
      vertex 25.9363 4.41434 5
      vertex 10 0 5
      vertex 24.7232 2.85568 5
    endloop
  endfacet
  facet normal 0 0 1
    outer loop
      vertex 3.54182 6.85889 5
      vertex 25.427 28.2395 5
      vertex 19 32.909 5
    endloop
  endfacet
  facet normal 0 0 1
    outer loop
      vertex 38 0 5
      vertex 35.6749 -1.9482 5
      vertex 37.1696 -7.90064 5
    endloop
  endfacet
  facet normal -0 0 1
    outer loop
      vertex 34.7348 -3.68528 5
      vertex 37.1696 -7.90064 5
      vertex 35.6749 -1.9482 5
    endloop
  endfacet
  facet normal -0 0 1
    outer loop
      vertex 33.2817 -5.023 5
      vertex 37.1696 -7.90064 5
      vertex 34.7348 -3.68528 5
    endloop
  endfacet
  facet normal -0 0 1
    outer loop
      vertex 31.4729 -5.8164 5
      vertex 37.1696 -7.90064 5
      vertex 33.2817 -5.023 5
    endloop
  endfacet
  facet normal 0 0 1
    outer loop
      vertex 37.1696 -7.90064 5
      vertex 31.4729 -5.8164 5
      vertex 34.7147 -15.456 5
    endloop
  endfacet
  facet normal -0 0 1
    outer loop
      vertex 29.5045 -5.97951 5
      vertex 34.7147 -15.456 5
      vertex 31.4729 -5.8164 5
    endloop
  endfacet
  facet normal 0 0 1
    outer loop
      vertex 27.5898 -5.49464 5
      vertex 34.7147 -15.456 5
      vertex 29.5045 -5.97951 5
    endloop
  endfacet
  facet normal 0 0 1
    outer loop
      vertex 34.7147 -15.456 5
      vertex 27.5898 -5.49464 5
      vertex 30.7426 -22.3358 5
    endloop
  endfacet
  facet normal 0 0 1
    outer loop
      vertex 25.9363 -4.41434 5
      vertex 30.7426 -22.3358 5
      vertex 27.5898 -5.49464 5
    endloop
  endfacet
  facet normal -0 0 1
    outer loop
      vertex 10 -5 5
      vertex 30.7426 -22.3358 5
      vertex 25.9363 -4.41434 5
    endloop
  endfacet
  facet normal 0 0 1
    outer loop
      vertex 24.0818 -0.987567 5
      vertex 10 -5 5
      vertex 24.7232 -2.85568 5
    endloop
  endfacet
  facet normal 0 0 1
    outer loop
      vertex 10 -5 5
      vertex 24.0818 -0.987567 5
      vertex 10 0 5
    endloop
  endfacet
  facet normal 0 0 1
    outer loop
      vertex 24.7232 2.85568 5
      vertex 10 0 5
      vertex 24.0818 0.987567 5
    endloop
  endfacet
  facet normal 0 0 1
    outer loop
      vertex 24.7232 -2.85568 5
      vertex 10 -5 5
      vertex 25.9363 -4.41434 5
    endloop
  endfacet
  facet normal 0 0 1
    outer loop
      vertex 2.27226 8.29193 5
      vertex 19 32.909 5
      vertex 11.7426 36.1401 5
    endloop
  endfacet
  facet normal 0 0 1
    outer loop
      vertex 30.7426 -22.3358 5
      vertex 10 -5 5
      vertex 25.427 -28.2395 5
    endloop
  endfacet
  facet normal 0 0 1
    outer loop
      vertex 25.427 -28.2395 5
      vertex 10 -5 5
      vertex 19 -32.909 5
    endloop
  endfacet
  facet normal 0 0 1
    outer loop
      vertex 24.0818 0.987567 5
      vertex 10 0 5
      vertex 24.0818 -0.987567 5
    endloop
  endfacet
  facet normal 0 0 1
    outer loop
      vertex 0.482146 8.97083 5
      vertex 11.7426 36.1401 5
      vertex 3.97208 37.7918 5
    endloop
  endfacet
  facet normal 0 0 1
    outer loop
      vertex 10 0 5
      vertex 3.54182 6.85889 5
      vertex 4 5 5
    endloop
  endfacet
  facet normal 0 0 1
    outer loop
      vertex 19 32.909 5
      vertex 2.27226 8.29193 5
      vertex 3.54182 6.85889 5
    endloop
  endfacet
  facet normal 0 0 1
    outer loop
      vertex 11.7426 36.1401 5
      vertex 0.482146 8.97083 5
      vertex 2.27226 8.29193 5
    endloop
  endfacet
  facet normal -0 0 1
    outer loop
      vertex -3.97208 37.7918 5
      vertex 0.482146 8.97083 5
      vertex 3.97208 37.7918 5
    endloop
  endfacet
  facet normal 0 0 1
    outer loop
      vertex 0.482146 8.97083 5
      vertex -3.97208 37.7918 5
      vertex -1.41842 8.74006 5
    endloop
  endfacet
  facet normal -0 0 1
    outer loop
      vertex -11.7426 36.1401 5
      vertex -1.41842 8.74006 5
      vertex -3.97208 37.7918 5
    endloop
  endfacet
  facet normal 0 0 1
    outer loop
      vertex -26.7183 5.023 5
      vertex -2.99404 7.65249 5
      vertex -25.427 28.2395 5
    endloop
  endfacet
  facet normal -0 0 1
    outer loop
      vertex -19 32.909 5
      vertex -1.41842 8.74006 5
      vertex -11.7426 36.1401 5
    endloop
  endfacet
  facet normal -0.207912 0.978148 0
    outer loop
      vertex -3.97208 37.7918 0
      vertex -11.7426 36.1401 5
      vertex -3.97208 37.7918 5
    endloop
  endfacet
  facet normal -0.207912 0.978148 0
    outer loop
      vertex -11.7426 36.1401 5
      vertex -3.97208 37.7918 0
      vertex -11.7426 36.1401 0
    endloop
  endfacet
  facet normal 0.994522 -0.104528 0
    outer loop
      vertex 37.1696 -7.90064 5
      vertex 38 0 0
      vertex 38 0 5
    endloop
  endfacet
  facet normal 0.994522 -0.104528 0
    outer loop
      vertex 38 0 0
      vertex 37.1696 -7.90064 5
      vertex 37.1696 -7.90064 0
    endloop
  endfacet
  facet normal 0 0 -1
    outer loop
      vertex -30.7426 22.3358 0
      vertex -3.88377 5.95726 0
      vertex -27.5729 1.76336 0
    endloop
  endfacet
  facet normal 0 0 -1
    outer loop
      vertex -30.7426 22.3358 0
      vertex -27.5729 1.76336 0
      vertex -29.0729 2.85317 0
    endloop
  endfacet
  facet normal 0 0 -1
    outer loop
      vertex -3.88377 5.95726 0
      vertex -30.7426 22.3358 0
      vertex -25.427 28.2395 0
    endloop
  endfacet
  facet normal 0 0 -1
    outer loop
      vertex -34.7147 15.456 0
      vertex -29.0729 2.85317 0
      vertex -30.9271 2.85317 0
    endloop
  endfacet
  facet normal 0 0 -1
    outer loop
      vertex -37.1696 7.90064 0
      vertex -30.9271 2.85317 0
      vertex -32.4271 1.76336 0
    endloop
  endfacet
  facet normal 0 0 -1
    outer loop
      vertex -38 0 0
      vertex -32.4271 1.76336 0
      vertex -33 0 0
    endloop
  endfacet
  facet normal 0 0 -1
    outer loop
      vertex -38 0 0
      vertex -32.4271 -1.76336 0
      vertex -37.1696 -7.90064 0
    endloop
  endfacet
  facet normal 0 0 -1
    outer loop
      vertex -29.0729 2.85317 0
      vertex -34.7147 15.456 0
      vertex -30.7426 22.3358 0
    endloop
  endfacet
  facet normal 0 0 -1
    outer loop
      vertex -32.4271 -1.76336 0
      vertex -38 0 0
      vertex -33 0 0
    endloop
  endfacet
  facet normal 0 0 -1
    outer loop
      vertex -30.9271 2.85317 0
      vertex -37.1696 7.90064 0
      vertex -34.7147 15.456 0
    endloop
  endfacet
  facet normal -0 0 -1
    outer loop
      vertex -32.4271 1.76336 0
      vertex -38 0 0
      vertex -37.1696 7.90064 0
    endloop
  endfacet
  facet normal -0 0 -1
    outer loop
      vertex 25.427 28.2395 0
      vertex 2.27226 8.29193 0
      vertex 19 32.909 0
    endloop
  endfacet
  facet normal -0 0 -1
    outer loop
      vertex 19 32.909 0
      vertex 2.27226 8.29193 0
      vertex 11.7426 36.1401 0
    endloop
  endfacet
  facet normal 0 0 -1
    outer loop
      vertex 0.482146 8.97083 0
      vertex 11.7426 36.1401 0
      vertex 2.27226 8.29193 0
    endloop
  endfacet
  facet normal -0 0 -1
    outer loop
      vertex 11.7426 36.1401 0
      vertex 0.482146 8.97083 0
      vertex 3.97208 37.7918 0
    endloop
  endfacet
  facet normal 0 0 -1
    outer loop
      vertex -3.97208 37.7918 0
      vertex 0.482146 8.97083 0
      vertex -1.41842 8.74006 0
    endloop
  endfacet
  facet normal 0 0 -1
    outer loop
      vertex -19 32.909 0
      vertex -1.41842 8.74006 0
      vertex -2.99404 7.65249 0
    endloop
  endfacet
  facet normal 0 0 -1
    outer loop
      vertex -25.427 28.2395 0
      vertex -2.99404 7.65249 0
      vertex -3.88377 5.95726 0
    endloop
  endfacet
  facet normal 0 0 -1
    outer loop
      vertex 0.482146 8.97083 0
      vertex -3.97208 37.7918 0
      vertex 3.97208 37.7918 0
    endloop
  endfacet
  facet normal -0 0 -1
    outer loop
      vertex -1.41842 1.25993 0
      vertex -25.427 -28.2395 0
      vertex -2.99404 2.34751 0
    endloop
  endfacet
  facet normal 0 0 -1
    outer loop
      vertex -27.5729 -1.76336 0
      vertex -2.99404 2.34751 0
      vertex -25.427 -28.2395 0
    endloop
  endfacet
  facet normal -0 0 -1
    outer loop
      vertex -3.88377 4.04274 0
      vertex -27.5729 1.76336 0
      vertex -3.88377 5.95726 0
    endloop
  endfacet
  facet normal 0 -0 -1
    outer loop
      vertex -27 0 0
      vertex -2.99404 2.34751 0
      vertex -27.5729 -1.76336 0
    endloop
  endfacet
  facet normal 0 0 -1
    outer loop
      vertex -1.41842 8.74006 0
      vertex -11.7426 36.1401 0
      vertex -3.97208 37.7918 0
    endloop
  endfacet
  facet normal -0 0 -1
    outer loop
      vertex -2.99404 2.34751 0
      vertex -27 0 0
      vertex -3.88377 4.04274 0
    endloop
  endfacet
  facet normal 0 0 -1
    outer loop
      vertex -1.41842 8.74006 0
      vertex -19 32.909 0
      vertex -11.7426 36.1401 0
    endloop
  endfacet
  facet normal 0 0 -1
    outer loop
      vertex -2.99404 7.65249 0
      vertex -25.427 28.2395 0
      vertex -19 32.909 0
    endloop
  endfacet
  facet normal 0 0 -1
    outer loop
      vertex -27.5729 1.76336 0
      vertex -3.88377 4.04274 0
      vertex -27 0 0
    endloop
  endfacet
  facet normal 0 0 -1
    outer loop
      vertex -30.7426 -22.3358 0
      vertex -27.5729 -1.76336 0
      vertex -25.427 -28.2395 0
    endloop
  endfacet
  facet normal 0 0 -1
    outer loop
      vertex -27.5729 -1.76336 0
      vertex -30.7426 -22.3358 0
      vertex -29.0729 -2.85317 0
    endloop
  endfacet
  facet normal 0 0 -1
    outer loop
      vertex -34.7147 -15.456 0
      vertex -29.0729 -2.85317 0
      vertex -30.7426 -22.3358 0
    endloop
  endfacet
  facet normal -0 0 -1
    outer loop
      vertex -29.0729 -2.85317 0
      vertex -34.7147 -15.456 0
      vertex -30.9271 -2.85317 0
    endloop
  endfacet
  facet normal 0 0 -1
    outer loop
      vertex -37.1696 -7.90064 0
      vertex -30.9271 -2.85317 0
      vertex -34.7147 -15.456 0
    endloop
  endfacet
  facet normal -0 0 -1
    outer loop
      vertex -30.9271 -2.85317 0
      vertex -37.1696 -7.90064 0
      vertex -32.4271 -1.76336 0
    endloop
  endfacet
  facet normal 0 0 -1
    outer loop
      vertex 32.4271 -1.76336 0
      vertex 38 0 0
      vertex 37.1696 -7.90064 0
    endloop
  endfacet
  facet normal 0 0 -1
    outer loop
      vertex 30.9271 -2.85317 0
      vertex 37.1696 -7.90064 0
      vertex 34.7147 -15.456 0
    endloop
  endfacet
  facet normal 0 0 -1
    outer loop
      vertex 32.4271 1.76336 0
      vertex 38 0 0
      vertex 33 0 0
    endloop
  endfacet
  facet normal 0 0 -1
    outer loop
      vertex 38 0 0
      vertex 32.4271 1.76336 0
      vertex 37.1696 7.90064 0
    endloop
  endfacet
  facet normal -0 0 -1
    outer loop
      vertex 38 0 0
      vertex 32.4271 -1.76336 0
      vertex 33 0 0
    endloop
  endfacet
  facet normal 0 0 -1
    outer loop
      vertex 37.1696 -7.90064 0
      vertex 30.9271 -2.85317 0
      vertex 32.4271 -1.76336 0
    endloop
  endfacet
  facet normal 0 0 -1
    outer loop
      vertex 29.0729 -2.85317 0
      vertex 34.7147 -15.456 0
      vertex 30.7426 -22.3358 0
    endloop
  endfacet
  facet normal 0 0 -1
    outer loop
      vertex 34.7147 -15.456 0
      vertex 29.0729 -2.85317 0
      vertex 30.9271 -2.85317 0
    endloop
  endfacet
  facet normal 0 0 -1
    outer loop
      vertex 30.7426 -22.3358 0
      vertex 27.5729 -1.76336 0
      vertex 29.0729 -2.85317 0
    endloop
  endfacet
  facet normal 0 0 -1
    outer loop
      vertex 25.427 -28.2395 0
      vertex 27.5729 -1.76336 0
      vertex 30.7426 -22.3358 0
    endloop
  endfacet
  facet normal 0 0 -1
    outer loop
      vertex 2.27226 1.70806 0
      vertex 27.5729 -1.76336 0
      vertex 25.427 -28.2395 0
    endloop
  endfacet
  facet normal 0 0 -1
    outer loop
      vertex 30.9271 2.85317 0
      vertex 37.1696 7.90064 0
      vertex 32.4271 1.76336 0
    endloop
  endfacet
  facet normal -0 0 -1
    outer loop
      vertex 37.1696 7.90064 0
      vertex 30.9271 2.85317 0
      vertex 34.7147 15.456 0
    endloop
  endfacet
  facet normal 0 0 -1
    outer loop
      vertex 29.0729 2.85317 0
      vertex 34.7147 15.456 0
      vertex 30.9271 2.85317 0
    endloop
  endfacet
  facet normal -0 0 -1
    outer loop
      vertex 34.7147 15.456 0
      vertex 29.0729 2.85317 0
      vertex 30.7426 22.3358 0
    endloop
  endfacet
  facet normal 0 0 -1
    outer loop
      vertex 27.5729 1.76336 0
      vertex 30.7426 22.3358 0
      vertex 29.0729 2.85317 0
    endloop
  endfacet
  facet normal 0 0 -1
    outer loop
      vertex 4 5 0
      vertex 27.5729 1.76336 0
      vertex 27 0 0
    endloop
  endfacet
  facet normal 0 0 -1
    outer loop
      vertex 3.54182 6.85889 0
      vertex 27.5729 1.76336 0
      vertex 4 5 0
    endloop
  endfacet
  facet normal 0 -0 -1
    outer loop
      vertex 3.54182 3.14111 0
      vertex 27.5729 -1.76336 0
      vertex 2.27226 1.70806 0
    endloop
  endfacet
  facet normal 0 0 -1
    outer loop
      vertex 2.27226 1.70806 0
      vertex 25.427 -28.2395 0
      vertex 19 -32.909 0
    endloop
  endfacet
  facet normal 0 0 -1
    outer loop
      vertex 27.5729 1.76336 0
      vertex 3.54182 6.85889 0
      vertex 30.7426 22.3358 0
    endloop
  endfacet
  facet normal 0 0 -1
    outer loop
      vertex 0.482146 1.02916 0
      vertex 19 -32.909 0
      vertex 11.7426 -36.1401 0
    endloop
  endfacet
  facet normal -0 0 -1
    outer loop
      vertex 30.7426 22.3358 0
      vertex 3.54182 6.85889 0
      vertex 25.427 28.2395 0
    endloop
  endfacet
  facet normal 0 0 -1
    outer loop
      vertex 2.27226 8.29193 0
      vertex 25.427 28.2395 0
      vertex 3.54182 6.85889 0
    endloop
  endfacet
  facet normal 0 0 -1
    outer loop
      vertex 0.482146 1.02916 0
      vertex 11.7426 -36.1401 0
      vertex 3.97208 -37.7918 0
    endloop
  endfacet
  facet normal 0 0 -1
    outer loop
      vertex 27 0 0
      vertex 3.54182 3.14111 0
      vertex 4 5 0
    endloop
  endfacet
  facet normal 0 0 -1
    outer loop
      vertex 27.5729 -1.76336 0
      vertex 3.54182 3.14111 0
      vertex 27 0 0
    endloop
  endfacet
  facet normal 0 0 -1
    outer loop
      vertex 19 -32.909 0
      vertex 0.482146 1.02916 0
      vertex 2.27226 1.70806 0
    endloop
  endfacet
  facet normal 0 0 -1
    outer loop
      vertex -3.97208 -37.7918 0
      vertex 0.482146 1.02916 0
      vertex 3.97208 -37.7918 0
    endloop
  endfacet
  facet normal -0 0 -1
    outer loop
      vertex 0.482146 1.02916 0
      vertex -3.97208 -37.7918 0
      vertex -1.41842 1.25993 0
    endloop
  endfacet
  facet normal 0 0 -1
    outer loop
      vertex -11.7426 -36.1401 0
      vertex -1.41842 1.25993 0
      vertex -3.97208 -37.7918 0
    endloop
  endfacet
  facet normal 0 0 -1
    outer loop
      vertex -25.427 -28.2395 0
      vertex -1.41842 1.25993 0
      vertex -19 -32.909 0
    endloop
  endfacet
  facet normal 0 0 -1
    outer loop
      vertex -19 -32.909 0
      vertex -1.41842 1.25993 0
      vertex -11.7426 -36.1401 0
    endloop
  endfacet
  facet normal 0.866025 -0.5 0
    outer loop
      vertex 30.7426 -22.3358 5
      vertex 34.7147 -15.456 0
      vertex 34.7147 -15.456 5
    endloop
  endfacet
  facet normal 0.866025 -0.5 0
    outer loop
      vertex 34.7147 -15.456 0
      vertex 30.7426 -22.3358 5
      vertex 30.7426 -22.3358 0
    endloop
  endfacet
  facet normal -0.866025 -0.5 0
    outer loop
      vertex -30.7426 -22.3358 0
      vertex -34.7147 -15.456 5
      vertex -34.7147 -15.456 0
    endloop
  endfacet
  facet normal -0.866025 -0.5 0
    outer loop
      vertex -34.7147 -15.456 5
      vertex -30.7426 -22.3358 0
      vertex -30.7426 -22.3358 5
    endloop
  endfacet
  facet normal -0.743145 -0.669131 0
    outer loop
      vertex -25.427 -28.2395 0
      vertex -30.7426 -22.3358 5
      vertex -30.7426 -22.3358 0
    endloop
  endfacet
  facet normal -0.743145 -0.669131 0
    outer loop
      vertex -30.7426 -22.3358 5
      vertex -25.427 -28.2395 0
      vertex -25.427 -28.2395 5
    endloop
  endfacet
  facet normal 0.587785 -0.809017 0
    outer loop
      vertex 19 -32.909 0
      vertex 25.427 -28.2395 5
      vertex 19 -32.909 5
    endloop
  endfacet
  facet normal 0.587785 -0.809017 0
    outer loop
      vertex 25.427 -28.2395 5
      vertex 19 -32.909 0
      vertex 25.427 -28.2395 0
    endloop
  endfacet
  facet normal -0.207912 -0.978148 0
    outer loop
      vertex -11.7426 -36.1401 0
      vertex -3.97208 -37.7918 5
      vertex -11.7426 -36.1401 5
    endloop
  endfacet
  facet normal -0.207912 -0.978148 -0
    outer loop
      vertex -3.97208 -37.7918 5
      vertex -11.7426 -36.1401 0
      vertex -3.97208 -37.7918 0
    endloop
  endfacet
  facet normal -0.951056 -0.309017 0
    outer loop
      vertex -34.7147 -15.456 0
      vertex -37.1696 -7.90064 5
      vertex -37.1696 -7.90064 0
    endloop
  endfacet
  facet normal -0.951056 -0.309017 0
    outer loop
      vertex -37.1696 -7.90064 5
      vertex -34.7147 -15.456 0
      vertex -34.7147 -15.456 5
    endloop
  endfacet
  facet normal -0.994522 -0.104528 0
    outer loop
      vertex -37.1696 -7.90064 0
      vertex -38 0 5
      vertex -38 0 0
    endloop
  endfacet
  facet normal -0.994522 -0.104528 0
    outer loop
      vertex -38 0 5
      vertex -37.1696 -7.90064 0
      vertex -37.1696 -7.90064 5
    endloop
  endfacet
  facet normal 0.406737 -0.913545 0
    outer loop
      vertex 11.7426 -36.1401 0
      vertex 19 -32.909 5
      vertex 11.7426 -36.1401 5
    endloop
  endfacet
  facet normal 0.406737 -0.913545 0
    outer loop
      vertex 19 -32.909 5
      vertex 11.7426 -36.1401 0
      vertex 19 -32.909 0
    endloop
  endfacet
  facet normal 0.207912 -0.978148 0
    outer loop
      vertex 3.97208 -37.7918 0
      vertex 11.7426 -36.1401 5
      vertex 3.97208 -37.7918 5
    endloop
  endfacet
  facet normal 0.207912 -0.978148 0
    outer loop
      vertex 11.7426 -36.1401 5
      vertex 3.97208 -37.7918 0
      vertex 11.7426 -36.1401 0
    endloop
  endfacet
  facet normal 0.743145 -0.669131 0
    outer loop
      vertex 25.427 -28.2395 5
      vertex 30.7426 -22.3358 0
      vertex 30.7426 -22.3358 5
    endloop
  endfacet
  facet normal 0.743145 -0.669131 0
    outer loop
      vertex 30.7426 -22.3358 0
      vertex 25.427 -28.2395 5
      vertex 25.427 -28.2395 0
    endloop
  endfacet
  facet normal -0.406737 -0.913545 0
    outer loop
      vertex -19 -32.909 0
      vertex -11.7426 -36.1401 5
      vertex -19 -32.909 5
    endloop
  endfacet
  facet normal -0.406737 -0.913545 -0
    outer loop
      vertex -11.7426 -36.1401 5
      vertex -19 -32.909 0
      vertex -11.7426 -36.1401 0
    endloop
  endfacet
  facet normal -0.587785 -0.809017 0
    outer loop
      vertex -25.427 -28.2395 0
      vertex -19 -32.909 5
      vertex -25.427 -28.2395 5
    endloop
  endfacet
  facet normal -0.587785 -0.809017 -0
    outer loop
      vertex -19 -32.909 5
      vertex -25.427 -28.2395 0
      vertex -19 -32.909 0
    endloop
  endfacet
  facet normal -0.970942 -0.239316 0
    outer loop
      vertex 4 5 0
      vertex 3.54182 6.85889 5
      vertex 3.54182 6.85889 0
    endloop
  endfacet
  facet normal -0.970942 -0.239316 0
    outer loop
      vertex 3.54182 6.85889 5
      vertex 4 5 0
      vertex 4 5 5
    endloop
  endfacet
  facet normal 1 -0 0
    outer loop
      vertex -3.88377 4.04274 5
      vertex -3.88377 5.95726 0
      vertex -3.88377 5.95726 5
    endloop
  endfacet
  facet normal 1 0 0
    outer loop
      vertex -3.88377 5.95726 0
      vertex -3.88377 4.04274 5
      vertex -3.88377 4.04274 0
    endloop
  endfacet
  facet normal 0.120537 -0.992709 0
    outer loop
      vertex -1.41842 8.74006 0
      vertex 0.482146 8.97083 5
      vertex -1.41842 8.74006 5
    endloop
  endfacet
  facet normal 0.120537 -0.992709 0
    outer loop
      vertex 0.482146 8.97083 5
      vertex -1.41842 8.74006 0
      vertex 0.482146 8.97083 0
    endloop
  endfacet
  facet normal -0.748511 -0.663123 0
    outer loop
      vertex 3.54182 6.85889 0
      vertex 2.27226 8.29193 5
      vertex 2.27226 8.29193 0
    endloop
  endfacet
  facet normal -0.748511 -0.663123 0
    outer loop
      vertex 2.27226 8.29193 5
      vertex 3.54182 6.85889 0
      vertex 3.54182 6.85889 5
    endloop
  endfacet
  facet normal 0.568065 -0.822984 0
    outer loop
      vertex -2.99404 7.65249 0
      vertex -1.41842 8.74006 5
      vertex -2.99404 7.65249 5
    endloop
  endfacet
  facet normal 0.568065 -0.822984 0
    outer loop
      vertex -1.41842 8.74006 5
      vertex -2.99404 7.65249 0
      vertex -1.41842 8.74006 0
    endloop
  endfacet
  facet normal -0.354605 0.935016 0
    outer loop
      vertex 2.27226 1.70806 0
      vertex 0.482146 1.02916 5
      vertex 2.27226 1.70806 5
    endloop
  endfacet
  facet normal -0.354605 0.935016 0
    outer loop
      vertex 0.482146 1.02916 5
      vertex 2.27226 1.70806 0
      vertex 0.482146 1.02916 0
    endloop
  endfacet
  facet normal -0.354605 -0.935016 0
    outer loop
      vertex 0.482146 8.97083 0
      vertex 2.27226 8.29193 5
      vertex 0.482146 8.97083 5
    endloop
  endfacet
  facet normal -0.354605 -0.935016 -0
    outer loop
      vertex 2.27226 8.29193 5
      vertex 0.482146 8.97083 0
      vertex 2.27226 8.29193 0
    endloop
  endfacet
  facet normal 0.885456 -0.464723 0
    outer loop
      vertex -3.88377 5.95726 5
      vertex -2.99404 7.65249 0
      vertex -2.99404 7.65249 5
    endloop
  endfacet
  facet normal 0.885456 -0.464723 0
    outer loop
      vertex -2.99404 7.65249 0
      vertex -3.88377 5.95726 5
      vertex -3.88377 5.95726 0
    endloop
  endfacet
  facet normal -0.970942 0.239316 0
    outer loop
      vertex 3.54182 3.14111 0
      vertex 4 5 5
      vertex 4 5 0
    endloop
  endfacet
  facet normal -0.970942 0.239316 0
    outer loop
      vertex 4 5 5
      vertex 3.54182 3.14111 0
      vertex 3.54182 3.14111 5
    endloop
  endfacet
  facet normal -0.748511 0.663123 0
    outer loop
      vertex 2.27226 1.70806 0
      vertex 3.54182 3.14111 5
      vertex 3.54182 3.14111 0
    endloop
  endfacet
  facet normal -0.748511 0.663123 0
    outer loop
      vertex 3.54182 3.14111 5
      vertex 2.27226 1.70806 0
      vertex 2.27226 1.70806 5
    endloop
  endfacet
  facet normal 0.120537 0.992709 -0
    outer loop
      vertex 0.482146 1.02916 0
      vertex -1.41842 1.25993 5
      vertex 0.482146 1.02916 5
    endloop
  endfacet
  facet normal 0.120537 0.992709 0
    outer loop
      vertex -1.41842 1.25993 5
      vertex 0.482146 1.02916 0
      vertex -1.41842 1.25993 0
    endloop
  endfacet
  facet normal 0.568065 0.822984 -0
    outer loop
      vertex -1.41842 1.25993 0
      vertex -2.99404 2.34751 5
      vertex -1.41842 1.25993 5
    endloop
  endfacet
  facet normal 0.568065 0.822984 0
    outer loop
      vertex -2.99404 2.34751 5
      vertex -1.41842 1.25993 0
      vertex -2.99404 2.34751 0
    endloop
  endfacet
  facet normal 0.885456 0.464723 0
    outer loop
      vertex -2.99404 2.34751 5
      vertex -3.88377 4.04274 0
      vertex -3.88377 4.04274 5
    endloop
  endfacet
  facet normal 0.885456 0.464723 0
    outer loop
      vertex -3.88377 4.04274 0
      vertex -2.99404 2.34751 5
      vertex -2.99404 2.34751 0
    endloop
  endfacet
  facet normal 0.986361 0.164594 0
    outer loop
      vertex 36 0 10
      vertex 35.6749 1.9482 5
      vertex 35.6749 1.9482 10
    endloop
  endfacet
  facet normal 0.986361 0.164594 0
    outer loop
      vertex 35.6749 1.9482 5
      vertex 36 0 10
      vertex 36 0 5
    endloop
  endfacet
  facet normal -1 0 0
    outer loop
      vertex 24.0818 -0.987567 5
      vertex 24.0818 0.987567 10
      vertex 24.0818 0.987567 5
    endloop
  endfacet
  facet normal -1 -0 0
    outer loop
      vertex 24.0818 0.987567 10
      vertex 24.0818 -0.987567 5
      vertex 24.0818 -0.987567 10
    endloop
  endfacet
  facet normal 0.0825792 0.996585 -0
    outer loop
      vertex 31.4729 5.8164 5
      vertex 29.5045 5.97951 10
      vertex 31.4729 5.8164 10
    endloop
  endfacet
  facet normal 0.0825792 0.996585 0
    outer loop
      vertex 29.5045 5.97951 10
      vertex 31.4729 5.8164 5
      vertex 29.5045 5.97951 5
    endloop
  endfacet
  facet normal 0.0825792 -0.996585 0
    outer loop
      vertex 29.5045 -5.97951 5
      vertex 31.4729 -5.8164 10
      vertex 29.5045 -5.97951 10
    endloop
  endfacet
  facet normal 0.0825792 -0.996585 0
    outer loop
      vertex 31.4729 -5.8164 10
      vertex 29.5045 -5.97951 5
      vertex 31.4729 -5.8164 5
    endloop
  endfacet
  facet normal 0.401695 -0.915773 0
    outer loop
      vertex 31.4729 -5.8164 5
      vertex 33.2817 -5.023 10
      vertex 31.4729 -5.8164 10
    endloop
  endfacet
  facet normal 0.401695 -0.915773 0
    outer loop
      vertex 33.2817 -5.023 10
      vertex 31.4729 -5.8164 5
      vertex 33.2817 -5.023 5
    endloop
  endfacet
  facet normal 0.677282 0.735723 -0
    outer loop
      vertex 34.7348 3.68528 5
      vertex 33.2817 5.023 10
      vertex 34.7348 3.68528 10
    endloop
  endfacet
  facet normal 0.677282 0.735723 0
    outer loop
      vertex 33.2817 5.023 10
      vertex 34.7348 3.68528 5
      vertex 33.2817 5.023 5
    endloop
  endfacet
  facet normal 0.879473 0.475949 0
    outer loop
      vertex 35.6749 1.9482 10
      vertex 34.7348 3.68528 5
      vertex 34.7348 3.68528 10
    endloop
  endfacet
  facet normal 0.879473 0.475949 0
    outer loop
      vertex 34.7348 3.68528 5
      vertex 35.6749 1.9482 10
      vertex 35.6749 1.9482 5
    endloop
  endfacet
  facet normal 0.401695 0.915773 -0
    outer loop
      vertex 33.2817 5.023 5
      vertex 31.4729 5.8164 10
      vertex 33.2817 5.023 10
    endloop
  endfacet
  facet normal 0.401695 0.915773 0
    outer loop
      vertex 31.4729 5.8164 10
      vertex 33.2817 5.023 5
      vertex 31.4729 5.8164 5
    endloop
  endfacet
  facet normal -0.789141 0.614212 0
    outer loop
      vertex 24.7232 2.85568 5
      vertex 25.9363 4.41434 10
      vertex 25.9363 4.41434 5
    endloop
  endfacet
  facet normal -0.789141 0.614212 0
    outer loop
      vertex 25.9363 4.41434 10
      vertex 24.7232 2.85568 5
      vertex 24.7232 2.85568 10
    endloop
  endfacet
  facet normal -0.945817 0.324699 0
    outer loop
      vertex 24.0818 0.987567 5
      vertex 24.7232 2.85568 10
      vertex 24.7232 2.85568 5
    endloop
  endfacet
  facet normal -0.945817 0.324699 0
    outer loop
      vertex 24.7232 2.85568 10
      vertex 24.0818 0.987567 5
      vertex 24.0818 0.987567 10
    endloop
  endfacet
  facet normal 0 0 1
    outer loop
      vertex 33 0 10
      vertex 36 0 10
      vertex 35.6749 1.9482 10
    endloop
  endfacet
  facet normal 0 0 1
    outer loop
      vertex 32.4271 1.76336 10
      vertex 35.6749 1.9482 10
      vertex 34.7348 3.68528 10
    endloop
  endfacet
  facet normal 0 0 1
    outer loop
      vertex 36 0 10
      vertex 33 0 10
      vertex 35.6749 -1.9482 10
    endloop
  endfacet
  facet normal 0 0 1
    outer loop
      vertex 32.4271 1.76336 10
      vertex 34.7348 3.68528 10
      vertex 33.2817 5.023 10
    endloop
  endfacet
  facet normal -0 0 1
    outer loop
      vertex 32.4271 -1.76336 10
      vertex 35.6749 -1.9482 10
      vertex 33 0 10
    endloop
  endfacet
  facet normal 0 0 1
    outer loop
      vertex 35.6749 -1.9482 10
      vertex 32.4271 -1.76336 10
      vertex 34.7348 -3.68528 10
    endloop
  endfacet
  facet normal 0 0 1
    outer loop
      vertex 35.6749 1.9482 10
      vertex 32.4271 1.76336 10
      vertex 33 0 10
    endloop
  endfacet
  facet normal 0 0 1
    outer loop
      vertex 30.9271 2.85317 10
      vertex 33.2817 5.023 10
      vertex 31.4729 5.8164 10
    endloop
  endfacet
  facet normal 0 0 1
    outer loop
      vertex 33.2817 5.023 10
      vertex 30.9271 2.85317 10
      vertex 32.4271 1.76336 10
    endloop
  endfacet
  facet normal 0 0 1
    outer loop
      vertex 29.5045 5.97951 10
      vertex 30.9271 2.85317 10
      vertex 31.4729 5.8164 10
    endloop
  endfacet
  facet normal 0 0 1
    outer loop
      vertex 29.5045 5.97951 10
      vertex 29.0729 2.85317 10
      vertex 30.9271 2.85317 10
    endloop
  endfacet
  facet normal -0 0 1
    outer loop
      vertex 27.5898 5.49464 10
      vertex 29.0729 2.85317 10
      vertex 29.5045 5.97951 10
    endloop
  endfacet
  facet normal -0 0 1
    outer loop
      vertex 25.9363 4.41434 10
      vertex 29.0729 2.85317 10
      vertex 27.5898 5.49464 10
    endloop
  endfacet
  facet normal 0 0 1
    outer loop
      vertex 29.0729 2.85317 10
      vertex 25.9363 4.41434 10
      vertex 27.5729 1.76336 10
    endloop
  endfacet
  facet normal -0 0 1
    outer loop
      vertex 24.7232 2.85568 10
      vertex 27.5729 1.76336 10
      vertex 25.9363 4.41434 10
    endloop
  endfacet
  facet normal 0 0 1
    outer loop
      vertex 34.7348 -3.68528 10
      vertex 32.4271 -1.76336 10
      vertex 33.2817 -5.023 10
    endloop
  endfacet
  facet normal -0 0 1
    outer loop
      vertex 30.9271 -2.85317 10
      vertex 33.2817 -5.023 10
      vertex 32.4271 -1.76336 10
    endloop
  endfacet
  facet normal 0 0 1
    outer loop
      vertex 33.2817 -5.023 10
      vertex 30.9271 -2.85317 10
      vertex 31.4729 -5.8164 10
    endloop
  endfacet
  facet normal 0 0 1
    outer loop
      vertex 30.9271 -2.85317 10
      vertex 29.5045 -5.97951 10
      vertex 31.4729 -5.8164 10
    endloop
  endfacet
  facet normal -0 0 1
    outer loop
      vertex 29.0729 -2.85317 10
      vertex 29.5045 -5.97951 10
      vertex 30.9271 -2.85317 10
    endloop
  endfacet
  facet normal 0 0 1
    outer loop
      vertex 29.0729 -2.85317 10
      vertex 27.5898 -5.49464 10
      vertex 29.5045 -5.97951 10
    endloop
  endfacet
  facet normal 0 0 1
    outer loop
      vertex 25.9363 -4.41434 10
      vertex 29.0729 -2.85317 10
      vertex 27.5729 -1.76336 10
    endloop
  endfacet
  facet normal -0 0 1
    outer loop
      vertex 24.0818 -0.987567 10
      vertex 27.5729 -1.76336 10
      vertex 27 0 10
    endloop
  endfacet
  facet normal 0 0 1
    outer loop
      vertex 24.0818 0.987567 10
      vertex 27.5729 1.76336 10
      vertex 24.7232 2.85568 10
    endloop
  endfacet
  facet normal 0 0 1
    outer loop
      vertex 29.0729 -2.85317 10
      vertex 25.9363 -4.41434 10
      vertex 27.5898 -5.49464 10
    endloop
  endfacet
  facet normal 0 0 1
    outer loop
      vertex 27.5729 1.76336 10
      vertex 24.0818 0.987567 10
      vertex 27 0 10
    endloop
  endfacet
  facet normal 0 0 1
    outer loop
      vertex 27.5729 -1.76336 10
      vertex 24.7232 -2.85568 10
      vertex 25.9363 -4.41434 10
    endloop
  endfacet
  facet normal 0 0 1
    outer loop
      vertex 24.0818 -0.987567 10
      vertex 27 0 10
      vertex 24.0818 0.987567 10
    endloop
  endfacet
  facet normal 0 0 1
    outer loop
      vertex 27.5729 -1.76336 10
      vertex 24.0818 -0.987567 10
      vertex 24.7232 -2.85568 10
    endloop
  endfacet
  facet normal -0.245486 0.9694 0
    outer loop
      vertex 29.5045 5.97951 5
      vertex 27.5898 5.49464 10
      vertex 29.5045 5.97951 10
    endloop
  endfacet
  facet normal -0.245486 0.9694 0
    outer loop
      vertex 27.5898 5.49464 10
      vertex 29.5045 5.97951 5
      vertex 27.5898 5.49464 5
    endloop
  endfacet
  facet normal -0.546948 -0.837167 0
    outer loop
      vertex 25.9363 -4.41434 5
      vertex 27.5898 -5.49464 10
      vertex 25.9363 -4.41434 10
    endloop
  endfacet
  facet normal -0.546948 -0.837167 -0
    outer loop
      vertex 27.5898 -5.49464 10
      vertex 25.9363 -4.41434 5
      vertex 27.5898 -5.49464 5
    endloop
  endfacet
  facet normal -0.945817 -0.324699 0
    outer loop
      vertex 24.7232 -2.85568 5
      vertex 24.0818 -0.987567 10
      vertex 24.0818 -0.987567 5
    endloop
  endfacet
  facet normal -0.945817 -0.324699 0
    outer loop
      vertex 24.0818 -0.987567 10
      vertex 24.7232 -2.85568 5
      vertex 24.7232 -2.85568 10
    endloop
  endfacet
  facet normal -0.546948 0.837167 0
    outer loop
      vertex 27.5898 5.49464 5
      vertex 25.9363 4.41434 10
      vertex 27.5898 5.49464 10
    endloop
  endfacet
  facet normal -0.546948 0.837167 0
    outer loop
      vertex 25.9363 4.41434 10
      vertex 27.5898 5.49464 5
      vertex 25.9363 4.41434 5
    endloop
  endfacet
  facet normal 0.986361 -0.164594 0
    outer loop
      vertex 35.6749 -1.9482 10
      vertex 36 0 5
      vertex 36 0 10
    endloop
  endfacet
  facet normal 0.986361 -0.164594 0
    outer loop
      vertex 36 0 5
      vertex 35.6749 -1.9482 10
      vertex 35.6749 -1.9482 5
    endloop
  endfacet
  facet normal -0.245486 -0.9694 0
    outer loop
      vertex 27.5898 -5.49464 5
      vertex 29.5045 -5.97951 10
      vertex 27.5898 -5.49464 10
    endloop
  endfacet
  facet normal -0.245486 -0.9694 -0
    outer loop
      vertex 29.5045 -5.97951 10
      vertex 27.5898 -5.49464 5
      vertex 29.5045 -5.97951 5
    endloop
  endfacet
  facet normal -0.789141 -0.614212 0
    outer loop
      vertex 25.9363 -4.41434 5
      vertex 24.7232 -2.85568 10
      vertex 24.7232 -2.85568 5
    endloop
  endfacet
  facet normal -0.789141 -0.614212 0
    outer loop
      vertex 24.7232 -2.85568 10
      vertex 25.9363 -4.41434 5
      vertex 25.9363 -4.41434 10
    endloop
  endfacet
  facet normal 0.677282 -0.735723 0
    outer loop
      vertex 33.2817 -5.023 5
      vertex 34.7348 -3.68528 10
      vertex 33.2817 -5.023 10
    endloop
  endfacet
  facet normal 0.677282 -0.735723 0
    outer loop
      vertex 34.7348 -3.68528 10
      vertex 33.2817 -5.023 5
      vertex 34.7348 -3.68528 5
    endloop
  endfacet
  facet normal 0.879473 -0.475949 0
    outer loop
      vertex 34.7348 -3.68528 10
      vertex 35.6749 -1.9482 5
      vertex 35.6749 -1.9482 10
    endloop
  endfacet
  facet normal 0.879473 -0.475949 0
    outer loop
      vertex 35.6749 -1.9482 5
      vertex 34.7348 -3.68528 10
      vertex 34.7348 -3.68528 5
    endloop
  endfacet
  facet normal -0.951057 -0.309017 0
    outer loop
      vertex 33 0 0
      vertex 32.4271 1.76336 10
      vertex 32.4271 1.76336 0
    endloop
  endfacet
  facet normal -0.951057 -0.309017 0
    outer loop
      vertex 32.4271 1.76336 10
      vertex 33 0 0
      vertex 33 0 10
    endloop
  endfacet
  facet normal 0.951057 -0.309017 0
    outer loop
      vertex 27 0 10
      vertex 27.5729 1.76336 5
      vertex 27.5729 1.76336 10
    endloop
  endfacet
  facet normal 0.951057 -0.309017 0
    outer loop
      vertex 27.5729 1.76336 5
      vertex 27 0 10
      vertex 27 0 5
    endloop
  endfacet
  facet normal 0 1 0
    outer loop
      vertex 30.9271 -2.85317 10
      vertex 29.0729 -2.85317 5
      vertex 29.0729 -2.85317 10
    endloop
  endfacet
  facet normal 0 1 -0
    outer loop
      vertex 30.9271 -2.85317 0
      vertex 29.0729 -2.85317 5
      vertex 30.9271 -2.85317 10
    endloop
  endfacet
  facet normal 0 1 0
    outer loop
      vertex 29.0729 -2.85317 5
      vertex 30.9271 -2.85317 0
      vertex 29.0729 -2.85317 0
    endloop
  endfacet
  facet normal 0 -1 0
    outer loop
      vertex 29.0729 2.85317 5
      vertex 30.9271 2.85317 10
      vertex 29.0729 2.85317 10
    endloop
  endfacet
  facet normal 0 -1 0
    outer loop
      vertex 30.9271 2.85317 0
      vertex 29.0729 2.85317 5
      vertex 29.0729 2.85317 0
    endloop
  endfacet
  facet normal 0 -1 0
    outer loop
      vertex 29.0729 2.85317 5
      vertex 30.9271 2.85317 0
      vertex 30.9271 2.85317 10
    endloop
  endfacet
  facet normal -0.587785 -0.809017 0
    outer loop
      vertex 30.9271 2.85317 0
      vertex 32.4271 1.76336 10
      vertex 30.9271 2.85317 10
    endloop
  endfacet
  facet normal -0.587785 -0.809017 -0
    outer loop
      vertex 32.4271 1.76336 10
      vertex 30.9271 2.85317 0
      vertex 32.4271 1.76336 0
    endloop
  endfacet
  facet normal 0.587785 -0.809017 0
    outer loop
      vertex 27.5729 1.76336 5
      vertex 29.0729 2.85317 10
      vertex 27.5729 1.76336 10
    endloop
  endfacet
  facet normal 0.587785 -0.809017 0
    outer loop
      vertex 29.0729 2.85317 10
      vertex 27.5729 1.76336 5
      vertex 29.0729 2.85317 5
    endloop
  endfacet
  facet normal 0.951057 0.309017 0
    outer loop
      vertex 27.5729 -1.76336 10
      vertex 27 0 5
      vertex 27 0 10
    endloop
  endfacet
  facet normal 0.951057 0.309017 0
    outer loop
      vertex 27 0 5
      vertex 27.5729 -1.76336 10
      vertex 27.5729 -1.76336 5
    endloop
  endfacet
  facet normal -0.587785 0.809017 0
    outer loop
      vertex 32.4271 -1.76336 0
      vertex 30.9271 -2.85317 10
      vertex 32.4271 -1.76336 10
    endloop
  endfacet
  facet normal -0.587785 0.809017 0
    outer loop
      vertex 30.9271 -2.85317 10
      vertex 32.4271 -1.76336 0
      vertex 30.9271 -2.85317 0
    endloop
  endfacet
  facet normal 0.587785 0.809017 -0
    outer loop
      vertex 29.0729 -2.85317 5
      vertex 27.5729 -1.76336 10
      vertex 29.0729 -2.85317 10
    endloop
  endfacet
  facet normal 0.587785 0.809017 0
    outer loop
      vertex 27.5729 -1.76336 10
      vertex 29.0729 -2.85317 5
      vertex 27.5729 -1.76336 5
    endloop
  endfacet
  facet normal -0.951057 0.309017 0
    outer loop
      vertex 32.4271 -1.76336 0
      vertex 33 0 10
      vertex 33 0 0
    endloop
  endfacet
  facet normal -0.951057 0.309017 0
    outer loop
      vertex 33 0 10
      vertex 32.4271 -1.76336 0
      vertex 32.4271 -1.76336 10
    endloop
  endfacet
  facet normal 0.986361 0.164594 0
    outer loop
      vertex -24 0 10
      vertex -24.3251 1.9482 5
      vertex -24.3251 1.9482 10
    endloop
  endfacet
  facet normal 0.986361 0.164594 0
    outer loop
      vertex -24.3251 1.9482 5
      vertex -24 0 10
      vertex -24 0 5
    endloop
  endfacet
  facet normal -1 0 0
    outer loop
      vertex -35.9182 -0.987567 5
      vertex -35.9182 0.987567 10
      vertex -35.9182 0.987567 5
    endloop
  endfacet
  facet normal -1 -0 0
    outer loop
      vertex -35.9182 0.987567 10
      vertex -35.9182 -0.987567 5
      vertex -35.9182 -0.987567 10
    endloop
  endfacet
  facet normal 0.0825792 0.996585 -0
    outer loop
      vertex -28.5271 5.8164 5
      vertex -30.4955 5.97951 10
      vertex -28.5271 5.8164 10
    endloop
  endfacet
  facet normal 0.0825792 0.996585 0
    outer loop
      vertex -30.4955 5.97951 10
      vertex -28.5271 5.8164 5
      vertex -30.4955 5.97951 5
    endloop
  endfacet
  facet normal 0.0825792 -0.996585 0
    outer loop
      vertex -30.4955 -5.97951 5
      vertex -28.5271 -5.8164 10
      vertex -30.4955 -5.97951 10
    endloop
  endfacet
  facet normal 0.0825792 -0.996585 0
    outer loop
      vertex -28.5271 -5.8164 10
      vertex -30.4955 -5.97951 5
      vertex -28.5271 -5.8164 5
    endloop
  endfacet
  facet normal 0.401695 -0.915773 0
    outer loop
      vertex -28.5271 -5.8164 5
      vertex -26.7183 -5.023 10
      vertex -28.5271 -5.8164 10
    endloop
  endfacet
  facet normal 0.401695 -0.915773 0
    outer loop
      vertex -26.7183 -5.023 10
      vertex -28.5271 -5.8164 5
      vertex -26.7183 -5.023 5
    endloop
  endfacet
  facet normal 0.677282 0.735724 -0
    outer loop
      vertex -25.2652 3.68528 5
      vertex -26.7183 5.023 10
      vertex -25.2652 3.68528 10
    endloop
  endfacet
  facet normal 0.677282 0.735724 0
    outer loop
      vertex -26.7183 5.023 10
      vertex -25.2652 3.68528 5
      vertex -26.7183 5.023 5
    endloop
  endfacet
  facet normal 0.879474 0.475948 0
    outer loop
      vertex -24.3251 1.9482 10
      vertex -25.2652 3.68528 5
      vertex -25.2652 3.68528 10
    endloop
  endfacet
  facet normal 0.879474 0.475948 0
    outer loop
      vertex -25.2652 3.68528 5
      vertex -24.3251 1.9482 10
      vertex -24.3251 1.9482 5
    endloop
  endfacet
  facet normal 0.401695 0.915773 -0
    outer loop
      vertex -26.7183 5.023 5
      vertex -28.5271 5.8164 10
      vertex -26.7183 5.023 10
    endloop
  endfacet
  facet normal 0.401695 0.915773 0
    outer loop
      vertex -28.5271 5.8164 10
      vertex -26.7183 5.023 5
      vertex -28.5271 5.8164 5
    endloop
  endfacet
  facet normal -0.789141 0.614212 0
    outer loop
      vertex -35.2768 2.85568 5
      vertex -34.0637 4.41434 10
      vertex -34.0637 4.41434 5
    endloop
  endfacet
  facet normal -0.789141 0.614212 0
    outer loop
      vertex -34.0637 4.41434 10
      vertex -35.2768 2.85568 5
      vertex -35.2768 2.85568 10
    endloop
  endfacet
  facet normal -0.945817 0.3247 0
    outer loop
      vertex -35.9182 0.987567 5
      vertex -35.2768 2.85568 10
      vertex -35.2768 2.85568 5
    endloop
  endfacet
  facet normal -0.945817 0.3247 0
    outer loop
      vertex -35.2768 2.85568 10
      vertex -35.9182 0.987567 5
      vertex -35.9182 0.987567 10
    endloop
  endfacet
  facet normal 0 0 1
    outer loop
      vertex -27 0 10
      vertex -24 0 10
      vertex -24.3251 1.9482 10
    endloop
  endfacet
  facet normal 0 0 1
    outer loop
      vertex -27.5729 1.76336 10
      vertex -24.3251 1.9482 10
      vertex -25.2652 3.68528 10
    endloop
  endfacet
  facet normal 0 0 1
    outer loop
      vertex -24 0 10
      vertex -27 0 10
      vertex -24.3251 -1.9482 10
    endloop
  endfacet
  facet normal 0 0 1
    outer loop
      vertex -27.5729 1.76336 10
      vertex -25.2652 3.68528 10
      vertex -26.7183 5.023 10
    endloop
  endfacet
  facet normal -0 0 1
    outer loop
      vertex -27.5729 -1.76336 10
      vertex -24.3251 -1.9482 10
      vertex -27 0 10
    endloop
  endfacet
  facet normal 0 0 1
    outer loop
      vertex -24.3251 -1.9482 10
      vertex -27.5729 -1.76336 10
      vertex -25.2652 -3.68528 10
    endloop
  endfacet
  facet normal 0 0 1
    outer loop
      vertex -24.3251 1.9482 10
      vertex -27.5729 1.76336 10
      vertex -27 0 10
    endloop
  endfacet
  facet normal 0 0 1
    outer loop
      vertex -29.0729 2.85317 10
      vertex -26.7183 5.023 10
      vertex -28.5271 5.8164 10
    endloop
  endfacet
  facet normal 0 0 1
    outer loop
      vertex -26.7183 5.023 10
      vertex -29.0729 2.85317 10
      vertex -27.5729 1.76336 10
    endloop
  endfacet
  facet normal 0 0 1
    outer loop
      vertex -30.4955 5.97951 10
      vertex -29.0729 2.85317 10
      vertex -28.5271 5.8164 10
    endloop
  endfacet
  facet normal 0 0 1
    outer loop
      vertex -30.4955 5.97951 10
      vertex -30.9271 2.85317 10
      vertex -29.0729 2.85317 10
    endloop
  endfacet
  facet normal -0 0 1
    outer loop
      vertex -32.4102 5.49464 10
      vertex -30.9271 2.85317 10
      vertex -30.4955 5.97951 10
    endloop
  endfacet
  facet normal -0 0 1
    outer loop
      vertex -34.0637 4.41434 10
      vertex -30.9271 2.85317 10
      vertex -32.4102 5.49464 10
    endloop
  endfacet
  facet normal 0 0 1
    outer loop
      vertex -30.9271 2.85317 10
      vertex -34.0637 4.41434 10
      vertex -32.4271 1.76336 10
    endloop
  endfacet
  facet normal -0 0 1
    outer loop
      vertex -35.2768 2.85568 10
      vertex -32.4271 1.76336 10
      vertex -34.0637 4.41434 10
    endloop
  endfacet
  facet normal 0 0 1
    outer loop
      vertex -25.2652 -3.68528 10
      vertex -27.5729 -1.76336 10
      vertex -26.7183 -5.023 10
    endloop
  endfacet
  facet normal -0 0 1
    outer loop
      vertex -29.0729 -2.85317 10
      vertex -26.7183 -5.023 10
      vertex -27.5729 -1.76336 10
    endloop
  endfacet
  facet normal 0 0 1
    outer loop
      vertex -26.7183 -5.023 10
      vertex -29.0729 -2.85317 10
      vertex -28.5271 -5.8164 10
    endloop
  endfacet
  facet normal 0 0 1
    outer loop
      vertex -29.0729 -2.85317 10
      vertex -30.4955 -5.97951 10
      vertex -28.5271 -5.8164 10
    endloop
  endfacet
  facet normal -0 0 1
    outer loop
      vertex -30.9271 -2.85317 10
      vertex -30.4955 -5.97951 10
      vertex -29.0729 -2.85317 10
    endloop
  endfacet
  facet normal 0 0 1
    outer loop
      vertex -30.9271 -2.85317 10
      vertex -32.4102 -5.49464 10
      vertex -30.4955 -5.97951 10
    endloop
  endfacet
  facet normal 0 0 1
    outer loop
      vertex -34.0637 -4.41434 10
      vertex -30.9271 -2.85317 10
      vertex -32.4271 -1.76336 10
    endloop
  endfacet
  facet normal -0 0 1
    outer loop
      vertex -35.9182 -0.987567 10
      vertex -32.4271 -1.76336 10
      vertex -33 0 10
    endloop
  endfacet
  facet normal 0 0 1
    outer loop
      vertex -35.9182 0.987567 10
      vertex -32.4271 1.76336 10
      vertex -35.2768 2.85568 10
    endloop
  endfacet
  facet normal 0 0 1
    outer loop
      vertex -30.9271 -2.85317 10
      vertex -34.0637 -4.41434 10
      vertex -32.4102 -5.49464 10
    endloop
  endfacet
  facet normal 0 0 1
    outer loop
      vertex -32.4271 1.76336 10
      vertex -35.9182 0.987567 10
      vertex -33 0 10
    endloop
  endfacet
  facet normal 0 0 1
    outer loop
      vertex -32.4271 -1.76336 10
      vertex -35.2768 -2.85568 10
      vertex -34.0637 -4.41434 10
    endloop
  endfacet
  facet normal 0 0 1
    outer loop
      vertex -35.9182 -0.987567 10
      vertex -33 0 10
      vertex -35.9182 0.987567 10
    endloop
  endfacet
  facet normal 0 0 1
    outer loop
      vertex -32.4271 -1.76336 10
      vertex -35.9182 -0.987567 10
      vertex -35.2768 -2.85568 10
    endloop
  endfacet
  facet normal -0.245486 0.9694 0
    outer loop
      vertex -30.4955 5.97951 5
      vertex -32.4102 5.49464 10
      vertex -30.4955 5.97951 10
    endloop
  endfacet
  facet normal -0.245486 0.9694 0
    outer loop
      vertex -32.4102 5.49464 10
      vertex -30.4955 5.97951 5
      vertex -32.4102 5.49464 5
    endloop
  endfacet
  facet normal -0.546948 -0.837167 0
    outer loop
      vertex -34.0637 -4.41434 5
      vertex -32.4102 -5.49464 10
      vertex -34.0637 -4.41434 10
    endloop
  endfacet
  facet normal -0.546948 -0.837167 -0
    outer loop
      vertex -32.4102 -5.49464 10
      vertex -34.0637 -4.41434 5
      vertex -32.4102 -5.49464 5
    endloop
  endfacet
  facet normal -0.945817 -0.3247 0
    outer loop
      vertex -35.2768 -2.85568 5
      vertex -35.9182 -0.987567 10
      vertex -35.9182 -0.987567 5
    endloop
  endfacet
  facet normal -0.945817 -0.3247 0
    outer loop
      vertex -35.9182 -0.987567 10
      vertex -35.2768 -2.85568 5
      vertex -35.2768 -2.85568 10
    endloop
  endfacet
  facet normal -0.546948 0.837167 0
    outer loop
      vertex -32.4102 5.49464 5
      vertex -34.0637 4.41434 10
      vertex -32.4102 5.49464 10
    endloop
  endfacet
  facet normal -0.546948 0.837167 0
    outer loop
      vertex -34.0637 4.41434 10
      vertex -32.4102 5.49464 5
      vertex -34.0637 4.41434 5
    endloop
  endfacet
  facet normal 0.986361 -0.164594 0
    outer loop
      vertex -24.3251 -1.9482 10
      vertex -24 0 5
      vertex -24 0 10
    endloop
  endfacet
  facet normal 0.986361 -0.164594 0
    outer loop
      vertex -24 0 5
      vertex -24.3251 -1.9482 10
      vertex -24.3251 -1.9482 5
    endloop
  endfacet
  facet normal -0.245486 -0.9694 0
    outer loop
      vertex -32.4102 -5.49464 5
      vertex -30.4955 -5.97951 10
      vertex -32.4102 -5.49464 10
    endloop
  endfacet
  facet normal -0.245486 -0.9694 -0
    outer loop
      vertex -30.4955 -5.97951 10
      vertex -32.4102 -5.49464 5
      vertex -30.4955 -5.97951 5
    endloop
  endfacet
  facet normal -0.789141 -0.614212 0
    outer loop
      vertex -34.0637 -4.41434 5
      vertex -35.2768 -2.85568 10
      vertex -35.2768 -2.85568 5
    endloop
  endfacet
  facet normal -0.789141 -0.614212 0
    outer loop
      vertex -35.2768 -2.85568 10
      vertex -34.0637 -4.41434 5
      vertex -34.0637 -4.41434 10
    endloop
  endfacet
  facet normal 0.677282 -0.735724 0
    outer loop
      vertex -26.7183 -5.023 5
      vertex -25.2652 -3.68528 10
      vertex -26.7183 -5.023 10
    endloop
  endfacet
  facet normal 0.677282 -0.735724 0
    outer loop
      vertex -25.2652 -3.68528 10
      vertex -26.7183 -5.023 5
      vertex -25.2652 -3.68528 5
    endloop
  endfacet
  facet normal 0.879474 -0.475948 0
    outer loop
      vertex -25.2652 -3.68528 10
      vertex -24.3251 -1.9482 5
      vertex -24.3251 -1.9482 10
    endloop
  endfacet
  facet normal 0.879474 -0.475948 0
    outer loop
      vertex -24.3251 -1.9482 5
      vertex -25.2652 -3.68528 10
      vertex -25.2652 -3.68528 5
    endloop
  endfacet
  facet normal -0.951057 -0.309017 0
    outer loop
      vertex -27 0 5
      vertex -27.5729 1.76336 10
      vertex -27.5729 1.76336 5
    endloop
  endfacet
  facet normal -0.951057 -0.309017 0
    outer loop
      vertex -27.5729 1.76336 10
      vertex -27 0 5
      vertex -27 0 10
    endloop
  endfacet
  facet normal 0.951057 -0.309017 0
    outer loop
      vertex -33 0 10
      vertex -32.4271 1.76336 0
      vertex -32.4271 1.76336 10
    endloop
  endfacet
  facet normal 0.951057 -0.309017 0
    outer loop
      vertex -32.4271 1.76336 0
      vertex -33 0 10
      vertex -33 0 0
    endloop
  endfacet
  facet normal 0 1 -0
    outer loop
      vertex -29.0729 -2.85317 5
      vertex -30.9271 -2.85317 10
      vertex -29.0729 -2.85317 10
    endloop
  endfacet
  facet normal 0 1 0
    outer loop
      vertex -30.9271 -2.85317 0
      vertex -29.0729 -2.85317 5
      vertex -29.0729 -2.85317 0
    endloop
  endfacet
  facet normal 0 1 0
    outer loop
      vertex -29.0729 -2.85317 5
      vertex -30.9271 -2.85317 0
      vertex -30.9271 -2.85317 10
    endloop
  endfacet
  facet normal 0 -1 0
    outer loop
      vertex -30.9271 2.85317 10
      vertex -29.0729 2.85317 5
      vertex -29.0729 2.85317 10
    endloop
  endfacet
  facet normal 0 -1 0
    outer loop
      vertex -30.9271 2.85317 0
      vertex -29.0729 2.85317 5
      vertex -30.9271 2.85317 10
    endloop
  endfacet
  facet normal 0 -1 -0
    outer loop
      vertex -29.0729 2.85317 5
      vertex -30.9271 2.85317 0
      vertex -29.0729 2.85317 0
    endloop
  endfacet
  facet normal -0.587785 -0.809017 0
    outer loop
      vertex -29.0729 2.85317 5
      vertex -27.5729 1.76336 10
      vertex -29.0729 2.85317 10
    endloop
  endfacet
  facet normal -0.587785 -0.809017 -0
    outer loop
      vertex -27.5729 1.76336 10
      vertex -29.0729 2.85317 5
      vertex -27.5729 1.76336 5
    endloop
  endfacet
  facet normal 0.587785 -0.809017 0
    outer loop
      vertex -32.4271 1.76336 0
      vertex -30.9271 2.85317 10
      vertex -32.4271 1.76336 10
    endloop
  endfacet
  facet normal 0.587785 -0.809017 0
    outer loop
      vertex -30.9271 2.85317 10
      vertex -32.4271 1.76336 0
      vertex -30.9271 2.85317 0
    endloop
  endfacet
  facet normal 0.951057 0.309017 0
    outer loop
      vertex -32.4271 -1.76336 10
      vertex -33 0 0
      vertex -33 0 10
    endloop
  endfacet
  facet normal 0.951057 0.309017 0
    outer loop
      vertex -33 0 0
      vertex -32.4271 -1.76336 10
      vertex -32.4271 -1.76336 0
    endloop
  endfacet
  facet normal -0.587785 0.809017 0
    outer loop
      vertex -27.5729 -1.76336 5
      vertex -29.0729 -2.85317 10
      vertex -27.5729 -1.76336 10
    endloop
  endfacet
  facet normal -0.587785 0.809017 0
    outer loop
      vertex -29.0729 -2.85317 10
      vertex -27.5729 -1.76336 5
      vertex -29.0729 -2.85317 5
    endloop
  endfacet
  facet normal 0.587785 0.809017 -0
    outer loop
      vertex -30.9271 -2.85317 0
      vertex -32.4271 -1.76336 10
      vertex -30.9271 -2.85317 10
    endloop
  endfacet
  facet normal 0.587785 0.809017 0
    outer loop
      vertex -32.4271 -1.76336 10
      vertex -30.9271 -2.85317 0
      vertex -32.4271 -1.76336 0
    endloop
  endfacet
  facet normal -0.951057 0.309017 0
    outer loop
      vertex -27.5729 -1.76336 5
      vertex -27 0 10
      vertex -27 0 5
    endloop
  endfacet
  facet normal -0.951057 0.309017 0
    outer loop
      vertex -27 0 10
      vertex -27.5729 -1.76336 5
      vertex -27.5729 -1.76336 10
    endloop
  endfacet
  facet normal -1 0 0
    outer loop
      vertex -10 -5 5
      vertex -10 0 60
      vertex -10 0 5
    endloop
  endfacet
  facet normal -1 -0 0
    outer loop
      vertex -10 0 60
      vertex -10 -5 5
      vertex -10 -5 60
    endloop
  endfacet
  facet normal -0 0 1
    outer loop
      vertex -10 0 60
      vertex 10 -5 60
      vertex 10 0 60
    endloop
  endfacet
  facet normal 0 0 1
    outer loop
      vertex 10 -5 60
      vertex -10 0 60
      vertex -10 -5 60
    endloop
  endfacet
  facet normal 1 -0 0
    outer loop
      vertex 10 -5 60
      vertex 10 0 5
      vertex 10 0 60
    endloop
  endfacet
  facet normal 1 0 0
    outer loop
      vertex 10 0 5
      vertex 10 -5 60
      vertex 10 -5 5
    endloop
  endfacet
  facet normal 0 1 -0
    outer loop
      vertex 10 0 5
      vertex -10 0 60
      vertex 10 0 60
    endloop
  endfacet
  facet normal 0 1 0
    outer loop
      vertex -10 0 60
      vertex 10 0 5
      vertex -10 0 5
    endloop
  endfacet
  facet normal 0 -1 0
    outer loop
      vertex -10 -5 5
      vertex 10 -5 60
      vertex -10 -5 60
    endloop
  endfacet
  facet normal 0 -1 -0
    outer loop
      vertex 10 -5 60
      vertex -10 -5 5
      vertex 10 -5 5
    endloop
  endfacet
  facet normal 0.951057 0.309017 0
    outer loop
      vertex 27.5729 -1.76336 5
      vertex 27 0 0
      vertex 27 0 5
    endloop
  endfacet
  facet normal 0.951057 0.309017 0
    outer loop
      vertex 27 0 0
      vertex 27.5729 -1.76336 5
      vertex 27.5729 -1.76336 0
    endloop
  endfacet
  facet normal 0.587785 -0.809017 0
    outer loop
      vertex 27.5729 1.76336 0
      vertex 29.0729 2.85317 5
      vertex 27.5729 1.76336 5
    endloop
  endfacet
  facet normal 0.587785 -0.809017 0
    outer loop
      vertex 29.0729 2.85317 5
      vertex 27.5729 1.76336 0
      vertex 29.0729 2.85317 0
    endloop
  endfacet
  facet normal 0.587785 0.809017 -0
    outer loop
      vertex 29.0729 -2.85317 0
      vertex 27.5729 -1.76336 5
      vertex 29.0729 -2.85317 5
    endloop
  endfacet
  facet normal 0.587785 0.809017 0
    outer loop
      vertex 27.5729 -1.76336 5
      vertex 29.0729 -2.85317 0
      vertex 27.5729 -1.76336 0
    endloop
  endfacet
  facet normal 0.951057 -0.309017 0
    outer loop
      vertex 27 0 5
      vertex 27.5729 1.76336 0
      vertex 27.5729 1.76336 5
    endloop
  endfacet
  facet normal 0.951057 -0.309017 0
    outer loop
      vertex 27.5729 1.76336 0
      vertex 27 0 5
      vertex 27 0 0
    endloop
  endfacet
  facet normal -0.951057 -0.309017 0
    outer loop
      vertex -27 0 0
      vertex -27.5729 1.76336 5
      vertex -27.5729 1.76336 0
    endloop
  endfacet
  facet normal -0.951057 -0.309017 0
    outer loop
      vertex -27.5729 1.76336 5
      vertex -27 0 0
      vertex -27 0 5
    endloop
  endfacet
  facet normal -0.587785 -0.809017 0
    outer loop
      vertex -29.0729 2.85317 0
      vertex -27.5729 1.76336 5
      vertex -29.0729 2.85317 5
    endloop
  endfacet
  facet normal -0.587785 -0.809017 -0
    outer loop
      vertex -27.5729 1.76336 5
      vertex -29.0729 2.85317 0
      vertex -27.5729 1.76336 0
    endloop
  endfacet
  facet normal -0.587785 0.809017 0
    outer loop
      vertex -27.5729 -1.76336 0
      vertex -29.0729 -2.85317 5
      vertex -27.5729 -1.76336 5
    endloop
  endfacet
  facet normal -0.587785 0.809017 0
    outer loop
      vertex -29.0729 -2.85317 5
      vertex -27.5729 -1.76336 0
      vertex -29.0729 -2.85317 0
    endloop
  endfacet
  facet normal -0.951057 0.309017 0
    outer loop
      vertex -27.5729 -1.76336 0
      vertex -27 0 5
      vertex -27 0 0
    endloop
  endfacet
  facet normal -0.951057 0.309017 0
    outer loop
      vertex -27 0 5
      vertex -27.5729 -1.76336 0
      vertex -27.5729 -1.76336 5
    endloop
  endfacet
endsolid OpenSCAD_Model
