solid OpenSCAD_Model
  facet normal 0 0 1
    outer loop
      vertex 30 30 30
      vertex 25.5 25.5 30
      vertex 30 0 30
    endloop
  endfacet
  facet normal -0 0 1
    outer loop
      vertex 15 30 30
      vertex 25.5 25.5 30
      vertex 30 30 30
    endloop
  endfacet
  facet normal 0 0 1
    outer loop
      vertex 25.5 25.5 30
      vertex 15 30 30
      vertex 15 25.5 30
    endloop
  endfacet
  facet normal -0 0 1
    outer loop
      vertex 25.5 4.5 30
      vertex 30 0 30
      vertex 25.5 25.5 30
    endloop
  endfacet
  facet normal 0 0 1
    outer loop
      vertex 15 0 30
      vertex 25.5 4.5 30
      vertex 15 4.5 30
    endloop
  endfacet
  facet normal 0 0 1
    outer loop
      vertex 25.5 4.5 30
      vertex 15 0 30
      vertex 30 0 30
    endloop
  endfacet
  facet normal 0 0 1
    outer loop
      vertex 19 15 30
      vertex 24.5 15 30
      vertex 24.2924 16.9752 30
    endloop
  endfacet
  facet normal 0 0 1
    outer loop
      vertex 18.5418 16.8589 30
      vertex 24.2924 16.9752 30
      vertex 23.6787 18.864 30
    endloop
  endfacet
  facet normal 0 0 1
    outer loop
      vertex 24.5 15 30
      vertex 19 15 30
      vertex 24.2924 13.0248 30
    endloop
  endfacet
  facet normal 0 0 1
    outer loop
      vertex 18.5418 16.8589 30
      vertex 23.6787 18.864 30
      vertex 22.6857 20.584 30
    endloop
  endfacet
  facet normal -0 0 1
    outer loop
      vertex 18.5418 13.1411 30
      vertex 24.2924 13.0248 30
      vertex 19 15 30
    endloop
  endfacet
  facet normal 0 0 1
    outer loop
      vertex 17.2723 18.2919 30
      vertex 22.6857 20.584 30
      vertex 21.3567 22.0599 30
    endloop
  endfacet
  facet normal 0 0 1
    outer loop
      vertex 24.2924 13.0248 30
      vertex 18.5418 13.1411 30
      vertex 23.6787 11.136 30
    endloop
  endfacet
  facet normal 0 0 1
    outer loop
      vertex 17.2723 18.2919 30
      vertex 21.3567 22.0599 30
      vertex 19.75 23.2272 30
    endloop
  endfacet
  facet normal 0 0 1
    outer loop
      vertex 23.6787 11.136 30
      vertex 18.5418 13.1411 30
      vertex 22.6857 9.41604 30
    endloop
  endfacet
  facet normal -0 0 1
    outer loop
      vertex 17.2723 11.7081 30
      vertex 22.6857 9.41604 30
      vertex 18.5418 13.1411 30
    endloop
  endfacet
  facet normal 0 0 1
    outer loop
      vertex 24.2924 16.9752 30
      vertex 18.5418 16.8589 30
      vertex 19 15 30
    endloop
  endfacet
  facet normal 0 0 1
    outer loop
      vertex 17.2723 18.2919 30
      vertex 19.75 23.2272 30
      vertex 17.9357 24.035 30
    endloop
  endfacet
  facet normal 0 0 1
    outer loop
      vertex 22.6857 20.584 30
      vertex 17.2723 18.2919 30
      vertex 18.5418 16.8589 30
    endloop
  endfacet
  facet normal 0 0 1
    outer loop
      vertex 15.4821 18.9708 30
      vertex 17.9357 24.035 30
      vertex 15.993 24.448 30
    endloop
  endfacet
  facet normal 0 0 1
    outer loop
      vertex 17.9357 24.035 30
      vertex 15.4821 18.9708 30
      vertex 17.2723 18.2919 30
    endloop
  endfacet
  facet normal -0 0 1
    outer loop
      vertex 15 24.448 30
      vertex 15.4821 18.9708 30
      vertex 15.993 24.448 30
    endloop
  endfacet
  facet normal 0 0 1
    outer loop
      vertex 15.4821 18.9708 30
      vertex 15 24.448 30
      vertex 15 18.9123 30
    endloop
  endfacet
  facet normal 0 0 1
    outer loop
      vertex 22.6857 9.41604 30
      vertex 17.2723 11.7081 30
      vertex 21.3567 7.94012 30
    endloop
  endfacet
  facet normal 0 0 1
    outer loop
      vertex 21.3567 7.94012 30
      vertex 17.2723 11.7081 30
      vertex 19.75 6.77276 30
    endloop
  endfacet
  facet normal 0 0 1
    outer loop
      vertex 19.75 6.77276 30
      vertex 17.2723 11.7081 30
      vertex 17.9357 5.96496 30
    endloop
  endfacet
  facet normal -0 0 1
    outer loop
      vertex 15.4821 11.0292 30
      vertex 17.9357 5.96496 30
      vertex 17.2723 11.7081 30
    endloop
  endfacet
  facet normal 0 0 1
    outer loop
      vertex 17.9357 5.96496 30
      vertex 15.4821 11.0292 30
      vertex 15.993 5.55204 30
    endloop
  endfacet
  facet normal 0 0 1
    outer loop
      vertex 15 5.55204 30
      vertex 15.4821 11.0292 30
      vertex 15 11.0877 30
    endloop
  endfacet
  facet normal 0 0 1
    outer loop
      vertex 15.4821 11.0292 30
      vertex 15 5.55204 30
      vertex 15.993 5.55204 30
    endloop
  endfacet
  facet normal 1 -0 0
    outer loop
      vertex 30 0 30
      vertex 30 30 0
      vertex 30 30 30
    endloop
  endfacet
  facet normal 1 0 0
    outer loop
      vertex 30 30 0
      vertex 30 0 30
      vertex 30 0 0
    endloop
  endfacet
  facet normal 0 1 -0
    outer loop
      vertex 30 30 0
      vertex 15 30 30
      vertex 30 30 30
    endloop
  endfacet
  facet normal 0 1 0
    outer loop
      vertex 15 30 30
      vertex 30 30 0
      vertex 15 30 0
    endloop
  endfacet
  facet normal 0 0 -1
    outer loop
      vertex 30 0 0
      vertex 18 15 0
      vertex 30 30 0
    endloop
  endfacet
  facet normal 0 0 -1
    outer loop
      vertex 30 0 0
      vertex 17.4271 13.2366 0
      vertex 18 15 0
    endloop
  endfacet
  facet normal 0 0 -1
    outer loop
      vertex 15 0 0
      vertex 17.4271 13.2366 0
      vertex 30 0 0
    endloop
  endfacet
  facet normal 0 0 -1
    outer loop
      vertex 17.4271 13.2366 0
      vertex 15 0 0
      vertex 15.9271 12.1468 0
    endloop
  endfacet
  facet normal -0 0 -1
    outer loop
      vertex 15.9271 12.1468 0
      vertex 15 0 0
      vertex 15 12.1468 0
    endloop
  endfacet
  facet normal 0 0 -1
    outer loop
      vertex 17.4271 16.7634 0
      vertex 30 30 0
      vertex 18 15 0
    endloop
  endfacet
  facet normal 0 0 -1
    outer loop
      vertex 15 30 0
      vertex 17.4271 16.7634 0
      vertex 15.9271 17.8532 0
    endloop
  endfacet
  facet normal 0 0 -1
    outer loop
      vertex 15 30 0
      vertex 15.9271 17.8532 0
      vertex 15 17.8532 0
    endloop
  endfacet
  facet normal 0 0 -1
    outer loop
      vertex 17.4271 16.7634 0
      vertex 15 30 0
      vertex 30 30 0
    endloop
  endfacet
  facet normal 0 -1 0
    outer loop
      vertex 15 0 0
      vertex 30 0 30
      vertex 15 0 30
    endloop
  endfacet
  facet normal 0 -1 -0
    outer loop
      vertex 30 0 30
      vertex 15 0 0
      vertex 30 0 0
    endloop
  endfacet
  facet normal 0 0 -1
    outer loop
      vertex 29 1 29
      vertex 19 15 29
      vertex 29 29 29
    endloop
  endfacet
  facet normal 0 0 -1
    outer loop
      vertex 29 1 29
      vertex 18.5418 13.1411 29
      vertex 19 15 29
    endloop
  endfacet
  facet normal 0 0 -1
    outer loop
      vertex 29 1 29
      vertex 17.2723 11.7081 29
      vertex 18.5418 13.1411 29
    endloop
  endfacet
  facet normal 0 0 -1
    outer loop
      vertex 15 1 29
      vertex 17.2723 11.7081 29
      vertex 29 1 29
    endloop
  endfacet
  facet normal 0 0 -1
    outer loop
      vertex 17.2723 11.7081 29
      vertex 15 1 29
      vertex 15.4821 11.0292 29
    endloop
  endfacet
  facet normal -0 0 -1
    outer loop
      vertex 15.4821 11.0292 29
      vertex 15 1 29
      vertex 15 11.0877 29
    endloop
  endfacet
  facet normal 0 0 -1
    outer loop
      vertex 18.5418 16.8589 29
      vertex 29 29 29
      vertex 19 15 29
    endloop
  endfacet
  facet normal 0 0 -1
    outer loop
      vertex 17.2723 18.2919 29
      vertex 29 29 29
      vertex 18.5418 16.8589 29
    endloop
  endfacet
  facet normal 0 0 -1
    outer loop
      vertex 15 29 29
      vertex 17.2723 18.2919 29
      vertex 15.4821 18.9708 29
    endloop
  endfacet
  facet normal 0 0 -1
    outer loop
      vertex 15 29 29
      vertex 15.4821 18.9708 29
      vertex 15 18.9123 29
    endloop
  endfacet
  facet normal 0 0 -1
    outer loop
      vertex 17.2723 18.2919 29
      vertex 15 29 29
      vertex 29 29 29
    endloop
  endfacet
  facet normal -1 0 0
    outer loop
      vertex 29 1 1
      vertex 29 29 29
      vertex 29 29 1
    endloop
  endfacet
  facet normal -1 -0 0
    outer loop
      vertex 29 29 29
      vertex 29 1 1
      vertex 29 1 29
    endloop
  endfacet
  facet normal 0 -1 0
    outer loop
      vertex 15 29 1
      vertex 29 29 29
      vertex 15 29 29
    endloop
  endfacet
  facet normal 0 -1 -0
    outer loop
      vertex 29 29 29
      vertex 15 29 1
      vertex 29 29 1
    endloop
  endfacet
  facet normal 0 0 1
    outer loop
      vertex 29 29 1
      vertex 18 15 1
      vertex 29 1 1
    endloop
  endfacet
  facet normal 0 0 1
    outer loop
      vertex 29 29 1
      vertex 17.4271 16.7634 1
      vertex 18 15 1
    endloop
  endfacet
  facet normal -0 0 1
    outer loop
      vertex 15 29 1
      vertex 17.4271 16.7634 1
      vertex 29 29 1
    endloop
  endfacet
  facet normal 0 0 1
    outer loop
      vertex 17.4271 16.7634 1
      vertex 15 29 1
      vertex 15.9271 17.8532 1
    endloop
  endfacet
  facet normal 0 0 1
    outer loop
      vertex 15.9271 17.8532 1
      vertex 15 29 1
      vertex 15 17.8532 1
    endloop
  endfacet
  facet normal -0 0 1
    outer loop
      vertex 17.4271 13.2366 1
      vertex 29 1 1
      vertex 18 15 1
    endloop
  endfacet
  facet normal 0 0 1
    outer loop
      vertex 15 1 1
      vertex 17.4271 13.2366 1
      vertex 15.9271 12.1468 1
    endloop
  endfacet
  facet normal 0 0 1
    outer loop
      vertex 15 1 1
      vertex 15.9271 12.1468 1
      vertex 15 12.1468 1
    endloop
  endfacet
  facet normal 0 0 1
    outer loop
      vertex 17.4271 13.2366 1
      vertex 15 1 1
      vertex 29 1 1
    endloop
  endfacet
  facet normal 0 1 -0
    outer loop
      vertex 29 1 1
      vertex 15 1 29
      vertex 29 1 29
    endloop
  endfacet
  facet normal 0 1 0
    outer loop
      vertex 15 1 29
      vertex 29 1 1
      vertex 15 1 1
    endloop
  endfacet
  facet normal -0.970942 -0.239316 0
    outer loop
      vertex 19 15 29
      vertex 18.5418 16.8589 30
      vertex 18.5418 16.8589 29
    endloop
  endfacet
  facet normal -0.970942 -0.239316 0
    outer loop
      vertex 18.5418 16.8589 30
      vertex 19 15 29
      vertex 19 15 30
    endloop
  endfacet
  facet normal 0.120535 -0.992709 0
    outer loop
      vertex 15 18.9123 29
      vertex 15.4821 18.9708 30
      vertex 15 18.9123 30
    endloop
  endfacet
  facet normal 0.120535 -0.992709 0
    outer loop
      vertex 15.4821 18.9708 30
      vertex 15 18.9123 29
      vertex 15.4821 18.9708 29
    endloop
  endfacet
  facet normal -0.748511 -0.663123 0
    outer loop
      vertex 18.5418 16.8589 29
      vertex 17.2723 18.2919 30
      vertex 17.2723 18.2919 29
    endloop
  endfacet
  facet normal -0.748511 -0.663123 0
    outer loop
      vertex 17.2723 18.2919 30
      vertex 18.5418 16.8589 29
      vertex 18.5418 16.8589 30
    endloop
  endfacet
  facet normal -0.970942 0.239315 0
    outer loop
      vertex 18.5418 13.1411 29
      vertex 19 15 30
      vertex 19 15 29
    endloop
  endfacet
  facet normal -0.970942 0.239315 0
    outer loop
      vertex 19 15 30
      vertex 18.5418 13.1411 29
      vertex 18.5418 13.1411 30
    endloop
  endfacet
  facet normal -0.354605 -0.935016 0
    outer loop
      vertex 15.4821 18.9708 29
      vertex 17.2723 18.2919 30
      vertex 15.4821 18.9708 30
    endloop
  endfacet
  facet normal -0.354605 -0.935016 -0
    outer loop
      vertex 17.2723 18.2919 30
      vertex 15.4821 18.9708 29
      vertex 17.2723 18.2919 29
    endloop
  endfacet
  facet normal -0.748511 0.663123 0
    outer loop
      vertex 17.2723 11.7081 29
      vertex 18.5418 13.1411 30
      vertex 18.5418 13.1411 29
    endloop
  endfacet
  facet normal -0.748511 0.663123 0
    outer loop
      vertex 18.5418 13.1411 30
      vertex 17.2723 11.7081 29
      vertex 17.2723 11.7081 30
    endloop
  endfacet
  facet normal -0.354605 0.935016 0
    outer loop
      vertex 17.2723 11.7081 29
      vertex 15.4821 11.0292 30
      vertex 17.2723 11.7081 30
    endloop
  endfacet
  facet normal -0.354605 0.935016 0
    outer loop
      vertex 15.4821 11.0292 30
      vertex 17.2723 11.7081 29
      vertex 15.4821 11.0292 29
    endloop
  endfacet
  facet normal 0.120537 0.992709 -0
    outer loop
      vertex 15.4821 11.0292 29
      vertex 15 11.0877 30
      vertex 15.4821 11.0292 30
    endloop
  endfacet
  facet normal 0.120537 0.992709 0
    outer loop
      vertex 15 11.0877 30
      vertex 15.4821 11.0292 29
      vertex 15 11.0877 29
    endloop
  endfacet
  facet normal -1 0 0
    outer loop
      vertex 15 12.1468 0
      vertex 15 1 1
      vertex 15 12.1468 1
    endloop
  endfacet
  facet normal -1 -0 0
    outer loop
      vertex 15 1 1
      vertex 15 0 0
      vertex 15 1 29
    endloop
  endfacet
  facet normal -1 0 0
    outer loop
      vertex 15 0 0
      vertex 15 1 1
      vertex 15 12.1468 0
    endloop
  endfacet
  facet normal -1 0 0
    outer loop
      vertex 15 11.0877 29
      vertex 15 5.55204 30
      vertex 15 11.0877 30
    endloop
  endfacet
  facet normal -1 0 0
    outer loop
      vertex 15 4.5 30
      vertex 15 5.55204 90
      vertex 15 5.55204 30
    endloop
  endfacet
  facet normal -1 0 0
    outer loop
      vertex 15 4.5 92
      vertex 15 5.55204 90
      vertex 15 4.5 30
    endloop
  endfacet
  facet normal -1 0 0
    outer loop
      vertex 15 1 29
      vertex 15 5.55204 30
      vertex 15 11.0877 29
    endloop
  endfacet
  facet normal -1 -0 0
    outer loop
      vertex 15 5.55204 30
      vertex 15 1 29
      vertex 15 4.5 30
    endloop
  endfacet
  facet normal -1 0 0
    outer loop
      vertex 15 1 29
      vertex 15 0 30
      vertex 15 4.5 30
    endloop
  endfacet
  facet normal -1 0 0
    outer loop
      vertex 15 0 30
      vertex 15 1 29
      vertex 15 0 0
    endloop
  endfacet
  facet normal -1 0 0
    outer loop
      vertex 15 4.55752 92
      vertex 15 11.0877 90
      vertex 15 5.55204 90
    endloop
  endfacet
  facet normal -1 0 0
    outer loop
      vertex 15 11.0877 90
      vertex 15 4.55752 92
      vertex 15 11.0877 97.0028
    endloop
  endfacet
  facet normal -1 0 0
    outer loop
      vertex 15 5.55204 90
      vertex 15 4.5 92
      vertex 15 4.55752 92
    endloop
  endfacet
  facet normal -1 0 0
    outer loop
      vertex 15 30 0
      vertex 15 29 1
      vertex 15 30 30
    endloop
  endfacet
  facet normal -1 0 0
    outer loop
      vertex 15 17.8532 0
      vertex 15 29 1
      vertex 15 30 0
    endloop
  endfacet
  facet normal -1 -0 0
    outer loop
      vertex 15 29 1
      vertex 15 17.8532 0
      vertex 15 17.8532 1
    endloop
  endfacet
  facet normal -1 0 0
    outer loop
      vertex 15 29 29
      vertex 15 30 30
      vertex 15 29 1
    endloop
  endfacet
  facet normal -1 0 0
    outer loop
      vertex 15 29 29
      vertex 15 25.5 30
      vertex 15 30 30
    endloop
  endfacet
  facet normal -1 0 0
    outer loop
      vertex 15 24.448 90
      vertex 15 25.5 92
      vertex 15 25.5 30
    endloop
  endfacet
  facet normal -1 0 0
    outer loop
      vertex 15 24.448 90
      vertex 15 25.5 30
      vertex 15 24.448 30
    endloop
  endfacet
  facet normal -1 0 0
    outer loop
      vertex 15 29 29
      vertex 15 24.448 30
      vertex 15 25.5 30
    endloop
  endfacet
  facet normal -1 0 0
    outer loop
      vertex 15 18.9123 29
      vertex 15 24.448 30
      vertex 15 29 29
    endloop
  endfacet
  facet normal -1 -0 0
    outer loop
      vertex 15 24.448 30
      vertex 15 18.9123 29
      vertex 15 18.9123 30
    endloop
  endfacet
  facet normal -1 -0 0
    outer loop
      vertex 15 25.5 92
      vertex 15 24.448 90
      vertex 15 25.4425 92
    endloop
  endfacet
  facet normal -1 0 0
    outer loop
      vertex 15 18.9123 90
      vertex 15 25.4425 92
      vertex 15 24.448 90
    endloop
  endfacet
  facet normal -1 -0 0
    outer loop
      vertex 15 25.4425 92
      vertex 15 18.9123 90
      vertex 15 18.9123 97.0028
    endloop
  endfacet
  facet normal -0.951057 -0.309017 0
    outer loop
      vertex 18 15 0
      vertex 17.4271 16.7634 1
      vertex 17.4271 16.7634 0
    endloop
  endfacet
  facet normal -0.951057 -0.309017 0
    outer loop
      vertex 17.4271 16.7634 1
      vertex 18 15 0
      vertex 18 15 1
    endloop
  endfacet
  facet normal 0 -1 0
    outer loop
      vertex 15 17.8532 0
      vertex 15.9271 17.8532 1
      vertex 15 17.8532 1
    endloop
  endfacet
  facet normal 0 -1 -0
    outer loop
      vertex 15.9271 17.8532 1
      vertex 15 17.8532 0
      vertex 15.9271 17.8532 0
    endloop
  endfacet
  facet normal -0.587785 -0.809017 0
    outer loop
      vertex 15.9271 17.8532 0
      vertex 17.4271 16.7634 1
      vertex 15.9271 17.8532 1
    endloop
  endfacet
  facet normal -0.587785 -0.809017 -0
    outer loop
      vertex 17.4271 16.7634 1
      vertex 15.9271 17.8532 0
      vertex 17.4271 16.7634 0
    endloop
  endfacet
  facet normal -0.587785 0.809017 0
    outer loop
      vertex 17.4271 13.2366 0
      vertex 15.9271 12.1468 1
      vertex 17.4271 13.2366 1
    endloop
  endfacet
  facet normal -0.587785 0.809017 0
    outer loop
      vertex 15.9271 12.1468 1
      vertex 17.4271 13.2366 0
      vertex 15.9271 12.1468 0
    endloop
  endfacet
  facet normal -0.951057 0.309017 0
    outer loop
      vertex 17.4271 13.2366 0
      vertex 18 15 1
      vertex 18 15 0
    endloop
  endfacet
  facet normal -0.951057 0.309017 0
    outer loop
      vertex 18 15 1
      vertex 17.4271 13.2366 0
      vertex 17.4271 13.2366 1
    endloop
  endfacet
  facet normal 0 1 -0
    outer loop
      vertex 15.9271 12.1468 0
      vertex 15 12.1468 1
      vertex 15.9271 12.1468 1
    endloop
  endfacet
  facet normal 0 1 0
    outer loop
      vertex 15 12.1468 1
      vertex 15.9271 12.1468 0
      vertex 15 12.1468 0
    endloop
  endfacet
  facet normal 0 0 -1
    outer loop
      vertex 19 15 90
      vertex 24.5 15 90
      vertex 24.2924 13.0248 90
    endloop
  endfacet
  facet normal 0 0 -1
    outer loop
      vertex 18.5418 13.1411 90
      vertex 24.2924 13.0248 90
      vertex 23.6787 11.136 90
    endloop
  endfacet
  facet normal 0 0 -1
    outer loop
      vertex 24.5 15 90
      vertex 19 15 90
      vertex 24.2924 16.9752 90
    endloop
  endfacet
  facet normal 0 0 -1
    outer loop
      vertex 18.5418 13.1411 90
      vertex 23.6787 11.136 90
      vertex 22.6857 9.41604 90
    endloop
  endfacet
  facet normal 0 0 -1
    outer loop
      vertex 18.5418 16.8589 90
      vertex 24.2924 16.9752 90
      vertex 19 15 90
    endloop
  endfacet
  facet normal 0 0 -1
    outer loop
      vertex 17.2723 11.7081 90
      vertex 22.6857 9.41604 90
      vertex 21.3567 7.94012 90
    endloop
  endfacet
  facet normal -0 0 -1
    outer loop
      vertex 24.2924 16.9752 90
      vertex 18.5418 16.8589 90
      vertex 23.6787 18.864 90
    endloop
  endfacet
  facet normal 0 0 -1
    outer loop
      vertex 17.2723 11.7081 90
      vertex 21.3567 7.94012 90
      vertex 19.75 6.77276 90
    endloop
  endfacet
  facet normal -0 0 -1
    outer loop
      vertex 23.6787 18.864 90
      vertex 18.5418 16.8589 90
      vertex 22.6857 20.584 90
    endloop
  endfacet
  facet normal 0 0 -1
    outer loop
      vertex 17.2723 18.2919 90
      vertex 22.6857 20.584 90
      vertex 18.5418 16.8589 90
    endloop
  endfacet
  facet normal 0 0 -1
    outer loop
      vertex 24.2924 13.0248 90
      vertex 18.5418 13.1411 90
      vertex 19 15 90
    endloop
  endfacet
  facet normal 0 0 -1
    outer loop
      vertex 17.2723 11.7081 90
      vertex 19.75 6.77276 90
      vertex 17.9357 5.96496 90
    endloop
  endfacet
  facet normal 0 0 -1
    outer loop
      vertex 22.6857 9.41604 90
      vertex 17.2723 11.7081 90
      vertex 18.5418 13.1411 90
    endloop
  endfacet
  facet normal 0 0 -1
    outer loop
      vertex 15.4821 11.0292 90
      vertex 17.9357 5.96496 90
      vertex 15.993 5.55204 90
    endloop
  endfacet
  facet normal 0 0 -1
    outer loop
      vertex 17.9357 5.96496 90
      vertex 15.4821 11.0292 90
      vertex 17.2723 11.7081 90
    endloop
  endfacet
  facet normal 0 0 -1
    outer loop
      vertex 15 5.55204 90
      vertex 15.4821 11.0292 90
      vertex 15.993 5.55204 90
    endloop
  endfacet
  facet normal -0 0 -1
    outer loop
      vertex 15.4821 11.0292 90
      vertex 15 5.55204 90
      vertex 15 11.0877 90
    endloop
  endfacet
  facet normal -0 0 -1
    outer loop
      vertex 22.6857 20.584 90
      vertex 17.2723 18.2919 90
      vertex 21.3567 22.0599 90
    endloop
  endfacet
  facet normal -0 0 -1
    outer loop
      vertex 21.3567 22.0599 90
      vertex 17.2723 18.2919 90
      vertex 19.75 23.2272 90
    endloop
  endfacet
  facet normal -0 0 -1
    outer loop
      vertex 19.75 23.2272 90
      vertex 17.2723 18.2919 90
      vertex 17.9357 24.035 90
    endloop
  endfacet
  facet normal 0 0 -1
    outer loop
      vertex 15.4821 18.9708 90
      vertex 17.9357 24.035 90
      vertex 17.2723 18.2919 90
    endloop
  endfacet
  facet normal -0 0 -1
    outer loop
      vertex 17.9357 24.035 90
      vertex 15.4821 18.9708 90
      vertex 15.993 24.448 90
    endloop
  endfacet
  facet normal 0 0 -1
    outer loop
      vertex 15 24.448 90
      vertex 15.4821 18.9708 90
      vertex 15 18.9123 90
    endloop
  endfacet
  facet normal 0 0 -1
    outer loop
      vertex 15.4821 18.9708 90
      vertex 15 24.448 90
      vertex 15.993 24.448 90
    endloop
  endfacet
  facet normal 1 -0 0
    outer loop
      vertex 25.5 15 92
      vertex 25.5 25.5 30
      vertex 25.5 25.5 92
    endloop
  endfacet
  facet normal 1 0 0
    outer loop
      vertex 25.5 4.5 30
      vertex 25.5 15 92
      vertex 25.5 4.5 92
    endloop
  endfacet
  facet normal 1 0 0
    outer loop
      vertex 25.5 15 92
      vertex 25.5 4.5 30
      vertex 25.5 25.5 30
    endloop
  endfacet
  facet normal 0 -1 0
    outer loop
      vertex 15 4.5 30
      vertex 25.5 4.5 92
      vertex 15 4.5 92
    endloop
  endfacet
  facet normal 0 -1 -0
    outer loop
      vertex 25.5 4.5 92
      vertex 15 4.5 30
      vertex 25.5 4.5 30
    endloop
  endfacet
  facet normal 0 1 -0
    outer loop
      vertex 25.5 25.5 30
      vertex 15 25.5 92
      vertex 25.5 25.5 92
    endloop
  endfacet
  facet normal 0 1 0
    outer loop
      vertex 15 25.5 92
      vertex 25.5 25.5 30
      vertex 15 25.5 30
    endloop
  endfacet
  facet normal -0.406736 -0.913546 0
    outer loop
      vertex 17.9357 24.035 30
      vertex 19.75 23.2272 90
      vertex 17.9357 24.035 90
    endloop
  endfacet
  facet normal -0.406736 -0.913546 -0
    outer loop
      vertex 19.75 23.2272 90
      vertex 17.9357 24.035 30
      vertex 19.75 23.2272 30
    endloop
  endfacet
  facet normal -0.994522 0.104529 0
    outer loop
      vertex 24.2924 13.0248 30
      vertex 24.5 15 90
      vertex 24.5 15 30
    endloop
  endfacet
  facet normal -0.994522 0.104529 0
    outer loop
      vertex 24.5 15 90
      vertex 24.2924 13.0248 30
      vertex 24.2924 13.0248 90
    endloop
  endfacet
  facet normal 0 1 -0
    outer loop
      vertex 15.993 5.55204 30
      vertex 15 5.55204 90
      vertex 15.993 5.55204 90
    endloop
  endfacet
  facet normal 0 1 0
    outer loop
      vertex 15 5.55204 90
      vertex 15.993 5.55204 30
      vertex 15 5.55204 30
    endloop
  endfacet
  facet normal 0 -1 0
    outer loop
      vertex 15 24.448 30
      vertex 15.993 24.448 90
      vertex 15 24.448 90
    endloop
  endfacet
  facet normal 0 -1 -0
    outer loop
      vertex 15.993 24.448 90
      vertex 15 24.448 30
      vertex 15.993 24.448 30
    endloop
  endfacet
  facet normal -0.743144 0.669131 0
    outer loop
      vertex 21.3567 7.94012 30
      vertex 22.6857 9.41604 90
      vertex 22.6857 9.41604 30
    endloop
  endfacet
  facet normal -0.743144 0.669131 0
    outer loop
      vertex 22.6857 9.41604 90
      vertex 21.3567 7.94012 30
      vertex 21.3567 7.94012 90
    endloop
  endfacet
  facet normal -0.951057 -0.309017 0
    outer loop
      vertex 24.2924 16.9752 30
      vertex 23.6787 18.864 90
      vertex 23.6787 18.864 30
    endloop
  endfacet
  facet normal -0.951057 -0.309017 0
    outer loop
      vertex 23.6787 18.864 90
      vertex 24.2924 16.9752 30
      vertex 24.2924 16.9752 90
    endloop
  endfacet
  facet normal -0.866026 -0.5 0
    outer loop
      vertex 23.6787 18.864 30
      vertex 22.6857 20.584 90
      vertex 22.6857 20.584 30
    endloop
  endfacet
  facet normal -0.866026 -0.5 0
    outer loop
      vertex 22.6857 20.584 90
      vertex 23.6787 18.864 30
      vertex 23.6787 18.864 90
    endloop
  endfacet
  facet normal -0.743144 -0.669131 0
    outer loop
      vertex 22.6857 20.584 30
      vertex 21.3567 22.0599 90
      vertex 21.3567 22.0599 30
    endloop
  endfacet
  facet normal -0.743144 -0.669131 0
    outer loop
      vertex 21.3567 22.0599 90
      vertex 22.6857 20.584 30
      vertex 22.6857 20.584 90
    endloop
  endfacet
  facet normal -0.587786 -0.809017 0
    outer loop
      vertex 19.75 23.2272 30
      vertex 21.3567 22.0599 90
      vertex 19.75 23.2272 90
    endloop
  endfacet
  facet normal -0.587786 -0.809017 -0
    outer loop
      vertex 21.3567 22.0599 90
      vertex 19.75 23.2272 30
      vertex 21.3567 22.0599 30
    endloop
  endfacet
  facet normal -0.207912 -0.978148 0
    outer loop
      vertex 15.993 24.448 30
      vertex 17.9357 24.035 90
      vertex 15.993 24.448 90
    endloop
  endfacet
  facet normal -0.207912 -0.978148 -0
    outer loop
      vertex 17.9357 24.035 90
      vertex 15.993 24.448 30
      vertex 17.9357 24.035 30
    endloop
  endfacet
  facet normal -0.994522 -0.104529 0
    outer loop
      vertex 24.5 15 30
      vertex 24.2924 16.9752 90
      vertex 24.2924 16.9752 30
    endloop
  endfacet
  facet normal -0.994522 -0.104529 0
    outer loop
      vertex 24.2924 16.9752 90
      vertex 24.5 15 30
      vertex 24.5 15 90
    endloop
  endfacet
  facet normal -0.207912 0.978148 0
    outer loop
      vertex 17.9357 5.96496 30
      vertex 15.993 5.55204 90
      vertex 17.9357 5.96496 90
    endloop
  endfacet
  facet normal -0.207912 0.978148 0
    outer loop
      vertex 15.993 5.55204 90
      vertex 17.9357 5.96496 30
      vertex 15.993 5.55204 30
    endloop
  endfacet
  facet normal -0.866026 0.499999 0
    outer loop
      vertex 22.6857 9.41604 30
      vertex 23.6787 11.136 90
      vertex 23.6787 11.136 30
    endloop
  endfacet
  facet normal -0.866026 0.499999 0
    outer loop
      vertex 23.6787 11.136 90
      vertex 22.6857 9.41604 30
      vertex 22.6857 9.41604 90
    endloop
  endfacet
  facet normal -0.951057 0.309017 0
    outer loop
      vertex 23.6787 11.136 30
      vertex 24.2924 13.0248 90
      vertex 24.2924 13.0248 30
    endloop
  endfacet
  facet normal -0.951057 0.309017 0
    outer loop
      vertex 24.2924 13.0248 90
      vertex 23.6787 11.136 30
      vertex 23.6787 11.136 90
    endloop
  endfacet
  facet normal -0.406737 0.913545 0
    outer loop
      vertex 19.75 6.77276 30
      vertex 17.9357 5.96496 90
      vertex 19.75 6.77276 90
    endloop
  endfacet
  facet normal -0.406737 0.913545 0
    outer loop
      vertex 17.9357 5.96496 90
      vertex 19.75 6.77276 30
      vertex 17.9357 5.96496 30
    endloop
  endfacet
  facet normal -0.587786 0.809017 0
    outer loop
      vertex 21.3567 7.94012 30
      vertex 19.75 6.77276 90
      vertex 21.3567 7.94012 90
    endloop
  endfacet
  facet normal -0.587786 0.809017 0
    outer loop
      vertex 19.75 6.77276 90
      vertex 21.3567 7.94012 30
      vertex 19.75 6.77276 30
    endloop
  endfacet
  facet normal 0.604817 0.0635689 0.793823
    outer loop
      vertex 25.2705 17.1831 92
      vertex 19 15 96.9524
      vertex 25.5 15 92
    endloop
  endfacet
  facet normal 0.604819 0.0635622 0.793822
    outer loop
      vertex 19 15 96.9524
      vertex 25.2705 17.1831 92
      vertex 18.8009 15.8079 97.0394
    endloop
  endfacet
  facet normal 0.126438 -0.594861 0.793823
    outer loop
      vertex 15.4821 11.0292 96.9476
      vertex 18.2447 5.01391 92
      vertex 16.2016 11.302 97.0375
    endloop
  endfacet
  facet normal 0.126441 -0.594859 0.793823
    outer loop
      vertex 18.2447 5.01391 92
      vertex 15.4821 11.0292 96.9476
      vertex 16.0975 4.55752 92
    endloop
  endfacet
  facet normal 0.126446 -0.594859 0.793823
    outer loop
      vertex 16.0975 4.55752 92
      vertex 15.4821 11.0292 96.9476
      vertex 15.4165 11.0371 96.964
    endloop
  endfacet
  facet normal 0.247356 0.555572 0.793823
    outer loop
      vertex 18.2447 24.9861 92
      vertex 16.9674 18.4076 97.0021
      vertex 20.25 24.0933 92
    endloop
  endfacet
  facet normal 0.247357 0.555572 0.793823
    outer loop
      vertex 16.9674 18.4076 97.0021
      vertex 18.2447 24.9861 92
      vertex 16.2016 18.698 97.0375
    endloop
  endfacet
  facet normal 0.451943 -0.406931 0.793823
    outer loop
      vertex 18.1568 12.7065 97.0271
      vertex 22.0259 7.19698 92
      vertex 23.4947 8.82825 92
    endloop
  endfacet
  facet normal 0.45194 -0.406934 0.793823
    outer loop
      vertex 22.0259 7.19698 92
      vertex 18.1568 12.7065 97.0271
      vertex 17.6154 12.0953 97.022
    endloop
  endfacet
  facet normal -0 0.608149 0.793823
    outer loop
      vertex 15 25.4425 92
      vertex 15.4165 18.9629 96.964
      vertex 16.0975 25.4425 92
    endloop
  endfacet
  facet normal -4.28925e-06 0.608149 0.793823
    outer loop
      vertex 15.4165 18.9629 96.964
      vertex 15 25.4425 92
      vertex 15 18.9123 97.0028
    endloop
  endfacet
  facet normal 0.451943 0.406931 0.793823
    outer loop
      vertex 22.0259 22.803 92
      vertex 18.1568 17.2935 97.0271
      vertex 23.4947 21.1717 92
    endloop
  endfacet
  facet normal 0.451944 0.40693 0.793823
    outer loop
      vertex 18.1568 17.2935 97.0271
      vertex 22.0259 22.803 92
      vertex 17.6154 17.9047 97.022
    endloop
  endfacet
  facet normal -5.66013e-06 -0.608149 0.793823
    outer loop
      vertex 15 4.55752 92
      vertex 15.4165 11.0371 96.964
      vertex 15 11.0877 97.0028
    endloop
  endfacet
  facet normal 0 -0.608149 0.793823
    outer loop
      vertex 15.4165 11.0371 96.964
      vertex 15 4.55752 92
      vertex 16.0975 4.55752 92
    endloop
  endfacet
  facet normal 0.35746 -0.492003 0.793823
    outer loop
      vertex 17.2723 11.7081 96.9365
      vertex 22.0259 7.19698 92
      vertex 17.6154 12.0953 97.022
    endloop
  endfacet
  facet normal 0.357461 -0.492003 0.793823
    outer loop
      vertex 22.0259 7.19698 92
      vertex 17.2723 11.7081 96.9365
      vertex 20.25 5.90673 92
    endloop
  endfacet
  facet normal 0.357475 -0.491994 0.793822
    outer loop
      vertex 20.25 5.90673 92
      vertex 17.2723 11.7081 96.9365
      vertex 16.9674 11.5924 97.0021
    endloop
  endfacet
  facet normal 0.578384 -0.187931 0.793823
    outer loop
      vertex 18.6045 13.3952 96.9939
      vertex 25.2705 12.8169 92
      vertex 18.8009 14.1921 97.0394
    endloop
  endfacet
  facet normal 0.578384 -0.187928 0.793823
    outer loop
      vertex 25.2705 12.8169 92
      vertex 18.6045 13.3952 96.9939
      vertex 24.5922 10.7293 92
    endloop
  endfacet
  facet normal -0 0 1
    outer loop
      vertex 25.2705 12.8169 92
      vertex 25.5 4.5 92
      vertex 25.5 15 92
    endloop
  endfacet
  facet normal -0 0 1
    outer loop
      vertex 24.5922 10.7293 92
      vertex 25.5 4.5 92
      vertex 25.2705 12.8169 92
    endloop
  endfacet
  facet normal -0 0 1
    outer loop
      vertex 23.4947 8.82825 92
      vertex 25.5 4.5 92
      vertex 24.5922 10.7293 92
    endloop
  endfacet
  facet normal -0 0 1
    outer loop
      vertex 22.0259 7.19698 92
      vertex 25.5 4.5 92
      vertex 23.4947 8.82825 92
    endloop
  endfacet
  facet normal -0 0 1
    outer loop
      vertex 20.25 5.90673 92
      vertex 25.5 4.5 92
      vertex 22.0259 7.19698 92
    endloop
  endfacet
  facet normal -0 0 1
    outer loop
      vertex 18.2447 5.01391 92
      vertex 25.5 4.5 92
      vertex 20.25 5.90673 92
    endloop
  endfacet
  facet normal -0 0 1
    outer loop
      vertex 16.0975 4.55752 92
      vertex 25.5 4.5 92
      vertex 18.2447 5.01391 92
    endloop
  endfacet
  facet normal 0 0 1
    outer loop
      vertex 15 4.5 92
      vertex 16.0975 4.55752 92
      vertex 15 4.55752 92
    endloop
  endfacet
  facet normal 0 0 1
    outer loop
      vertex 16.0975 4.55752 92
      vertex 15 4.5 92
      vertex 25.5 4.5 92
    endloop
  endfacet
  facet normal 0 0 1
    outer loop
      vertex 25.5 25.5 92
      vertex 25.2705 17.1831 92
      vertex 25.5 15 92
    endloop
  endfacet
  facet normal 0 0 1
    outer loop
      vertex 25.5 25.5 92
      vertex 24.5922 19.2707 92
      vertex 25.2705 17.1831 92
    endloop
  endfacet
  facet normal 0 0 1
    outer loop
      vertex 25.5 25.5 92
      vertex 23.4947 21.1717 92
      vertex 24.5922 19.2707 92
    endloop
  endfacet
  facet normal 0 0 1
    outer loop
      vertex 25.5 25.5 92
      vertex 22.0259 22.803 92
      vertex 23.4947 21.1717 92
    endloop
  endfacet
  facet normal 0 0 1
    outer loop
      vertex 25.5 25.5 92
      vertex 20.25 24.0933 92
      vertex 22.0259 22.803 92
    endloop
  endfacet
  facet normal 0 0 1
    outer loop
      vertex 25.5 25.5 92
      vertex 18.2447 24.9861 92
      vertex 20.25 24.0933 92
    endloop
  endfacet
  facet normal 0 0 1
    outer loop
      vertex 25.5 25.5 92
      vertex 16.0975 25.4425 92
      vertex 18.2447 24.9861 92
    endloop
  endfacet
  facet normal -0 0 1
    outer loop
      vertex 15 25.5 92
      vertex 16.0975 25.4425 92
      vertex 25.5 25.5 92
    endloop
  endfacet
  facet normal 0 0 1
    outer loop
      vertex 16.0975 25.4425 92
      vertex 15 25.5 92
      vertex 15 25.4425 92
    endloop
  endfacet
  facet normal 0.126441 0.59486 0.793823
    outer loop
      vertex 15.4821 18.9708 96.9476
      vertex 18.2447 24.9861 92
      vertex 16.0975 25.4425 92
    endloop
  endfacet
  facet normal 0.126438 0.594861 0.793822
    outer loop
      vertex 18.2447 24.9861 92
      vertex 15.4821 18.9708 96.9476
      vertex 16.2016 18.698 97.0375
    endloop
  endfacet
  facet normal 0.126446 0.594859 0.793823
    outer loop
      vertex 15.4821 18.9708 96.9476
      vertex 16.0975 25.4425 92
      vertex 15.4165 18.9629 96.964
    endloop
  endfacet
  facet normal 0.357461 0.492003 0.793823
    outer loop
      vertex 17.2723 18.2919 96.9365
      vertex 22.0259 22.803 92
      vertex 20.25 24.0933 92
    endloop
  endfacet
  facet normal 0.357454 0.492009 0.793822
    outer loop
      vertex 22.0259 22.803 92
      vertex 17.2723 18.2919 96.9365
      vertex 17.6154 17.9047 97.022
    endloop
  endfacet
  facet normal 0.357475 0.491994 0.793822
    outer loop
      vertex 17.2723 18.2919 96.9365
      vertex 20.25 24.0933 92
      vertex 16.9674 18.4076 97.0021
    endloop
  endfacet
  facet normal 0.526673 0.304074 0.793823
    outer loop
      vertex 18.5418 16.8589 96.9381
      vertex 24.5922 19.2707 92
      vertex 23.4947 21.1717 92
    endloop
  endfacet
  facet normal 0.526672 0.304075 0.793823
    outer loop
      vertex 24.5922 19.2707 92
      vertex 18.5418 16.8589 96.9381
      vertex 18.6045 16.6048 96.9939
    endloop
  endfacet
  facet normal 0.526672 0.304075 0.793823
    outer loop
      vertex 18.5418 16.8589 96.9381
      vertex 23.4947 21.1717 92
      vertex 18.1568 17.2935 97.0271
    endloop
  endfacet
  facet normal 0.578384 0.187928 0.793823
    outer loop
      vertex 18.6045 16.6048 96.9939
      vertex 25.2705 17.1831 92
      vertex 24.5922 19.2707 92
    endloop
  endfacet
  facet normal 0.578384 0.187931 0.793823
    outer loop
      vertex 25.2705 17.1831 92
      vertex 18.6045 16.6048 96.9939
      vertex 18.8009 15.8079 97.0394
    endloop
  endfacet
  facet normal 0.247356 -0.555572 0.793823
    outer loop
      vertex 16.9674 11.5924 97.0021
      vertex 18.2447 5.01391 92
      vertex 20.25 5.90673 92
    endloop
  endfacet
  facet normal 0.247357 -0.555572 0.793823
    outer loop
      vertex 18.2447 5.01391 92
      vertex 16.9674 11.5924 97.0021
      vertex 16.2016 11.302 97.0375
    endloop
  endfacet
  facet normal 0.526673 -0.304074 0.793823
    outer loop
      vertex 18.5418 13.1411 96.9381
      vertex 24.5922 10.7293 92
      vertex 18.6045 13.3952 96.9939
    endloop
  endfacet
  facet normal 0.526672 -0.304075 0.793823
    outer loop
      vertex 24.5922 10.7293 92
      vertex 18.5418 13.1411 96.9381
      vertex 23.4947 8.82825 92
    endloop
  endfacet
  facet normal 0.526672 -0.304075 0.793823
    outer loop
      vertex 23.4947 8.82825 92
      vertex 18.5418 13.1411 96.9381
      vertex 18.1568 12.7065 97.0271
    endloop
  endfacet
  facet normal 0.604817 -0.0635688 0.793823
    outer loop
      vertex 19 15 96.9524
      vertex 25.2705 12.8169 92
      vertex 25.5 15 92
    endloop
  endfacet
  facet normal 0.604819 -0.0635621 0.793822
    outer loop
      vertex 25.2705 12.8169 92
      vertex 19 15 96.9524
      vertex 18.8009 14.1921 97.0394
    endloop
  endfacet
  facet normal -0.970942 -0.239316 0
    outer loop
      vertex 18.8009 15.8079 97.0394
      vertex 18.5418 16.8589 96.9381
      vertex 18.5418 16.8589 90
    endloop
  endfacet
  facet normal -0.970941 -0.239319 -3.28807e-05
    outer loop
      vertex 18.5418 16.8589 96.9381
      vertex 18.8009 15.8079 97.0394
      vertex 18.6045 16.6048 96.9939
    endloop
  endfacet
  facet normal -0.970942 -0.239316 2.13135e-08
    outer loop
      vertex 19 15 90
      vertex 18.8009 15.8079 97.0394
      vertex 18.5418 16.8589 90
    endloop
  endfacet
  facet normal -0.970942 -0.239315 0
    outer loop
      vertex 18.8009 15.8079 97.0394
      vertex 19 15 90
      vertex 19 15 96.9524
    endloop
  endfacet
  facet normal 0.120538 -0.992709 2.68939e-05
    outer loop
      vertex 15 18.9123 97.0028
      vertex 15.4821 18.9708 96.9476
      vertex 15.4165 18.9629 96.964
    endloop
  endfacet
  facet normal 0.120535 -0.992709 0
    outer loop
      vertex 15 18.9123 90
      vertex 15.4821 18.9708 96.9476
      vertex 15 18.9123 97.0028
    endloop
  endfacet
  facet normal 0.120535 -0.992709 0
    outer loop
      vertex 15.4821 18.9708 96.9476
      vertex 15 18.9123 90
      vertex 15.4821 18.9708 90
    endloop
  endfacet
  facet normal -0.748511 -0.663123 0
    outer loop
      vertex 18.5418 16.8589 96.9381
      vertex 17.2723 18.2919 96.9365
      vertex 17.2723 18.2919 90
    endloop
  endfacet
  facet normal -0.748511 -0.663123 -1.55748e-05
    outer loop
      vertex 17.2723 18.2919 96.9365
      vertex 18.5418 16.8589 96.9381
      vertex 17.6154 17.9047 97.022
    endloop
  endfacet
  facet normal -0.748511 -0.663123 -0
    outer loop
      vertex 18.5418 16.8589 96.9381
      vertex 17.2723 18.2919 90
      vertex 18.5418 16.8589 90
    endloop
  endfacet
  facet normal -0.74851 -0.663124 6.41564e-06
    outer loop
      vertex 17.6154 17.9047 97.022
      vertex 18.5418 16.8589 96.9381
      vertex 18.1568 17.2935 97.0271
    endloop
  endfacet
  facet normal -0.970942 0.239315 0
    outer loop
      vertex 19 15 90
      vertex 18.8009 14.1921 97.0394
      vertex 19 15 96.9524
    endloop
  endfacet
  facet normal -0.970942 0.239315 3.96442e-08
    outer loop
      vertex 18.5418 13.1411 90
      vertex 18.8009 14.1921 97.0394
      vertex 19 15 90
    endloop
  endfacet
  facet normal -0.970942 0.239316 0
    outer loop
      vertex 18.5418 13.1411 96.9381
      vertex 18.8009 14.1921 97.0394
      vertex 18.5418 13.1411 90
    endloop
  endfacet
  facet normal -0.970941 0.239319 -4.01767e-05
    outer loop
      vertex 18.8009 14.1921 97.0394
      vertex 18.5418 13.1411 96.9381
      vertex 18.6045 13.3952 96.9939
    endloop
  endfacet
  facet normal -0.354605 -0.935016 0
    outer loop
      vertex 15.4821 18.9708 90
      vertex 16.2016 18.698 97.0375
      vertex 15.4821 18.9708 96.9476
    endloop
  endfacet
  facet normal -0.354605 -0.935016 -1.27078e-07
    outer loop
      vertex 16.2016 18.698 97.0375
      vertex 17.2723 18.2919 96.9365
      vertex 16.9674 18.4076 97.0021
    endloop
  endfacet
  facet normal -0.354605 -0.935016 4.3467e-08
    outer loop
      vertex 16.2016 18.698 97.0375
      vertex 15.4821 18.9708 90
      vertex 17.2723 18.2919 96.9365
    endloop
  endfacet
  facet normal -0.354605 -0.935016 -0
    outer loop
      vertex 17.2723 18.2919 96.9365
      vertex 15.4821 18.9708 90
      vertex 17.2723 18.2919 90
    endloop
  endfacet
  facet normal -0.748511 0.663123 0
    outer loop
      vertex 17.2723 11.7081 96.9365
      vertex 18.5418 13.1411 96.9381
      vertex 18.5418 13.1411 90
    endloop
  endfacet
  facet normal -0.748511 0.663123 -2.27902e-06
    outer loop
      vertex 18.5418 13.1411 96.9381
      vertex 17.2723 11.7081 96.9365
      vertex 18.1568 12.7065 97.0271
    endloop
  endfacet
  facet normal -0.748511 0.663123 0
    outer loop
      vertex 17.2723 11.7081 96.9365
      vertex 18.5418 13.1411 90
      vertex 17.2723 11.7081 90
    endloop
  endfacet
  facet normal -0.748511 0.663122 1.61432e-05
    outer loop
      vertex 18.1568 12.7065 97.0271
      vertex 17.2723 11.7081 96.9365
      vertex 17.6154 12.0953 97.022
    endloop
  endfacet
  facet normal -0.354605 0.935016 -1.27078e-07
    outer loop
      vertex 17.2723 11.7081 96.9365
      vertex 16.2016 11.302 97.0375
      vertex 16.9674 11.5924 97.0021
    endloop
  endfacet
  facet normal -0.354605 0.935016 0
    outer loop
      vertex 17.2723 11.7081 90
      vertex 16.2016 11.302 97.0375
      vertex 17.2723 11.7081 96.9365
    endloop
  endfacet
  facet normal -0.354605 0.935016 2.62493e-08
    outer loop
      vertex 15.4821 11.0292 90
      vertex 16.2016 11.302 97.0375
      vertex 17.2723 11.7081 90
    endloop
  endfacet
  facet normal -0.354605 0.935016 0
    outer loop
      vertex 16.2016 11.302 97.0375
      vertex 15.4821 11.0292 90
      vertex 15.4821 11.0292 96.9476
    endloop
  endfacet
  facet normal 0.120541 0.992708 4.13477e-05
    outer loop
      vertex 15.4821 11.0292 96.9476
      vertex 15 11.0877 97.0028
      vertex 15.4165 11.0371 96.964
    endloop
  endfacet
  facet normal 0.120537 0.992709 0
    outer loop
      vertex 15 11.0877 90
      vertex 15.4821 11.0292 96.9476
      vertex 15.4821 11.0292 90
    endloop
  endfacet
  facet normal 0.120537 0.992709 0
    outer loop
      vertex 15.4821 11.0292 96.9476
      vertex 15 11.0877 90
      vertex 15 11.0877 97.0028
    endloop
  endfacet
endsolid OpenSCAD_Model
