solid OpenSCAD_Model
  facet normal 0.406736 -0.913546 0
    outer loop
      vertex -44.5451 -52.8254 0
      vertex -39.9615 -50.7846 3
      vertex -44.5451 -52.8254 3
    endloop
  endfacet
  facet normal 0.406736 -0.913546 0
    outer loop
      vertex -39.9615 -50.7846 3
      vertex -44.5451 -52.8254 0
      vertex -39.9615 -50.7846 0
    endloop
  endfacet
  facet normal -0.866026 -0.5 0
    outer loop
      vertex -71.3779 -44.1068 0
      vertex -72.6323 -41.9343 3
      vertex -72.6323 -41.9343 0
    endloop
  endfacet
  facet normal -0.866026 -0.5 0
    outer loop
      vertex -72.6323 -41.9343 3
      vertex -71.3779 -44.1068 0
      vertex -71.3779 -44.1068 3
    endloop
  endfacet
  facet normal -0.207912 -0.978148 0
    outer loop
      vertex -59.3779 -52.8254 0
      vertex -54.4702 -53.8685 3
      vertex -59.3779 -52.8254 3
    endloop
  endfacet
  facet normal -0.207912 -0.978148 -0
    outer loop
      vertex -54.4702 -53.8685 3
      vertex -59.3779 -52.8254 0
      vertex -54.4702 -53.8685 0
    endloop
  endfacet
  facet normal 0 -1 0
    outer loop
      vertex -54.4702 -53.8685 0
      vertex -49.4528 -53.8685 3
      vertex -54.4702 -53.8685 3
    endloop
  endfacet
  facet normal 0 -1 -0
    outer loop
      vertex -49.4528 -53.8685 3
      vertex -54.4702 -53.8685 0
      vertex -49.4528 -53.8685 0
    endloop
  endfacet
  facet normal -0.587785 -0.809017 0
    outer loop
      vertex -68.0207 -47.8355 0
      vertex -63.9615 -50.7846 3
      vertex -68.0207 -47.8355 3
    endloop
  endfacet
  facet normal -0.587785 -0.809017 -0
    outer loop
      vertex -63.9615 -50.7846 3
      vertex -68.0207 -47.8355 0
      vertex -63.9615 -50.7846 0
    endloop
  endfacet
  facet normal 0.207912 -0.978148 0
    outer loop
      vertex -49.4528 -53.8685 0
      vertex -44.5451 -52.8254 3
      vertex -49.4528 -53.8685 3
    endloop
  endfacet
  facet normal 0.207912 -0.978148 0
    outer loop
      vertex -44.5451 -52.8254 3
      vertex -49.4528 -53.8685 0
      vertex -44.5451 -52.8254 0
    endloop
  endfacet
  facet normal 0 0 1
    outer loop
      vertex 2.05419e-14 83.8685 3
      vertex -2.09057 79.8904 3
      vertex 1.95675e-14 79.8904 3
    endloop
  endfacet
  facet normal -0 0 1
    outer loop
      vertex -2.50868 83.8685 3
      vertex -2.09057 79.8904 3
      vertex 2.05419e-14 83.8685 3
    endloop
  endfacet
  facet normal 0 0 1
    outer loop
      vertex -2.50868 83.8685 3
      vertex -6.18034 79.0211 3
      vertex -2.09057 79.8904 3
    endloop
  endfacet
  facet normal -0 0 1
    outer loop
      vertex -7.41641 82.8254 3
      vertex -6.18034 79.0211 3
      vertex -2.50868 83.8685 3
    endloop
  endfacet
  facet normal 0 0 1
    outer loop
      vertex -7.41641 82.8254 3
      vertex -10 77.3205 3
      vertex -6.18034 79.0211 3
    endloop
  endfacet
  facet normal -0 0 1
    outer loop
      vertex -12 80.7846 3
      vertex -10 77.3205 3
      vertex -7.41641 82.8254 3
    endloop
  endfacet
  facet normal 0 0 1
    outer loop
      vertex -12 80.7846 3
      vertex -13.3826 74.8629 3
      vertex -10 77.3205 3
    endloop
  endfacet
  facet normal -0 0 1
    outer loop
      vertex -16.0591 77.8355 3
      vertex -13.3826 74.8629 3
      vertex -12 80.7846 3
    endloop
  endfacet
  facet normal 0 0 1
    outer loop
      vertex -16.0591 77.8355 3
      vertex -16.1803 71.7557 3
      vertex -13.3826 74.8629 3
    endloop
  endfacet
  facet normal -0 0 1
    outer loop
      vertex -19.4164 74.1068 3
      vertex -16.1803 71.7557 3
      vertex -16.0591 77.8355 3
    endloop
  endfacet
  facet normal 0 0 1
    outer loop
      vertex -16.1803 71.7557 3
      vertex -19.4164 74.1068 3
      vertex -18.2709 68.1347 3
    endloop
  endfacet
  facet normal -0 0 1
    outer loop
      vertex -21.9251 69.7617 3
      vertex -18.2709 68.1347 3
      vertex -19.4164 74.1068 3
    endloop
  endfacet
  facet normal 0 0 1
    outer loop
      vertex -18.2709 68.1347 3
      vertex -21.9251 69.7617 3
      vertex -19.563 64.1582 3
    endloop
  endfacet
  facet normal -0 0 1
    outer loop
      vertex -23.4755 64.9899 3
      vertex -19.563 64.1582 3
      vertex -21.9251 69.7617 3
    endloop
  endfacet
  facet normal 0 0 1
    outer loop
      vertex 6 0 3
      vertex 11 0 3
      vertex 10.7596 2.28703 3
    endloop
  endfacet
  facet normal 0 0 1
    outer loop
      vertex 11 0 3
      vertex 6 0 3
      vertex 10.7596 -2.28703 3
    endloop
  endfacet
  facet normal 0 0 1
    outer loop
      vertex 5.6749 1.9482 3
      vertex 10.7596 2.28703 3
      vertex 10.049 4.4741 3
    endloop
  endfacet
  facet normal 0 0 1
    outer loop
      vertex 71.9615 -30 3
      vertex 75.9615 -30 3
      vertex 75.4371 -25.0101 3
    endloop
  endfacet
  facet normal 0 0 1
    outer loop
      vertex 71.5245 -25.8418 3
      vertex 75.4371 -25.0101 3
      vertex 73.8866 -20.2383 3
    endloop
  endfacet
  facet normal 0 0 1
    outer loop
      vertex 75.9615 -30 3
      vertex 71.9615 -30 3
      vertex 75.4371 -34.9899 3
    endloop
  endfacet
  facet normal -0 0 1
    outer loop
      vertex 71.5245 -34.1582 3
      vertex 75.4371 -34.9899 3
      vertex 71.9615 -30 3
    endloop
  endfacet
  facet normal 0 0 1
    outer loop
      vertex 75.4371 -34.9899 3
      vertex 71.5245 -34.1582 3
      vertex 73.8866 -39.7617 3
    endloop
  endfacet
  facet normal 0 0 1
    outer loop
      vertex 75.4371 -25.0101 3
      vertex 71.5245 -25.8418 3
      vertex 71.9615 -30 3
    endloop
  endfacet
  facet normal 0 0 1
    outer loop
      vertex 70.2324 -21.8653 3
      vertex 73.8866 -20.2383 3
      vertex 71.3779 -15.8932 3
    endloop
  endfacet
  facet normal 0 0 1
    outer loop
      vertex 73.8866 -20.2383 3
      vertex 70.2324 -21.8653 3
      vertex 71.5245 -25.8418 3
    endloop
  endfacet
  facet normal 0 0 1
    outer loop
      vertex 71.3779 -15.8932 3
      vertex 68.1419 -18.2443 3
      vertex 70.2324 -21.8653 3
    endloop
  endfacet
  facet normal 0 0 1
    outer loop
      vertex 68.0207 -12.1645 3
      vertex 68.1419 -18.2443 3
      vertex 71.3779 -15.8932 3
    endloop
  endfacet
  facet normal 0 0 1
    outer loop
      vertex 68.0207 -12.1645 3
      vertex 65.3441 -15.1371 3
      vertex 68.1419 -18.2443 3
    endloop
  endfacet
  facet normal 0 0 1
    outer loop
      vertex 63.9615 -9.21539 3
      vertex 65.3441 -15.1371 3
      vertex 68.0207 -12.1645 3
    endloop
  endfacet
  facet normal 0 0 1
    outer loop
      vertex 63.9615 -9.21539 3
      vertex 61.9615 -12.6795 3
      vertex 65.3441 -15.1371 3
    endloop
  endfacet
  facet normal 0 0 1
    outer loop
      vertex 59.3779 -7.17464 3
      vertex 61.9615 -12.6795 3
      vertex 63.9615 -9.21539 3
    endloop
  endfacet
  facet normal 0 0 1
    outer loop
      vertex 59.3779 -7.17464 3
      vertex 58.1419 -10.9789 3
      vertex 61.9615 -12.6795 3
    endloop
  endfacet
  facet normal 0 0 1
    outer loop
      vertex 54.4702 -6.13147 3
      vertex 58.1419 -10.9789 3
      vertex 59.3779 -7.17464 3
    endloop
  endfacet
  facet normal 0 0 1
    outer loop
      vertex 54.4702 -6.13147 3
      vertex 54.0521 -10.1096 3
      vertex 58.1419 -10.9789 3
    endloop
  endfacet
  facet normal 0 0 1
    outer loop
      vertex 54.4702 -6.13147 3
      vertex 49.871 -10.1096 3
      vertex 54.0521 -10.1096 3
    endloop
  endfacet
  facet normal -0 0 1
    outer loop
      vertex 49.4528 -6.13147 3
      vertex 49.871 -10.1096 3
      vertex 54.4702 -6.13147 3
    endloop
  endfacet
  facet normal 0 0 1
    outer loop
      vertex 49.4528 -6.13147 3
      vertex 45.7812 -10.9789 3
      vertex 49.871 -10.1096 3
    endloop
  endfacet
  facet normal -0 0 1
    outer loop
      vertex 44.5451 -7.17464 3
      vertex 45.7812 -10.9789 3
      vertex 49.4528 -6.13147 3
    endloop
  endfacet
  facet normal 0 0 1
    outer loop
      vertex 44.5451 -7.17464 3
      vertex 41.9615 -12.6795 3
      vertex 45.7812 -10.9789 3
    endloop
  endfacet
  facet normal -0 0 1
    outer loop
      vertex 39.9615 -9.21539 3
      vertex 41.9615 -12.6795 3
      vertex 44.5451 -7.17464 3
    endloop
  endfacet
  facet normal 0 0 1
    outer loop
      vertex 39.9615 -9.21539 3
      vertex 38.5789 -15.1371 3
      vertex 41.9615 -12.6795 3
    endloop
  endfacet
  facet normal -0 0 1
    outer loop
      vertex 35.9024 -12.1645 3
      vertex 38.5789 -15.1371 3
      vertex 39.9615 -9.21539 3
    endloop
  endfacet
  facet normal 0 0 1
    outer loop
      vertex 32.8812 -15.5199 3
      vertex 38.5789 -15.1371 3
      vertex 35.9024 -12.1645 3
    endloop
  endfacet
  facet normal 0 0 1
    outer loop
      vertex 38.5789 -15.1371 3
      vertex 32.8812 -15.5199 3
      vertex 35.7812 -18.2443 3
    endloop
  endfacet
  facet normal 0 -0 1
    outer loop
      vertex 34.641 -20 3
      vertex 35.7812 -18.2443 3
      vertex 32.8812 -15.5199 3
    endloop
  endfacet
  facet normal 0 0 1
    outer loop
      vertex 35.7812 -18.2443 3
      vertex 34.641 -20 3
      vertex 34.7359 -20.0548 3
    endloop
  endfacet
  facet normal 0 0 1
    outer loop
      vertex 34.641 -20 3
      vertex 32.8812 -15.5199 3
      vertex 33.141 -22.5981 3
    endloop
  endfacet
  facet normal -0 0 1
    outer loop
      vertex 7.63351 -7.87131 3
      vertex 32.8812 -15.5199 3
      vertex 10.6335 -2.67516 3
    endloop
  endfacet
  facet normal 0 0 1
    outer loop
      vertex 4.73484 3.68528 3
      vertex 10.049 4.4741 3
      vertex 8.89919 6.46564 3
    endloop
  endfacet
  facet normal 0 0 1
    outer loop
      vertex 32.8812 -15.5199 3
      vertex 7.63351 -7.87131 3
      vertex 33.141 -22.5981 3
    endloop
  endfacet
  facet normal 0 0 1
    outer loop
      vertex 10.7596 2.28703 3
      vertex 5.6749 1.9482 3
      vertex 6 0 3
    endloop
  endfacet
  facet normal 0 0 1
    outer loop
      vertex 4.73484 3.68528 3
      vertex 8.89919 6.46564 3
      vertex 7.36044 8.17459 3
    endloop
  endfacet
  facet normal 0 0 1
    outer loop
      vertex 10.7596 -2.28703 3
      vertex 5.6749 -1.9482 3
      vertex 10.6335 -2.67516 3
    endloop
  endfacet
  facet normal 0 0 1
    outer loop
      vertex 4.73484 -3.68528 3
      vertex 10.6335 -2.67516 3
      vertex 5.6749 -1.9482 3
    endloop
  endfacet
  facet normal -0 0 1
    outer loop
      vertex 5.6749 -1.9482 3
      vertex 10.7596 -2.28703 3
      vertex 6 0 3
    endloop
  endfacet
  facet normal 0 0 1
    outer loop
      vertex 3.28169 5.023 3
      vertex 7.36044 8.17459 3
      vertex 5.5 9.52628 3
    endloop
  endfacet
  facet normal 0 0 1
    outer loop
      vertex 10.049 4.4741 3
      vertex 4.73484 3.68528 3
      vertex 5.6749 1.9482 3
    endloop
  endfacet
  facet normal 0 0 1
    outer loop
      vertex 3.28169 5.023 3
      vertex 5.5 9.52628 3
      vertex 3.39919 10.4616 3
    endloop
  endfacet
  facet normal 0 0 1
    outer loop
      vertex 7.36044 8.17459 3
      vertex 3.28169 5.023 3
      vertex 4.73484 3.68528 3
    endloop
  endfacet
  facet normal 0 0 1
    outer loop
      vertex 1.47291 5.8164 3
      vertex 3.39919 10.4616 3
      vertex 3 10.5465 3
    endloop
  endfacet
  facet normal 0 0 1
    outer loop
      vertex 3.39919 10.4616 3
      vertex 1.47291 5.8164 3
      vertex 3.28169 5.023 3
    endloop
  endfacet
  facet normal -0 0 1
    outer loop
      vertex 70.2324 -38.1347 3
      vertex 73.8866 -39.7617 3
      vertex 71.5245 -34.1582 3
    endloop
  endfacet
  facet normal 0 0 1
    outer loop
      vertex 73.8866 -39.7617 3
      vertex 70.2324 -38.1347 3
      vertex 72.6323 -41.9343 3
    endloop
  endfacet
  facet normal 0 0 1
    outer loop
      vertex 72.6323 -41.9343 3
      vertex 70.2324 -38.1347 3
      vertex 69.1871 -39.9452 3
    endloop
  endfacet
  facet normal 0 0 1
    outer loop
      vertex -5.91817 0.987567 3
      vertex -11 0 3
      vertex -5.91817 -0.987567 3
    endloop
  endfacet
  facet normal 0 -0 1
    outer loop
      vertex -10.7596 -2.28703 3
      vertex -5.91817 -0.987567 3
      vertex -11 0 3
    endloop
  endfacet
  facet normal 0 0 1
    outer loop
      vertex -5.91817 -0.987567 3
      vertex -10.7596 -2.28703 3
      vertex -10.6335 -2.67516 3
    endloop
  endfacet
  facet normal 0 0 1
    outer loop
      vertex -31.9615 -30 3
      vertex -27.9615 -30 3
      vertex -28.486 -25.0101 3
    endloop
  endfacet
  facet normal 0 0 1
    outer loop
      vertex -32.3986 -25.8418 3
      vertex -28.486 -25.0101 3
      vertex -29.8812 -20.716 3
    endloop
  endfacet
  facet normal 0 0 1
    outer loop
      vertex -27.9615 -30 3
      vertex -31.9615 -30 3
      vertex -28.486 -34.9899 3
    endloop
  endfacet
  facet normal 0 0 1
    outer loop
      vertex -28.486 -34.9899 3
      vertex -32.3986 -34.1582 3
      vertex -30.0364 -39.7617 3
    endloop
  endfacet
  facet normal -0 0 1
    outer loop
      vertex -33.6906 -38.1347 3
      vertex -30.0364 -39.7617 3
      vertex -32.3986 -34.1582 3
    endloop
  endfacet
  facet normal 0 0 1
    outer loop
      vertex -30.0364 -39.7617 3
      vertex -33.6906 -38.1347 3
      vertex -32.5451 -44.1068 3
    endloop
  endfacet
  facet normal -0 0 1
    outer loop
      vertex -35.7812 -41.7557 3
      vertex -32.5451 -44.1068 3
      vertex -33.6906 -38.1347 3
    endloop
  endfacet
  facet normal 0 0 1
    outer loop
      vertex -35.7812 -41.7557 3
      vertex -35.9024 -47.8355 3
      vertex -32.5451 -44.1068 3
    endloop
  endfacet
  facet normal -0 0 1
    outer loop
      vertex -38.5789 -44.8629 3
      vertex -35.9024 -47.8355 3
      vertex -35.7812 -41.7557 3
    endloop
  endfacet
  facet normal 0 0 1
    outer loop
      vertex -38.5789 -44.8629 3
      vertex -39.9615 -50.7846 3
      vertex -35.9024 -47.8355 3
    endloop
  endfacet
  facet normal -0 0 1
    outer loop
      vertex -41.9615 -47.3205 3
      vertex -39.9615 -50.7846 3
      vertex -38.5789 -44.8629 3
    endloop
  endfacet
  facet normal 0 0 1
    outer loop
      vertex -41.9615 -47.3205 3
      vertex -44.5451 -52.8254 3
      vertex -39.9615 -50.7846 3
    endloop
  endfacet
  facet normal -0 0 1
    outer loop
      vertex -45.7812 -49.0211 3
      vertex -44.5451 -52.8254 3
      vertex -41.9615 -47.3205 3
    endloop
  endfacet
  facet normal 0 0 1
    outer loop
      vertex -45.7812 -49.0211 3
      vertex -49.4528 -53.8685 3
      vertex -44.5451 -52.8254 3
    endloop
  endfacet
  facet normal -0 0 1
    outer loop
      vertex -49.871 -49.8904 3
      vertex -49.4528 -53.8685 3
      vertex -45.7812 -49.0211 3
    endloop
  endfacet
  facet normal -0 0 1
    outer loop
      vertex -54.0521 -49.8904 3
      vertex -49.4528 -53.8685 3
      vertex -49.871 -49.8904 3
    endloop
  endfacet
  facet normal 0 0 1
    outer loop
      vertex -54.0521 -49.8904 3
      vertex -54.4702 -53.8685 3
      vertex -49.4528 -53.8685 3
    endloop
  endfacet
  facet normal 0 0 1
    outer loop
      vertex -58.1419 -49.0211 3
      vertex -54.4702 -53.8685 3
      vertex -54.0521 -49.8904 3
    endloop
  endfacet
  facet normal 0 0 1
    outer loop
      vertex -58.1419 -49.0211 3
      vertex -59.3779 -52.8254 3
      vertex -54.4702 -53.8685 3
    endloop
  endfacet
  facet normal 0 0 1
    outer loop
      vertex -61.9615 -47.3205 3
      vertex -59.3779 -52.8254 3
      vertex -58.1419 -49.0211 3
    endloop
  endfacet
  facet normal 0 0 1
    outer loop
      vertex -61.9615 -47.3205 3
      vertex -63.9615 -50.7846 3
      vertex -59.3779 -52.8254 3
    endloop
  endfacet
  facet normal 0 0 1
    outer loop
      vertex -65.3441 -44.8629 3
      vertex -63.9615 -50.7846 3
      vertex -61.9615 -47.3205 3
    endloop
  endfacet
  facet normal 0 0 1
    outer loop
      vertex -65.3441 -44.8629 3
      vertex -68.0207 -47.8355 3
      vertex -63.9615 -50.7846 3
    endloop
  endfacet
  facet normal 0 0 1
    outer loop
      vertex -68.1419 -41.7557 3
      vertex -68.0207 -47.8355 3
      vertex -65.3441 -44.8629 3
    endloop
  endfacet
  facet normal 0 0 1
    outer loop
      vertex -72.6323 -41.9343 3
      vertex -68.1419 -41.7557 3
      vertex -69.1871 -39.9452 3
    endloop
  endfacet
  facet normal 0 0 1
    outer loop
      vertex -68.1419 -41.7557 3
      vertex -71.3779 -44.1068 3
      vertex -68.0207 -47.8355 3
    endloop
  endfacet
  facet normal 0 0 1
    outer loop
      vertex -68.1419 -41.7557 3
      vertex -72.6323 -41.9343 3
      vertex -71.3779 -44.1068 3
    endloop
  endfacet
  facet normal 0 0 1
    outer loop
      vertex -33.6906 -21.8653 3
      vertex -34.641 -20 3
      vertex -34.7359 -20.0548 3
    endloop
  endfacet
  facet normal -0 0 1
    outer loop
      vertex -2.09057 40.1096 3
      vertex 9.79717e-15 40 3
      vertex 9.82401e-15 40.1096 3
    endloop
  endfacet
  facet normal 0 0 1
    outer loop
      vertex 9.79717e-15 40 3
      vertex -2.09057 40.1096 3
      vertex -3 36.2359 3
    endloop
  endfacet
  facet normal 0 0 1
    outer loop
      vertex 9.79717e-15 40 3
      vertex -3 36.2359 3
      vertex -3 10.5465 3
    endloop
  endfacet
  facet normal 0 0 1
    outer loop
      vertex 9.79717e-15 40 3
      vertex -3 10.5465 3
      vertex -0.495476 5.97951 3
    endloop
  endfacet
  facet normal 0 0 1
    outer loop
      vertex -6.18034 40.9789 3
      vertex -3 36.2359 3
      vertex -2.09057 40.1096 3
    endloop
  endfacet
  facet normal 0 0 1
    outer loop
      vertex -6.18034 40.9789 3
      vertex -7.41641 37.1746 3
      vertex -3 36.2359 3
    endloop
  endfacet
  facet normal 0 0 1
    outer loop
      vertex -10 42.6795 3
      vertex -7.41641 37.1746 3
      vertex -6.18034 40.9789 3
    endloop
  endfacet
  facet normal 0 0 1
    outer loop
      vertex -10 42.6795 3
      vertex -12 39.2154 3
      vertex -7.41641 37.1746 3
    endloop
  endfacet
  facet normal 0 0 1
    outer loop
      vertex -13.3826 45.1371 3
      vertex -12 39.2154 3
      vertex -10 42.6795 3
    endloop
  endfacet
  facet normal 0 0 1
    outer loop
      vertex -13.3826 45.1371 3
      vertex -16.0591 42.1645 3
      vertex -12 39.2154 3
    endloop
  endfacet
  facet normal 0 0 1
    outer loop
      vertex -16.1803 48.2443 3
      vertex -16.0591 42.1645 3
      vertex -13.3826 45.1371 3
    endloop
  endfacet
  facet normal 0 0 1
    outer loop
      vertex -19.4164 45.8932 3
      vertex -16.1803 48.2443 3
      vertex -18.2709 51.8653 3
    endloop
  endfacet
  facet normal 0 0 1
    outer loop
      vertex -16.1803 48.2443 3
      vertex -19.4164 45.8932 3
      vertex -16.0591 42.1645 3
    endloop
  endfacet
  facet normal 0 0 1
    outer loop
      vertex -21.9251 50.2383 3
      vertex -18.2709 51.8653 3
      vertex -19.563 55.8418 3
    endloop
  endfacet
  facet normal 0 0 1
    outer loop
      vertex -23.4755 55.0101 3
      vertex -19.563 55.8418 3
      vertex -20 60 3
    endloop
  endfacet
  facet normal 0 0 1
    outer loop
      vertex -19.563 64.1582 3
      vertex -23.4755 64.9899 3
      vertex -20 60 3
    endloop
  endfacet
  facet normal 0 0 1
    outer loop
      vertex -18.2709 51.8653 3
      vertex -21.9251 50.2383 3
      vertex -19.4164 45.8932 3
    endloop
  endfacet
  facet normal 0 0 1
    outer loop
      vertex -24 60 3
      vertex -20 60 3
      vertex -23.4755 64.9899 3
    endloop
  endfacet
  facet normal 0 0 1
    outer loop
      vertex -19.563 55.8418 3
      vertex -23.4755 55.0101 3
      vertex -21.9251 50.2383 3
    endloop
  endfacet
  facet normal 0 0 1
    outer loop
      vertex -20 60 3
      vertex -24 60 3
      vertex -23.4755 55.0101 3
    endloop
  endfacet
  facet normal -0 0 1
    outer loop
      vertex 9.79717e-15 40 3
      vertex 3 10.5465 3
      vertex 3 40 3
    endloop
  endfacet
  facet normal 0 0 1
    outer loop
      vertex 3 10.5465 3
      vertex 9.79717e-15 40 3
      vertex -0.495476 5.97951 3
    endloop
  endfacet
  facet normal 0 0 1
    outer loop
      vertex 3 10.5465 3
      vertex -0.495476 5.97951 3
      vertex 1.47291 5.8164 3
    endloop
  endfacet
  facet normal 0 0 1
    outer loop
      vertex 10.6335 -2.67516 3
      vertex 4.73484 -3.68528 3
      vertex 7.63351 -7.87131 3
    endloop
  endfacet
  facet normal -0 0 1
    outer loop
      vertex 3.28169 -5.023 3
      vertex 7.63351 -7.87131 3
      vertex 4.73484 -3.68528 3
    endloop
  endfacet
  facet normal 0 0 1
    outer loop
      vertex 7.63351 -7.87131 3
      vertex 3.28169 -5.023 3
      vertex 7.36044 -8.17459 3
    endloop
  endfacet
  facet normal 0 0 1
    outer loop
      vertex 7.36044 -8.17459 3
      vertex 3.28169 -5.023 3
      vertex 5.5 -9.52628 3
    endloop
  endfacet
  facet normal 0 0 1
    outer loop
      vertex 5.5 -9.52628 3
      vertex 3.28169 -5.023 3
      vertex 3.39919 -10.4616 3
    endloop
  endfacet
  facet normal -0 0 1
    outer loop
      vertex 1.47291 -5.8164 3
      vertex 3.39919 -10.4616 3
      vertex 3.28169 -5.023 3
    endloop
  endfacet
  facet normal 0 0 1
    outer loop
      vertex 1.47291 -5.8164 3
      vertex 1.14981 -10.9397 3
      vertex 3.39919 -10.4616 3
    endloop
  endfacet
  facet normal -0 0 1
    outer loop
      vertex -0.495476 -5.97951 3
      vertex 1.14981 -10.9397 3
      vertex 1.47291 -5.8164 3
    endloop
  endfacet
  facet normal 0 0 1
    outer loop
      vertex -0.495476 -5.97951 3
      vertex -1.14981 -10.9397 3
      vertex 1.14981 -10.9397 3
    endloop
  endfacet
  facet normal 0 0 1
    outer loop
      vertex -3.39919 -10.4616 3
      vertex -0.495476 -5.97951 3
      vertex -2.41017 -5.49464 3
    endloop
  endfacet
  facet normal 0 0 1
    outer loop
      vertex -0.495476 -5.97951 3
      vertex -3.39919 -10.4616 3
      vertex -1.14981 -10.9397 3
    endloop
  endfacet
  facet normal 0 0 1
    outer loop
      vertex -5.5 -9.52628 3
      vertex -2.41017 -5.49464 3
      vertex -4.06369 -4.41434 3
    endloop
  endfacet
  facet normal 0 0 1
    outer loop
      vertex -7.63351 -7.87131 3
      vertex -4.06369 -4.41434 3
      vertex -5.27684 -2.85568 3
    endloop
  endfacet
  facet normal 0 0 1
    outer loop
      vertex -2.41017 -5.49464 3
      vertex -5.5 -9.52628 3
      vertex -3.39919 -10.4616 3
    endloop
  endfacet
  facet normal -0 0 1
    outer loop
      vertex -10.6335 -2.67516 3
      vertex -5.27684 -2.85568 3
      vertex -5.91817 -0.987567 3
    endloop
  endfacet
  facet normal 0 0 1
    outer loop
      vertex -5.27684 2.85568 3
      vertex -10.049 4.4741 3
      vertex -5.91817 0.987567 3
    endloop
  endfacet
  facet normal 0 0 1
    outer loop
      vertex -4.06369 -4.41434 3
      vertex -7.63351 -7.87131 3
      vertex -7.36044 -8.17459 3
    endloop
  endfacet
  facet normal 0 0 1
    outer loop
      vertex -4.06369 -4.41434 3
      vertex -7.36044 -8.17459 3
      vertex -5.5 -9.52628 3
    endloop
  endfacet
  facet normal -0 0 1
    outer loop
      vertex -10.7596 2.28703 3
      vertex -5.91817 0.987567 3
      vertex -10.049 4.4741 3
    endloop
  endfacet
  facet normal 0 0 1
    outer loop
      vertex -11 0 3
      vertex -5.91817 0.987567 3
      vertex -10.7596 2.28703 3
    endloop
  endfacet
  facet normal 0 0 1
    outer loop
      vertex -5.27684 -2.85568 3
      vertex -10.6335 -2.67516 3
      vertex -7.63351 -7.87131 3
    endloop
  endfacet
  facet normal 0 0 1
    outer loop
      vertex -10.6335 -2.67516 3
      vertex -29.8812 -20.716 3
      vertex -7.63351 -7.87131 3
    endloop
  endfacet
  facet normal -0 0 1
    outer loop
      vertex -32.3986 -34.1582 3
      vertex -28.486 -34.9899 3
      vertex -31.9615 -30 3
    endloop
  endfacet
  facet normal 0 0 1
    outer loop
      vertex -28.486 -25.0101 3
      vertex -32.3986 -25.8418 3
      vertex -31.9615 -30 3
    endloop
  endfacet
  facet normal 0 0 1
    outer loop
      vertex -29.8812 -20.716 3
      vertex -33.6906 -21.8653 3
      vertex -32.3986 -25.8418 3
    endloop
  endfacet
  facet normal -0 0 1
    outer loop
      vertex -36.141 -17.4019 3
      vertex -29.8812 -20.716 3
      vertex -10.6335 -2.67516 3
    endloop
  endfacet
  facet normal 0 0 1
    outer loop
      vertex -29.8812 -20.716 3
      vertex -34.641 -20 3
      vertex -33.6906 -21.8653 3
    endloop
  endfacet
  facet normal 0 0 1
    outer loop
      vertex -29.8812 -20.716 3
      vertex -36.141 -17.4019 3
      vertex -34.641 -20 3
    endloop
  endfacet
  facet normal 0 0 1
    outer loop
      vertex -0.495476 5.97951 3
      vertex -3 10.5465 3
      vertex -2.41017 5.49464 3
    endloop
  endfacet
  facet normal -0 0 1
    outer loop
      vertex -3.39919 10.4616 3
      vertex -2.41017 5.49464 3
      vertex -3 10.5465 3
    endloop
  endfacet
  facet normal -0 0 1
    outer loop
      vertex -5.5 9.52628 3
      vertex -2.41017 5.49464 3
      vertex -3.39919 10.4616 3
    endloop
  endfacet
  facet normal 0 0 1
    outer loop
      vertex -2.41017 5.49464 3
      vertex -5.5 9.52628 3
      vertex -4.06369 4.41434 3
    endloop
  endfacet
  facet normal -0 0 1
    outer loop
      vertex -7.36044 8.17459 3
      vertex -4.06369 4.41434 3
      vertex -5.5 9.52628 3
    endloop
  endfacet
  facet normal -0 0 1
    outer loop
      vertex -8.89919 6.46564 3
      vertex -4.06369 4.41434 3
      vertex -7.36044 8.17459 3
    endloop
  endfacet
  facet normal -0 0 1
    outer loop
      vertex -10.049 4.4741 3
      vertex -5.27684 2.85568 3
      vertex -8.89919 6.46564 3
    endloop
  endfacet
  facet normal 0 0 1
    outer loop
      vertex -4.06369 4.41434 3
      vertex -8.89919 6.46564 3
      vertex -5.27684 2.85568 3
    endloop
  endfacet
  facet normal -0.406737 -0.913545 0
    outer loop
      vertex -63.9615 -50.7846 0
      vertex -59.3779 -52.8254 3
      vertex -63.9615 -50.7846 3
    endloop
  endfacet
  facet normal -0.406737 -0.913545 -0
    outer loop
      vertex -59.3779 -52.8254 3
      vertex -63.9615 -50.7846 0
      vertex -59.3779 -52.8254 0
    endloop
  endfacet
  facet normal -0.743145 -0.66913 0
    outer loop
      vertex -68.0207 -47.8355 0
      vertex -71.3779 -44.1068 3
      vertex -71.3779 -44.1068 0
    endloop
  endfacet
  facet normal -0.743145 -0.66913 0
    outer loop
      vertex -71.3779 -44.1068 3
      vertex -68.0207 -47.8355 0
      vertex -68.0207 -47.8355 3
    endloop
  endfacet
  facet normal 0 0 -1
    outer loop
      vertex -31.9615 -30 0
      vertex -27.9615 -30 0
      vertex -28.486 -34.9899 0
    endloop
  endfacet
  facet normal 0 0 -1
    outer loop
      vertex -27.9615 -30 0
      vertex -31.9615 -30 0
      vertex -28.486 -25.0101 0
    endloop
  endfacet
  facet normal 0 0 -1
    outer loop
      vertex -32.3986 -34.1582 0
      vertex -28.486 -34.9899 0
      vertex -30.0364 -39.7617 0
    endloop
  endfacet
  facet normal 0 0 -1
    outer loop
      vertex -5.91817 -0.987567 0
      vertex -11 0 0
      vertex -5.91817 0.987567 0
    endloop
  endfacet
  facet normal 0 0 -1
    outer loop
      vertex -5.91817 0.987567 0
      vertex -10.7596 2.28703 0
      vertex -10.049 4.4741 0
    endloop
  endfacet
  facet normal -0 0 -1
    outer loop
      vertex -5.91817 0.987567 0
      vertex -11 0 0
      vertex -10.7596 2.28703 0
    endloop
  endfacet
  facet normal 0 0 -1
    outer loop
      vertex 75.4371 -34.9899 0
      vertex 71.5245 -34.1582 0
      vertex 71.9615 -30 0
    endloop
  endfacet
  facet normal 0 0 -1
    outer loop
      vertex 73.8866 -39.7617 0
      vertex 70.2324 -38.1347 0
      vertex 71.5245 -34.1582 0
    endloop
  endfacet
  facet normal 0 -0 -1
    outer loop
      vertex 70.2324 -38.1347 0
      vertex 72.6323 -41.9343 0
      vertex 69.1871 -39.9452 0
    endloop
  endfacet
  facet normal 0 0 -1
    outer loop
      vertex 71.9615 -30 0
      vertex 75.9615 -30 0
      vertex 75.4371 -34.9899 0
    endloop
  endfacet
  facet normal 0 0 -1
    outer loop
      vertex 71.5245 -34.1582 0
      vertex 75.4371 -34.9899 0
      vertex 73.8866 -39.7617 0
    endloop
  endfacet
  facet normal 0 0 -1
    outer loop
      vertex 75.9615 -30 0
      vertex 71.9615 -30 0
      vertex 75.4371 -25.0101 0
    endloop
  endfacet
  facet normal 0 0 -1
    outer loop
      vertex 70.2324 -38.1347 0
      vertex 73.8866 -39.7617 0
      vertex 72.6323 -41.9343 0
    endloop
  endfacet
  facet normal 0 0 -1
    outer loop
      vertex 71.5245 -25.8418 0
      vertex 75.4371 -25.0101 0
      vertex 71.9615 -30 0
    endloop
  endfacet
  facet normal -0 0 -1
    outer loop
      vertex 75.4371 -25.0101 0
      vertex 71.5245 -25.8418 0
      vertex 73.8866 -20.2383 0
    endloop
  endfacet
  facet normal 0 0 -1
    outer loop
      vertex 70.2324 -21.8653 0
      vertex 73.8866 -20.2383 0
      vertex 71.5245 -25.8418 0
    endloop
  endfacet
  facet normal -0 0 -1
    outer loop
      vertex 73.8866 -20.2383 0
      vertex 70.2324 -21.8653 0
      vertex 71.3779 -15.8932 0
    endloop
  endfacet
  facet normal 0 0 -1
    outer loop
      vertex 68.1419 -18.2443 0
      vertex 71.3779 -15.8932 0
      vertex 70.2324 -21.8653 0
    endloop
  endfacet
  facet normal 0 0 -1
    outer loop
      vertex 68.1419 -18.2443 0
      vertex 68.0207 -12.1645 0
      vertex 71.3779 -15.8932 0
    endloop
  endfacet
  facet normal 0 0 -1
    outer loop
      vertex 65.3441 -15.1371 0
      vertex 68.0207 -12.1645 0
      vertex 68.1419 -18.2443 0
    endloop
  endfacet
  facet normal 0 0 -1
    outer loop
      vertex 65.3441 -15.1371 0
      vertex 63.9615 -9.21539 0
      vertex 68.0207 -12.1645 0
    endloop
  endfacet
  facet normal 0 0 -1
    outer loop
      vertex 61.9615 -12.6795 0
      vertex 63.9615 -9.21539 0
      vertex 65.3441 -15.1371 0
    endloop
  endfacet
  facet normal 0 0 -1
    outer loop
      vertex 61.9615 -12.6795 0
      vertex 59.3779 -7.17464 0
      vertex 63.9615 -9.21539 0
    endloop
  endfacet
  facet normal 0 0 -1
    outer loop
      vertex 58.1419 -10.9789 0
      vertex 59.3779 -7.17464 0
      vertex 61.9615 -12.6795 0
    endloop
  endfacet
  facet normal 0 0 -1
    outer loop
      vertex 58.1419 -10.9789 0
      vertex 54.4702 -6.13147 0
      vertex 59.3779 -7.17464 0
    endloop
  endfacet
  facet normal 0 0 -1
    outer loop
      vertex 54.0521 -10.1096 0
      vertex 54.4702 -6.13147 0
      vertex 58.1419 -10.9789 0
    endloop
  endfacet
  facet normal 0 0 -1
    outer loop
      vertex 49.871 -10.1096 0
      vertex 54.4702 -6.13147 0
      vertex 54.0521 -10.1096 0
    endloop
  endfacet
  facet normal 0 0 -1
    outer loop
      vertex 49.871 -10.1096 0
      vertex 49.4528 -6.13147 0
      vertex 54.4702 -6.13147 0
    endloop
  endfacet
  facet normal 0 0 -1
    outer loop
      vertex 45.7812 -10.9789 0
      vertex 49.4528 -6.13147 0
      vertex 49.871 -10.1096 0
    endloop
  endfacet
  facet normal 0 0 -1
    outer loop
      vertex 45.7812 -10.9789 0
      vertex 44.5451 -7.17464 0
      vertex 49.4528 -6.13147 0
    endloop
  endfacet
  facet normal 0 0 -1
    outer loop
      vertex 41.9615 -12.6795 0
      vertex 44.5451 -7.17464 0
      vertex 45.7812 -10.9789 0
    endloop
  endfacet
  facet normal 0 0 -1
    outer loop
      vertex 41.9615 -12.6795 0
      vertex 39.9615 -9.21539 0
      vertex 44.5451 -7.17464 0
    endloop
  endfacet
  facet normal 0 0 -1
    outer loop
      vertex 38.5789 -15.1371 0
      vertex 39.9615 -9.21539 0
      vertex 41.9615 -12.6795 0
    endloop
  endfacet
  facet normal 0 0 -1
    outer loop
      vertex 38.5789 -15.1371 0
      vertex 35.9024 -12.1645 0
      vertex 39.9615 -9.21539 0
    endloop
  endfacet
  facet normal 0 0 -1
    outer loop
      vertex 32.8812 -15.5199 0
      vertex 38.5789 -15.1371 0
      vertex 35.7812 -18.2443 0
    endloop
  endfacet
  facet normal 0 0 -1
    outer loop
      vertex 34.641 -20 0
      vertex 35.7812 -18.2443 0
      vertex 34.7359 -20.0548 0
    endloop
  endfacet
  facet normal -0 0 -1
    outer loop
      vertex 35.7812 -18.2443 0
      vertex 34.641 -20 0
      vertex 32.8812 -15.5199 0
    endloop
  endfacet
  facet normal 0 0 -1
    outer loop
      vertex 32.8812 -15.5199 0
      vertex 34.641 -20 0
      vertex 33.141 -22.5981 0
    endloop
  endfacet
  facet normal -0 0 -1
    outer loop
      vertex 38.5789 -15.1371 0
      vertex 32.8812 -15.5199 0
      vertex 35.9024 -12.1645 0
    endloop
  endfacet
  facet normal 0 0 -1
    outer loop
      vertex 7.63351 -7.87131 0
      vertex 32.8812 -15.5199 0
      vertex 33.141 -22.5981 0
    endloop
  endfacet
  facet normal 0 0 -1
    outer loop
      vertex 5.6749 1.9482 0
      vertex 10.7596 2.28703 0
      vertex 6 0 0
    endloop
  endfacet
  facet normal 0 0 -1
    outer loop
      vertex 32.8812 -15.5199 0
      vertex 7.63351 -7.87131 0
      vertex 10.6335 -2.67516 0
    endloop
  endfacet
  facet normal 0 0 -1
    outer loop
      vertex 4.73484 -3.68528 0
      vertex 10.6335 -2.67516 0
      vertex 7.63351 -7.87131 0
    endloop
  endfacet
  facet normal 0 0 -1
    outer loop
      vertex 3.28169 -5.023 0
      vertex 7.63351 -7.87131 0
      vertex 7.36044 -8.17459 0
    endloop
  endfacet
  facet normal -0 0 -1
    outer loop
      vertex 10.7596 2.28703 0
      vertex 5.6749 1.9482 0
      vertex 10.049 4.4741 0
    endloop
  endfacet
  facet normal 0 0 -1
    outer loop
      vertex 4.73484 3.68528 0
      vertex 10.049 4.4741 0
      vertex 5.6749 1.9482 0
    endloop
  endfacet
  facet normal 0 0 -1
    outer loop
      vertex 10.6335 -2.67516 0
      vertex 5.6749 -1.9482 0
      vertex 6 0 0
    endloop
  endfacet
  facet normal 0 0 -1
    outer loop
      vertex 3.28169 -5.023 0
      vertex 7.36044 -8.17459 0
      vertex 5.5 -9.52628 0
    endloop
  endfacet
  facet normal -0 0 -1
    outer loop
      vertex 10.6335 -2.67516 0
      vertex 4.73484 -3.68528 0
      vertex 5.6749 -1.9482 0
    endloop
  endfacet
  facet normal 0 0 -1
    outer loop
      vertex 3.28169 -5.023 0
      vertex 5.5 -9.52628 0
      vertex 3.39919 -10.4616 0
    endloop
  endfacet
  facet normal 0 0 -1
    outer loop
      vertex 7.63351 -7.87131 0
      vertex 3.28169 -5.023 0
      vertex 4.73484 -3.68528 0
    endloop
  endfacet
  facet normal 0 0 -1
    outer loop
      vertex 3.39919 -10.4616 0
      vertex 1.47291 -5.8164 0
      vertex 3.28169 -5.023 0
    endloop
  endfacet
  facet normal 0 0 -1
    outer loop
      vertex 1.14981 -10.9397 0
      vertex 1.47291 -5.8164 0
      vertex 3.39919 -10.4616 0
    endloop
  endfacet
  facet normal 0 0 -1
    outer loop
      vertex 1.14981 -10.9397 0
      vertex -0.495476 -5.97951 0
      vertex 1.47291 -5.8164 0
    endloop
  endfacet
  facet normal 0 0 -1
    outer loop
      vertex -1.14981 -10.9397 0
      vertex -0.495476 -5.97951 0
      vertex 1.14981 -10.9397 0
    endloop
  endfacet
  facet normal 0 0 -1
    outer loop
      vertex -3.39919 -10.4616 0
      vertex -0.495476 -5.97951 0
      vertex -1.14981 -10.9397 0
    endloop
  endfacet
  facet normal -0 0 -1
    outer loop
      vertex -0.495476 -5.97951 0
      vertex -3.39919 -10.4616 0
      vertex -2.41017 -5.49464 0
    endloop
  endfacet
  facet normal 0 0 -1
    outer loop
      vertex -5.5 -9.52628 0
      vertex -2.41017 -5.49464 0
      vertex -3.39919 -10.4616 0
    endloop
  endfacet
  facet normal -0 0 -1
    outer loop
      vertex -2.41017 -5.49464 0
      vertex -5.5 -9.52628 0
      vertex -4.06369 -4.41434 0
    endloop
  endfacet
  facet normal 0 0 -1
    outer loop
      vertex -7.36044 -8.17459 0
      vertex -4.06369 -4.41434 0
      vertex -5.5 -9.52628 0
    endloop
  endfacet
  facet normal 0 0 -1
    outer loop
      vertex -7.63351 -7.87131 0
      vertex -4.06369 -4.41434 0
      vertex -7.36044 -8.17459 0
    endloop
  endfacet
  facet normal 0 0 -1
    outer loop
      vertex -10.6335 -2.67516 0
      vertex -5.27684 -2.85568 0
      vertex -7.63351 -7.87131 0
    endloop
  endfacet
  facet normal -0 0 -1
    outer loop
      vertex -4.06369 -4.41434 0
      vertex -7.63351 -7.87131 0
      vertex -5.27684 -2.85568 0
    endloop
  endfacet
  facet normal 0 0 -1
    outer loop
      vertex 6 0 0
      vertex 10.7596 -2.28703 0
      vertex 10.6335 -2.67516 0
    endloop
  endfacet
  facet normal 0 0 -1
    outer loop
      vertex 10.7596 -2.28703 0
      vertex 6 0 0
      vertex 11 0 0
    endloop
  endfacet
  facet normal 0 0 -1
    outer loop
      vertex 11 0 0
      vertex 6 0 0
      vertex 10.7596 2.28703 0
    endloop
  endfacet
  facet normal -0 0 -1
    outer loop
      vertex 10.049 4.4741 0
      vertex 4.73484 3.68528 0
      vertex 8.89919 6.46564 0
    endloop
  endfacet
  facet normal -0 0 -1
    outer loop
      vertex 8.89919 6.46564 0
      vertex 4.73484 3.68528 0
      vertex 7.36044 8.17459 0
    endloop
  endfacet
  facet normal 0 0 -1
    outer loop
      vertex 3.28169 5.023 0
      vertex 7.36044 8.17459 0
      vertex 4.73484 3.68528 0
    endloop
  endfacet
  facet normal -0 0 -1
    outer loop
      vertex 7.36044 8.17459 0
      vertex 3.28169 5.023 0
      vertex 5.5 9.52628 0
    endloop
  endfacet
  facet normal -0 0 -1
    outer loop
      vertex 5.5 9.52628 0
      vertex 3.28169 5.023 0
      vertex 3.39919 10.4616 0
    endloop
  endfacet
  facet normal 0 0 -1
    outer loop
      vertex 1.47291 5.8164 0
      vertex 3.39919 10.4616 0
      vertex 3.28169 5.023 0
    endloop
  endfacet
  facet normal -0 0 -1
    outer loop
      vertex 3.39919 10.4616 0
      vertex 1.47291 5.8164 0
      vertex 3 10.5465 0
    endloop
  endfacet
  facet normal 0 0 -1
    outer loop
      vertex -0.495476 5.97951 0
      vertex 3 10.5465 0
      vertex 1.47291 5.8164 0
    endloop
  endfacet
  facet normal 0 0 -1
    outer loop
      vertex -3 36.2359 0
      vertex 3 10.5465 0
      vertex -3 10.5465 0
    endloop
  endfacet
  facet normal -0 0 -1
    outer loop
      vertex 3 10.5465 0
      vertex -0.495476 5.97951 0
      vertex -3 10.5465 0
    endloop
  endfacet
  facet normal 0 0 -1
    outer loop
      vertex 3 10.5465 0
      vertex -3 36.2359 0
      vertex 3 40 0
    endloop
  endfacet
  facet normal -0 0 -1
    outer loop
      vertex 3 40 0
      vertex -3 36.2359 0
      vertex 9.79717e-15 40 0
    endloop
  endfacet
  facet normal 0 0 -1
    outer loop
      vertex -3 10.5465 0
      vertex -0.495476 5.97951 0
      vertex -2.41017 5.49464 0
    endloop
  endfacet
  facet normal 0 -0 -1
    outer loop
      vertex -2.09057 40.1096 0
      vertex 9.79717e-15 40 0
      vertex -3 36.2359 0
    endloop
  endfacet
  facet normal 0 0 -1
    outer loop
      vertex 9.79717e-15 40 0
      vertex -2.09057 40.1096 0
      vertex 9.82401e-15 40.1096 0
    endloop
  endfacet
  facet normal 0 0 -1
    outer loop
      vertex -3 36.2359 0
      vertex -6.18034 40.9789 0
      vertex -2.09057 40.1096 0
    endloop
  endfacet
  facet normal 0 0 -1
    outer loop
      vertex -7.41641 37.1746 0
      vertex -6.18034 40.9789 0
      vertex -3 36.2359 0
    endloop
  endfacet
  facet normal 0 0 -1
    outer loop
      vertex -7.41641 37.1746 0
      vertex -10 42.6795 0
      vertex -6.18034 40.9789 0
    endloop
  endfacet
  facet normal 0 0 -1
    outer loop
      vertex -12 39.2154 0
      vertex -10 42.6795 0
      vertex -7.41641 37.1746 0
    endloop
  endfacet
  facet normal 0 0 -1
    outer loop
      vertex -12 39.2154 0
      vertex -13.3826 45.1371 0
      vertex -10 42.6795 0
    endloop
  endfacet
  facet normal 0 0 -1
    outer loop
      vertex -16.0591 42.1645 0
      vertex -13.3826 45.1371 0
      vertex -12 39.2154 0
    endloop
  endfacet
  facet normal 0 0 -1
    outer loop
      vertex -16.0591 42.1645 0
      vertex -16.1803 48.2443 0
      vertex -13.3826 45.1371 0
    endloop
  endfacet
  facet normal 0 0 -1
    outer loop
      vertex -19.4164 45.8932 0
      vertex -16.1803 48.2443 0
      vertex -16.0591 42.1645 0
    endloop
  endfacet
  facet normal -0 0 -1
    outer loop
      vertex -16.1803 48.2443 0
      vertex -19.4164 45.8932 0
      vertex -18.2709 51.8653 0
    endloop
  endfacet
  facet normal 0 0 -1
    outer loop
      vertex -21.9251 50.2383 0
      vertex -18.2709 51.8653 0
      vertex -19.4164 45.8932 0
    endloop
  endfacet
  facet normal -0 0 -1
    outer loop
      vertex -18.2709 51.8653 0
      vertex -21.9251 50.2383 0
      vertex -19.563 55.8418 0
    endloop
  endfacet
  facet normal 0 0 -1
    outer loop
      vertex -23.4755 55.0101 0
      vertex -19.563 55.8418 0
      vertex -21.9251 50.2383 0
    endloop
  endfacet
  facet normal 0 0 -1
    outer loop
      vertex -2.09057 79.8904 0
      vertex 2.05419e-14 83.8685 0
      vertex 1.95675e-14 79.8904 0
    endloop
  endfacet
  facet normal 0 0 -1
    outer loop
      vertex -2.09057 79.8904 0
      vertex -2.50868 83.8685 0
      vertex 2.05419e-14 83.8685 0
    endloop
  endfacet
  facet normal 0 0 -1
    outer loop
      vertex -6.18034 79.0211 0
      vertex -2.50868 83.8685 0
      vertex -2.09057 79.8904 0
    endloop
  endfacet
  facet normal 0 0 -1
    outer loop
      vertex -6.18034 79.0211 0
      vertex -7.41641 82.8254 0
      vertex -2.50868 83.8685 0
    endloop
  endfacet
  facet normal 0 0 -1
    outer loop
      vertex -10 77.3205 0
      vertex -7.41641 82.8254 0
      vertex -6.18034 79.0211 0
    endloop
  endfacet
  facet normal 0 0 -1
    outer loop
      vertex -10 77.3205 0
      vertex -12 80.7846 0
      vertex -7.41641 82.8254 0
    endloop
  endfacet
  facet normal 0 0 -1
    outer loop
      vertex -13.3826 74.8629 0
      vertex -12 80.7846 0
      vertex -10 77.3205 0
    endloop
  endfacet
  facet normal 0 0 -1
    outer loop
      vertex -13.3826 74.8629 0
      vertex -16.0591 77.8355 0
      vertex -12 80.7846 0
    endloop
  endfacet
  facet normal 0 0 -1
    outer loop
      vertex -16.1803 71.7557 0
      vertex -16.0591 77.8355 0
      vertex -13.3826 74.8629 0
    endloop
  endfacet
  facet normal 0 0 -1
    outer loop
      vertex -19.4164 74.1068 0
      vertex -16.1803 71.7557 0
      vertex -18.2709 68.1347 0
    endloop
  endfacet
  facet normal 0 0 -1
    outer loop
      vertex -16.1803 71.7557 0
      vertex -19.4164 74.1068 0
      vertex -16.0591 77.8355 0
    endloop
  endfacet
  facet normal 0 0 -1
    outer loop
      vertex -21.9251 69.7617 0
      vertex -18.2709 68.1347 0
      vertex -19.563 64.1582 0
    endloop
  endfacet
  facet normal 0 0 -1
    outer loop
      vertex -23.4755 64.9899 0
      vertex -19.563 64.1582 0
      vertex -20 60 0
    endloop
  endfacet
  facet normal -0 0 -1
    outer loop
      vertex -19.563 55.8418 0
      vertex -23.4755 55.0101 0
      vertex -20 60 0
    endloop
  endfacet
  facet normal 0 0 -1
    outer loop
      vertex -18.2709 68.1347 0
      vertex -21.9251 69.7617 0
      vertex -19.4164 74.1068 0
    endloop
  endfacet
  facet normal 0 0 -1
    outer loop
      vertex -24 60 0
      vertex -20 60 0
      vertex -23.4755 55.0101 0
    endloop
  endfacet
  facet normal 0 0 -1
    outer loop
      vertex -19.563 64.1582 0
      vertex -23.4755 64.9899 0
      vertex -21.9251 69.7617 0
    endloop
  endfacet
  facet normal 0 0 -1
    outer loop
      vertex -20 60 0
      vertex -24 60 0
      vertex -23.4755 64.9899 0
    endloop
  endfacet
  facet normal 0 0 -1
    outer loop
      vertex -33.6906 -21.8653 0
      vertex -34.7359 -20.0548 0
      vertex -34.641 -20 0
    endloop
  endfacet
  facet normal 0 0 -1
    outer loop
      vertex -28.486 -34.9899 0
      vertex -32.3986 -34.1582 0
      vertex -31.9615 -30 0
    endloop
  endfacet
  facet normal 0 0 -1
    outer loop
      vertex -33.6906 -38.1347 0
      vertex -30.0364 -39.7617 0
      vertex -32.5451 -44.1068 0
    endloop
  endfacet
  facet normal 0 0 -1
    outer loop
      vertex -30.0364 -39.7617 0
      vertex -33.6906 -38.1347 0
      vertex -32.3986 -34.1582 0
    endloop
  endfacet
  facet normal 0 0 -1
    outer loop
      vertex -32.5451 -44.1068 0
      vertex -35.7812 -41.7557 0
      vertex -33.6906 -38.1347 0
    endloop
  endfacet
  facet normal 0 0 -1
    outer loop
      vertex -35.9024 -47.8355 0
      vertex -35.7812 -41.7557 0
      vertex -32.5451 -44.1068 0
    endloop
  endfacet
  facet normal 0 0 -1
    outer loop
      vertex -35.9024 -47.8355 0
      vertex -38.5789 -44.8629 0
      vertex -35.7812 -41.7557 0
    endloop
  endfacet
  facet normal 0 0 -1
    outer loop
      vertex -39.9615 -50.7846 0
      vertex -38.5789 -44.8629 0
      vertex -35.9024 -47.8355 0
    endloop
  endfacet
  facet normal 0 0 -1
    outer loop
      vertex -39.9615 -50.7846 0
      vertex -41.9615 -47.3205 0
      vertex -38.5789 -44.8629 0
    endloop
  endfacet
  facet normal 0 0 -1
    outer loop
      vertex -44.5451 -52.8254 0
      vertex -41.9615 -47.3205 0
      vertex -39.9615 -50.7846 0
    endloop
  endfacet
  facet normal 0 0 -1
    outer loop
      vertex -44.5451 -52.8254 0
      vertex -45.7812 -49.0211 0
      vertex -41.9615 -47.3205 0
    endloop
  endfacet
  facet normal 0 0 -1
    outer loop
      vertex -49.4528 -53.8685 0
      vertex -45.7812 -49.0211 0
      vertex -44.5451 -52.8254 0
    endloop
  endfacet
  facet normal 0 0 -1
    outer loop
      vertex -49.4528 -53.8685 0
      vertex -49.871 -49.8904 0
      vertex -45.7812 -49.0211 0
    endloop
  endfacet
  facet normal 0 0 -1
    outer loop
      vertex -49.4528 -53.8685 0
      vertex -54.0521 -49.8904 0
      vertex -49.871 -49.8904 0
    endloop
  endfacet
  facet normal 0 0 -1
    outer loop
      vertex -54.4702 -53.8685 0
      vertex -54.0521 -49.8904 0
      vertex -49.4528 -53.8685 0
    endloop
  endfacet
  facet normal 0 0 -1
    outer loop
      vertex -54.4702 -53.8685 0
      vertex -58.1419 -49.0211 0
      vertex -54.0521 -49.8904 0
    endloop
  endfacet
  facet normal 0 0 -1
    outer loop
      vertex -59.3779 -52.8254 0
      vertex -58.1419 -49.0211 0
      vertex -54.4702 -53.8685 0
    endloop
  endfacet
  facet normal 0 0 -1
    outer loop
      vertex -59.3779 -52.8254 0
      vertex -61.9615 -47.3205 0
      vertex -58.1419 -49.0211 0
    endloop
  endfacet
  facet normal 0 0 -1
    outer loop
      vertex -63.9615 -50.7846 0
      vertex -61.9615 -47.3205 0
      vertex -59.3779 -52.8254 0
    endloop
  endfacet
  facet normal 0 0 -1
    outer loop
      vertex -63.9615 -50.7846 0
      vertex -65.3441 -44.8629 0
      vertex -61.9615 -47.3205 0
    endloop
  endfacet
  facet normal 0 0 -1
    outer loop
      vertex -68.0207 -47.8355 0
      vertex -65.3441 -44.8629 0
      vertex -63.9615 -50.7846 0
    endloop
  endfacet
  facet normal 0 0 -1
    outer loop
      vertex -68.0207 -47.8355 0
      vertex -68.1419 -41.7557 0
      vertex -65.3441 -44.8629 0
    endloop
  endfacet
  facet normal 0 0 -1
    outer loop
      vertex -71.3779 -44.1068 0
      vertex -68.1419 -41.7557 0
      vertex -68.0207 -47.8355 0
    endloop
  endfacet
  facet normal 0 0 -1
    outer loop
      vertex -72.6323 -41.9343 0
      vertex -68.1419 -41.7557 0
      vertex -71.3779 -44.1068 0
    endloop
  endfacet
  facet normal -0 0 -1
    outer loop
      vertex -68.1419 -41.7557 0
      vertex -72.6323 -41.9343 0
      vertex -69.1871 -39.9452 0
    endloop
  endfacet
  facet normal 0 0 -1
    outer loop
      vertex -2.41017 5.49464 0
      vertex -3.39919 10.4616 0
      vertex -3 10.5465 0
    endloop
  endfacet
  facet normal 0 0 -1
    outer loop
      vertex -5.5 9.52628 0
      vertex -2.41017 5.49464 0
      vertex -4.06369 4.41434 0
    endloop
  endfacet
  facet normal 0 0 -1
    outer loop
      vertex -8.89919 6.46564 0
      vertex -4.06369 4.41434 0
      vertex -5.27684 2.85568 0
    endloop
  endfacet
  facet normal 0 0 -1
    outer loop
      vertex -2.41017 5.49464 0
      vertex -5.5 9.52628 0
      vertex -3.39919 10.4616 0
    endloop
  endfacet
  facet normal 0 0 -1
    outer loop
      vertex -10.049 4.4741 0
      vertex -5.27684 2.85568 0
      vertex -5.91817 0.987567 0
    endloop
  endfacet
  facet normal 0 0 -1
    outer loop
      vertex -5.27684 -2.85568 0
      vertex -10.6335 -2.67516 0
      vertex -5.91817 -0.987567 0
    endloop
  endfacet
  facet normal 0 0 -1
    outer loop
      vertex -10.7596 -2.28703 0
      vertex -5.91817 -0.987567 0
      vertex -10.6335 -2.67516 0
    endloop
  endfacet
  facet normal 0 0 -1
    outer loop
      vertex -4.06369 4.41434 0
      vertex -7.36044 8.17459 0
      vertex -5.5 9.52628 0
    endloop
  endfacet
  facet normal 0 0 -1
    outer loop
      vertex -4.06369 4.41434 0
      vertex -8.89919 6.46564 0
      vertex -7.36044 8.17459 0
    endloop
  endfacet
  facet normal 0 0 -1
    outer loop
      vertex -5.27684 2.85568 0
      vertex -10.049 4.4741 0
      vertex -8.89919 6.46564 0
    endloop
  endfacet
  facet normal 0 0 -1
    outer loop
      vertex -11 0 0
      vertex -5.91817 -0.987567 0
      vertex -10.7596 -2.28703 0
    endloop
  endfacet
  facet normal 0 0 -1
    outer loop
      vertex -29.8812 -20.716 0
      vertex -10.6335 -2.67516 0
      vertex -7.63351 -7.87131 0
    endloop
  endfacet
  facet normal 0 0 -1
    outer loop
      vertex -32.3986 -25.8418 0
      vertex -28.486 -25.0101 0
      vertex -31.9615 -30 0
    endloop
  endfacet
  facet normal -0 0 -1
    outer loop
      vertex -28.486 -25.0101 0
      vertex -32.3986 -25.8418 0
      vertex -29.8812 -20.716 0
    endloop
  endfacet
  facet normal 0 0 -1
    outer loop
      vertex -33.6906 -21.8653 0
      vertex -29.8812 -20.716 0
      vertex -32.3986 -25.8418 0
    endloop
  endfacet
  facet normal 0 0 -1
    outer loop
      vertex -34.641 -20 0
      vertex -29.8812 -20.716 0
      vertex -33.6906 -21.8653 0
    endloop
  endfacet
  facet normal 0 0 -1
    outer loop
      vertex -36.141 -17.4019 0
      vertex -29.8812 -20.716 0
      vertex -34.641 -20 0
    endloop
  endfacet
  facet normal 0 0 -1
    outer loop
      vertex -29.8812 -20.716 0
      vertex -36.141 -17.4019 0
      vertex -10.6335 -2.67516 0
    endloop
  endfacet
  facet normal 0.866025 -0.5 0
    outer loop
      vertex -32.5451 -44.1068 3
      vertex -30.0364 -39.7617 0
      vertex -30.0364 -39.7617 3
    endloop
  endfacet
  facet normal 0.866025 -0.5 0
    outer loop
      vertex -30.0364 -39.7617 0
      vertex -32.5451 -44.1068 3
      vertex -32.5451 -44.1068 0
    endloop
  endfacet
  facet normal 0.994522 0.104529 0
    outer loop
      vertex -27.9615 -30 3
      vertex -28.486 -25.0101 0
      vertex -28.486 -25.0101 3
    endloop
  endfacet
  facet normal 0.994522 0.104529 0
    outer loop
      vertex -28.486 -25.0101 0
      vertex -27.9615 -30 3
      vertex -27.9615 -30 0
    endloop
  endfacet
  facet normal 0.951057 -0.309017 0
    outer loop
      vertex -30.0364 -39.7617 3
      vertex -28.486 -34.9899 0
      vertex -28.486 -34.9899 3
    endloop
  endfacet
  facet normal 0.951057 -0.309017 0
    outer loop
      vertex -28.486 -34.9899 0
      vertex -30.0364 -39.7617 3
      vertex -30.0364 -39.7617 0
    endloop
  endfacet
  facet normal 0.743145 -0.669131 0
    outer loop
      vertex -35.9024 -47.8355 3
      vertex -32.5451 -44.1068 0
      vertex -32.5451 -44.1068 3
    endloop
  endfacet
  facet normal 0.743145 -0.669131 0
    outer loop
      vertex -32.5451 -44.1068 0
      vertex -35.9024 -47.8355 3
      vertex -35.9024 -47.8355 0
    endloop
  endfacet
  facet normal 0.587785 -0.809017 0
    outer loop
      vertex -39.9615 -50.7846 0
      vertex -35.9024 -47.8355 3
      vertex -39.9615 -50.7846 3
    endloop
  endfacet
  facet normal 0.587785 -0.809017 0
    outer loop
      vertex -35.9024 -47.8355 3
      vertex -39.9615 -50.7846 0
      vertex -35.9024 -47.8355 0
    endloop
  endfacet
  facet normal 0.994522 -0.104529 0
    outer loop
      vertex -28.486 -34.9899 3
      vertex -27.9615 -30 0
      vertex -27.9615 -30 3
    endloop
  endfacet
  facet normal 0.994522 -0.104529 0
    outer loop
      vertex -27.9615 -30 0
      vertex -28.486 -34.9899 3
      vertex -28.486 -34.9899 0
    endloop
  endfacet
  facet normal 0.951056 0.309017 0
    outer loop
      vertex -28.486 -25.0101 3
      vertex -29.8812 -20.716 0
      vertex -29.8812 -20.716 3
    endloop
  endfacet
  facet normal 0.951056 0.309017 0
    outer loop
      vertex -29.8812 -20.716 0
      vertex -28.486 -25.0101 3
      vertex -28.486 -25.0101 0
    endloop
  endfacet
  facet normal 0.587785 0.809017 -0
    outer loop
      vertex -61.9615 -47.3205 0
      vertex -65.3441 -44.8629 3
      vertex -61.9615 -47.3205 3
    endloop
  endfacet
  facet normal 0.587785 0.809017 0
    outer loop
      vertex -65.3441 -44.8629 3
      vertex -61.9615 -47.3205 0
      vertex -65.3441 -44.8629 0
    endloop
  endfacet
  facet normal 0.866025 0.500001 0
    outer loop
      vertex -68.1419 -41.7557 3
      vertex -69.1871 -39.9452 0
      vertex -69.1871 -39.9452 3
    endloop
  endfacet
  facet normal 0.866025 0.500001 0
    outer loop
      vertex -69.1871 -39.9452 0
      vertex -68.1419 -41.7557 3
      vertex -68.1419 -41.7557 0
    endloop
  endfacet
  facet normal -0.406737 0.913545 0
    outer loop
      vertex -41.9615 -47.3205 0
      vertex -45.7812 -49.0211 3
      vertex -41.9615 -47.3205 3
    endloop
  endfacet
  facet normal -0.406737 0.913545 0
    outer loop
      vertex -45.7812 -49.0211 3
      vertex -41.9615 -47.3205 0
      vertex -45.7812 -49.0211 0
    endloop
  endfacet
  facet normal 0 1 -0
    outer loop
      vertex -49.871 -49.8904 0
      vertex -54.0521 -49.8904 3
      vertex -49.871 -49.8904 3
    endloop
  endfacet
  facet normal 0 1 0
    outer loop
      vertex -54.0521 -49.8904 3
      vertex -49.871 -49.8904 0
      vertex -54.0521 -49.8904 0
    endloop
  endfacet
  facet normal 0.406737 0.913545 -0
    outer loop
      vertex -58.1419 -49.0211 0
      vertex -61.9615 -47.3205 3
      vertex -58.1419 -49.0211 3
    endloop
  endfacet
  facet normal 0.406737 0.913545 0
    outer loop
      vertex -61.9615 -47.3205 3
      vertex -58.1419 -49.0211 0
      vertex -61.9615 -47.3205 0
    endloop
  endfacet
  facet normal 0.743146 0.66913 0
    outer loop
      vertex -65.3441 -44.8629 3
      vertex -68.1419 -41.7557 0
      vertex -68.1419 -41.7557 3
    endloop
  endfacet
  facet normal 0.743146 0.66913 0
    outer loop
      vertex -68.1419 -41.7557 0
      vertex -65.3441 -44.8629 3
      vertex -65.3441 -44.8629 0
    endloop
  endfacet
  facet normal 0.207912 0.978148 -0
    outer loop
      vertex -54.0521 -49.8904 0
      vertex -58.1419 -49.0211 3
      vertex -54.0521 -49.8904 3
    endloop
  endfacet
  facet normal 0.207912 0.978148 0
    outer loop
      vertex -58.1419 -49.0211 3
      vertex -54.0521 -49.8904 0
      vertex -58.1419 -49.0211 0
    endloop
  endfacet
  facet normal -0.866025 0.5 0
    outer loop
      vertex -35.7812 -41.7557 0
      vertex -33.6906 -38.1347 3
      vertex -33.6906 -38.1347 0
    endloop
  endfacet
  facet normal -0.866025 0.5 0
    outer loop
      vertex -33.6906 -38.1347 3
      vertex -35.7812 -41.7557 0
      vertex -35.7812 -41.7557 3
    endloop
  endfacet
  facet normal -0.207912 0.978148 0
    outer loop
      vertex -45.7812 -49.0211 0
      vertex -49.871 -49.8904 3
      vertex -45.7812 -49.0211 3
    endloop
  endfacet
  facet normal -0.207912 0.978148 0
    outer loop
      vertex -49.871 -49.8904 3
      vertex -45.7812 -49.0211 0
      vertex -49.871 -49.8904 0
    endloop
  endfacet
  facet normal -0.587785 0.809017 0
    outer loop
      vertex -38.5789 -44.8629 0
      vertex -41.9615 -47.3205 3
      vertex -38.5789 -44.8629 3
    endloop
  endfacet
  facet normal -0.587785 0.809017 0
    outer loop
      vertex -41.9615 -47.3205 3
      vertex -38.5789 -44.8629 0
      vertex -41.9615 -47.3205 0
    endloop
  endfacet
  facet normal -0.951056 -0.309018 0
    outer loop
      vertex -32.3986 -25.8418 0
      vertex -33.6906 -21.8653 3
      vertex -33.6906 -21.8653 0
    endloop
  endfacet
  facet normal -0.951056 -0.309018 0
    outer loop
      vertex -33.6906 -21.8653 3
      vertex -32.3986 -25.8418 0
      vertex -32.3986 -25.8418 3
    endloop
  endfacet
  facet normal -0.866025 -0.5 0
    outer loop
      vertex -33.6906 -21.8653 0
      vertex -34.7359 -20.0548 3
      vertex -34.7359 -20.0548 0
    endloop
  endfacet
  facet normal -0.866025 -0.5 0
    outer loop
      vertex -34.7359 -20.0548 3
      vertex -33.6906 -21.8653 0
      vertex -33.6906 -21.8653 3
    endloop
  endfacet
  facet normal -0.743145 0.66913 0
    outer loop
      vertex -38.5789 -44.8629 0
      vertex -35.7812 -41.7557 3
      vertex -35.7812 -41.7557 0
    endloop
  endfacet
  facet normal -0.743145 0.66913 0
    outer loop
      vertex -35.7812 -41.7557 3
      vertex -38.5789 -44.8629 0
      vertex -38.5789 -44.8629 3
    endloop
  endfacet
  facet normal -0.951057 0.309017 0
    outer loop
      vertex -33.6906 -38.1347 0
      vertex -32.3986 -34.1582 3
      vertex -32.3986 -34.1582 0
    endloop
  endfacet
  facet normal -0.951057 0.309017 0
    outer loop
      vertex -32.3986 -34.1582 3
      vertex -33.6906 -38.1347 0
      vertex -33.6906 -38.1347 3
    endloop
  endfacet
  facet normal -0.994522 -0.104528 0
    outer loop
      vertex -31.9615 -30 0
      vertex -32.3986 -25.8418 3
      vertex -32.3986 -25.8418 0
    endloop
  endfacet
  facet normal -0.994522 -0.104528 0
    outer loop
      vertex -32.3986 -25.8418 3
      vertex -31.9615 -30 0
      vertex -31.9615 -30 3
    endloop
  endfacet
  facet normal -0.994522 0.104529 0
    outer loop
      vertex -32.3986 -34.1582 0
      vertex -31.9615 -30 3
      vertex -31.9615 -30 0
    endloop
  endfacet
  facet normal -0.994522 0.104529 0
    outer loop
      vertex -31.9615 -30 3
      vertex -32.3986 -34.1582 0
      vertex -32.3986 -34.1582 3
    endloop
  endfacet
  facet normal -0.500002 0.866024 0
    outer loop
      vertex -34.641 -20 0
      vertex -34.7359 -20.0548 3
      vertex -34.641 -20 3
    endloop
  endfacet
  facet normal -0.500002 0.866024 0
    outer loop
      vertex -34.7359 -20.0548 3
      vertex -34.641 -20 0
      vertex -34.7359 -20.0548 0
    endloop
  endfacet
  facet normal -0.5 0.866025 0
    outer loop
      vertex -69.1871 -39.9452 0
      vertex -72.6323 -41.9343 3
      vertex -69.1871 -39.9452 3
    endloop
  endfacet
  facet normal -0.5 0.866025 0
    outer loop
      vertex -72.6323 -41.9343 3
      vertex -69.1871 -39.9452 0
      vertex -72.6323 -41.9343 0
    endloop
  endfacet
  facet normal 0.5 -0.866025 0
    outer loop
      vertex -29.8812 -20.716 0
      vertex -7.63351 -7.87131 3
      vertex -29.8812 -20.716 3
    endloop
  endfacet
  facet normal 0.5 -0.866025 0
    outer loop
      vertex -7.63351 -7.87131 3
      vertex -29.8812 -20.716 0
      vertex -7.63351 -7.87131 0
    endloop
  endfacet
  facet normal -0.5 0.866025 0
    outer loop
      vertex -10.6335 -2.67516 0
      vertex -36.141 -17.4019 3
      vertex -10.6335 -2.67516 3
    endloop
  endfacet
  facet normal -0.5 0.866025 0
    outer loop
      vertex -36.141 -17.4019 3
      vertex -10.6335 -2.67516 0
      vertex -36.141 -17.4019 0
    endloop
  endfacet
  facet normal -0.866025 -0.5 0
    outer loop
      vertex -34.641 -20 0
      vertex -36.141 -17.4019 3
      vertex -36.141 -17.4019 0
    endloop
  endfacet
  facet normal -0.866025 -0.5 0
    outer loop
      vertex -36.141 -17.4019 3
      vertex -34.641 -20 0
      vertex -34.641 -20 3
    endloop
  endfacet
  facet normal 0.587785 0.809017 -0
    outer loop
      vertex 68.0207 -12.1645 0
      vertex 63.9615 -9.21539 3
      vertex 68.0207 -12.1645 3
    endloop
  endfacet
  facet normal 0.587785 0.809017 0
    outer loop
      vertex 63.9615 -9.21539 3
      vertex 68.0207 -12.1645 0
      vertex 63.9615 -9.21539 0
    endloop
  endfacet
  facet normal 0.866025 -0.5 0
    outer loop
      vertex 72.6323 -41.9343 3
      vertex 73.8866 -39.7617 0
      vertex 73.8866 -39.7617 3
    endloop
  endfacet
  facet normal 0.866025 -0.5 0
    outer loop
      vertex 73.8866 -39.7617 0
      vertex 72.6323 -41.9343 3
      vertex 72.6323 -41.9343 0
    endloop
  endfacet
  facet normal 0.951056 0.309017 0
    outer loop
      vertex 75.4371 -25.0101 3
      vertex 73.8866 -20.2383 0
      vertex 73.8866 -20.2383 3
    endloop
  endfacet
  facet normal 0.951056 0.309017 0
    outer loop
      vertex 73.8866 -20.2383 0
      vertex 75.4371 -25.0101 3
      vertex 75.4371 -25.0101 0
    endloop
  endfacet
  facet normal 0.866026 0.5 0
    outer loop
      vertex 73.8866 -20.2383 3
      vertex 71.3779 -15.8932 0
      vertex 71.3779 -15.8932 3
    endloop
  endfacet
  facet normal 0.866026 0.5 0
    outer loop
      vertex 71.3779 -15.8932 0
      vertex 73.8866 -20.2383 3
      vertex 73.8866 -20.2383 0
    endloop
  endfacet
  facet normal 0.994522 -0.104529 0
    outer loop
      vertex 75.4371 -34.9899 3
      vertex 75.9615 -30 0
      vertex 75.9615 -30 3
    endloop
  endfacet
  facet normal 0.994522 -0.104529 0
    outer loop
      vertex 75.9615 -30 0
      vertex 75.4371 -34.9899 3
      vertex 75.4371 -34.9899 0
    endloop
  endfacet
  facet normal 0.743145 0.66913 0
    outer loop
      vertex 71.3779 -15.8932 3
      vertex 68.0207 -12.1645 0
      vertex 68.0207 -12.1645 3
    endloop
  endfacet
  facet normal 0.743145 0.66913 0
    outer loop
      vertex 68.0207 -12.1645 0
      vertex 71.3779 -15.8932 3
      vertex 71.3779 -15.8932 0
    endloop
  endfacet
  facet normal 0.994522 0.104529 0
    outer loop
      vertex 75.9615 -30 3
      vertex 75.4371 -25.0101 0
      vertex 75.4371 -25.0101 3
    endloop
  endfacet
  facet normal 0.994522 0.104529 0
    outer loop
      vertex 75.4371 -25.0101 0
      vertex 75.9615 -30 3
      vertex 75.9615 -30 0
    endloop
  endfacet
  facet normal 0.951056 -0.309017 0
    outer loop
      vertex 73.8866 -39.7617 3
      vertex 75.4371 -34.9899 0
      vertex 75.4371 -34.9899 3
    endloop
  endfacet
  facet normal 0.951056 -0.309017 0
    outer loop
      vertex 75.4371 -34.9899 0
      vertex 73.8866 -39.7617 3
      vertex 73.8866 -39.7617 0
    endloop
  endfacet
  facet normal 0 1 -0
    outer loop
      vertex 54.4702 -6.13147 0
      vertex 49.4528 -6.13147 3
      vertex 54.4702 -6.13147 3
    endloop
  endfacet
  facet normal 0 1 0
    outer loop
      vertex 49.4528 -6.13147 3
      vertex 54.4702 -6.13147 0
      vertex 49.4528 -6.13147 0
    endloop
  endfacet
  facet normal -0.587785 0.809017 0
    outer loop
      vertex 39.9615 -9.21539 0
      vertex 35.9024 -12.1645 3
      vertex 39.9615 -9.21539 3
    endloop
  endfacet
  facet normal -0.587785 0.809017 0
    outer loop
      vertex 35.9024 -12.1645 3
      vertex 39.9615 -9.21539 0
      vertex 35.9024 -12.1645 0
    endloop
  endfacet
  facet normal -0.207912 0.978148 0
    outer loop
      vertex 49.4528 -6.13147 0
      vertex 44.5451 -7.17464 3
      vertex 49.4528 -6.13147 3
    endloop
  endfacet
  facet normal -0.207912 0.978148 0
    outer loop
      vertex 44.5451 -7.17464 3
      vertex 49.4528 -6.13147 0
      vertex 44.5451 -7.17464 0
    endloop
  endfacet
  facet normal 0.207912 0.978148 -0
    outer loop
      vertex 59.3779 -7.17464 0
      vertex 54.4702 -6.13147 3
      vertex 59.3779 -7.17464 3
    endloop
  endfacet
  facet normal 0.207912 0.978148 0
    outer loop
      vertex 54.4702 -6.13147 3
      vertex 59.3779 -7.17464 0
      vertex 54.4702 -6.13147 0
    endloop
  endfacet
  facet normal 0.406737 0.913545 -0
    outer loop
      vertex 63.9615 -9.21539 0
      vertex 59.3779 -7.17464 3
      vertex 63.9615 -9.21539 3
    endloop
  endfacet
  facet normal 0.406737 0.913545 0
    outer loop
      vertex 59.3779 -7.17464 3
      vertex 63.9615 -9.21539 0
      vertex 59.3779 -7.17464 0
    endloop
  endfacet
  facet normal -0.406737 0.913545 0
    outer loop
      vertex 44.5451 -7.17464 0
      vertex 39.9615 -9.21539 3
      vertex 44.5451 -7.17464 3
    endloop
  endfacet
  facet normal -0.406737 0.913545 0
    outer loop
      vertex 39.9615 -9.21539 3
      vertex 44.5451 -7.17464 0
      vertex 39.9615 -9.21539 0
    endloop
  endfacet
  facet normal -0.743145 0.66913 0
    outer loop
      vertex 32.8812 -15.5199 0
      vertex 35.9024 -12.1645 3
      vertex 35.9024 -12.1645 0
    endloop
  endfacet
  facet normal -0.743145 0.66913 0
    outer loop
      vertex 35.9024 -12.1645 3
      vertex 32.8812 -15.5199 0
      vertex 32.8812 -15.5199 3
    endloop
  endfacet
  facet normal -0.994522 0.104529 0
    outer loop
      vertex 71.5245 -34.1582 0
      vertex 71.9615 -30 3
      vertex 71.9615 -30 0
    endloop
  endfacet
  facet normal -0.994522 0.104529 0
    outer loop
      vertex 71.9615 -30 3
      vertex 71.5245 -34.1582 0
      vertex 71.5245 -34.1582 3
    endloop
  endfacet
  facet normal -0.866026 0.499999 0
    outer loop
      vertex 69.1871 -39.9452 0
      vertex 70.2324 -38.1347 3
      vertex 70.2324 -38.1347 0
    endloop
  endfacet
  facet normal -0.866026 0.499999 0
    outer loop
      vertex 70.2324 -38.1347 3
      vertex 69.1871 -39.9452 0
      vertex 69.1871 -39.9452 3
    endloop
  endfacet
  facet normal -0.587785 -0.809017 0
    outer loop
      vertex 61.9615 -12.6795 0
      vertex 65.3441 -15.1371 3
      vertex 61.9615 -12.6795 3
    endloop
  endfacet
  facet normal -0.587785 -0.809017 -0
    outer loop
      vertex 65.3441 -15.1371 3
      vertex 61.9615 -12.6795 0
      vertex 65.3441 -15.1371 0
    endloop
  endfacet
  facet normal -0.866025 -0.5 0
    outer loop
      vertex 70.2324 -21.8653 0
      vertex 68.1419 -18.2443 3
      vertex 68.1419 -18.2443 0
    endloop
  endfacet
  facet normal -0.866025 -0.5 0
    outer loop
      vertex 68.1419 -18.2443 3
      vertex 70.2324 -21.8653 0
      vertex 70.2324 -21.8653 3
    endloop
  endfacet
  facet normal -0.994522 -0.104529 0
    outer loop
      vertex 71.9615 -30 0
      vertex 71.5245 -25.8418 3
      vertex 71.5245 -25.8418 0
    endloop
  endfacet
  facet normal -0.994522 -0.104529 0
    outer loop
      vertex 71.5245 -25.8418 3
      vertex 71.9615 -30 0
      vertex 71.9615 -30 3
    endloop
  endfacet
  facet normal -0.951056 0.309018 0
    outer loop
      vertex 70.2324 -38.1347 0
      vertex 71.5245 -34.1582 3
      vertex 71.5245 -34.1582 0
    endloop
  endfacet
  facet normal -0.951056 0.309018 0
    outer loop
      vertex 71.5245 -34.1582 3
      vertex 70.2324 -38.1347 0
      vertex 70.2324 -38.1347 3
    endloop
  endfacet
  facet normal -0.951056 -0.309018 0
    outer loop
      vertex 71.5245 -25.8418 0
      vertex 70.2324 -21.8653 3
      vertex 70.2324 -21.8653 0
    endloop
  endfacet
  facet normal -0.951056 -0.309018 0
    outer loop
      vertex 70.2324 -21.8653 3
      vertex 71.5245 -25.8418 0
      vertex 71.5245 -25.8418 3
    endloop
  endfacet
  facet normal -2.2809e-07 -1 0
    outer loop
      vertex 49.871 -10.1096 0
      vertex 54.0521 -10.1096 3
      vertex 49.871 -10.1096 3
    endloop
  endfacet
  facet normal -2.2809e-07 -1 -0
    outer loop
      vertex 54.0521 -10.1096 3
      vertex 49.871 -10.1096 0
      vertex 54.0521 -10.1096 0
    endloop
  endfacet
  facet normal -0.743145 -0.66913 0
    outer loop
      vertex 68.1419 -18.2443 0
      vertex 65.3441 -15.1371 3
      vertex 65.3441 -15.1371 0
    endloop
  endfacet
  facet normal -0.743145 -0.66913 0
    outer loop
      vertex 65.3441 -15.1371 3
      vertex 68.1419 -18.2443 0
      vertex 68.1419 -18.2443 3
    endloop
  endfacet
  facet normal -0.406737 -0.913546 0
    outer loop
      vertex 58.1419 -10.9789 0
      vertex 61.9615 -12.6795 3
      vertex 58.1419 -10.9789 3
    endloop
  endfacet
  facet normal -0.406737 -0.913546 -0
    outer loop
      vertex 61.9615 -12.6795 3
      vertex 58.1419 -10.9789 0
      vertex 61.9615 -12.6795 0
    endloop
  endfacet
  facet normal 0.743145 -0.66913 0
    outer loop
      vertex 35.7812 -18.2443 3
      vertex 38.5789 -15.1371 0
      vertex 38.5789 -15.1371 3
    endloop
  endfacet
  facet normal 0.743145 -0.66913 0
    outer loop
      vertex 38.5789 -15.1371 0
      vertex 35.7812 -18.2443 3
      vertex 35.7812 -18.2443 0
    endloop
  endfacet
  facet normal 0.866025 -0.5 0
    outer loop
      vertex 34.7359 -20.0548 3
      vertex 35.7812 -18.2443 0
      vertex 35.7812 -18.2443 3
    endloop
  endfacet
  facet normal 0.866025 -0.5 0
    outer loop
      vertex 35.7812 -18.2443 0
      vertex 34.7359 -20.0548 3
      vertex 34.7359 -20.0548 0
    endloop
  endfacet
  facet normal -0.207912 -0.978148 0
    outer loop
      vertex 54.0521 -10.1096 0
      vertex 58.1419 -10.9789 3
      vertex 54.0521 -10.1096 3
    endloop
  endfacet
  facet normal -0.207912 -0.978148 -0
    outer loop
      vertex 58.1419 -10.9789 3
      vertex 54.0521 -10.1096 0
      vertex 58.1419 -10.9789 0
    endloop
  endfacet
  facet normal 0.207912 -0.978148 0
    outer loop
      vertex 45.7812 -10.9789 0
      vertex 49.871 -10.1096 3
      vertex 45.7812 -10.9789 3
    endloop
  endfacet
  facet normal 0.207912 -0.978148 0
    outer loop
      vertex 49.871 -10.1096 3
      vertex 45.7812 -10.9789 0
      vertex 49.871 -10.1096 0
    endloop
  endfacet
  facet normal 0.587785 -0.809017 0
    outer loop
      vertex 38.5789 -15.1371 0
      vertex 41.9615 -12.6795 3
      vertex 38.5789 -15.1371 3
    endloop
  endfacet
  facet normal 0.587785 -0.809017 0
    outer loop
      vertex 41.9615 -12.6795 3
      vertex 38.5789 -15.1371 0
      vertex 41.9615 -12.6795 0
    endloop
  endfacet
  facet normal 0.406737 -0.913546 0
    outer loop
      vertex 41.9615 -12.6795 0
      vertex 45.7812 -10.9789 3
      vertex 41.9615 -12.6795 3
    endloop
  endfacet
  facet normal 0.406737 -0.913546 0
    outer loop
      vertex 45.7812 -10.9789 3
      vertex 41.9615 -12.6795 0
      vertex 45.7812 -10.9789 0
    endloop
  endfacet
  facet normal -0.500002 -0.866024 0
    outer loop
      vertex 34.641 -20 0
      vertex 34.7359 -20.0548 3
      vertex 34.641 -20 3
    endloop
  endfacet
  facet normal -0.500002 -0.866024 -0
    outer loop
      vertex 34.7359 -20.0548 3
      vertex 34.641 -20 0
      vertex 34.7359 -20.0548 0
    endloop
  endfacet
  facet normal -0.5 -0.866025 0
    outer loop
      vertex 69.1871 -39.9452 0
      vertex 72.6323 -41.9343 3
      vertex 69.1871 -39.9452 3
    endloop
  endfacet
  facet normal -0.5 -0.866025 -0
    outer loop
      vertex 72.6323 -41.9343 3
      vertex 69.1871 -39.9452 0
      vertex 72.6323 -41.9343 0
    endloop
  endfacet
  facet normal 0.5 0.866025 -0
    outer loop
      vertex 32.8812 -15.5199 0
      vertex 10.6335 -2.67516 3
      vertex 32.8812 -15.5199 3
    endloop
  endfacet
  facet normal 0.5 0.866025 0
    outer loop
      vertex 10.6335 -2.67516 3
      vertex 32.8812 -15.5199 0
      vertex 10.6335 -2.67516 0
    endloop
  endfacet
  facet normal -0.5 -0.866025 0
    outer loop
      vertex 7.63351 -7.87131 0
      vertex 33.141 -22.5981 3
      vertex 7.63351 -7.87131 3
    endloop
  endfacet
  facet normal -0.5 -0.866025 -0
    outer loop
      vertex 33.141 -22.5981 3
      vertex 7.63351 -7.87131 0
      vertex 33.141 -22.5981 0
    endloop
  endfacet
  facet normal 0.866025 -0.5 0
    outer loop
      vertex 33.141 -22.5981 3
      vertex 34.641 -20 0
      vertex 34.641 -20 3
    endloop
  endfacet
  facet normal 0.866025 -0.5 0
    outer loop
      vertex 34.641 -20 0
      vertex 33.141 -22.5981 3
      vertex 33.141 -22.5981 0
    endloop
  endfacet
  facet normal -0.994522 0.104528 0
    outer loop
      vertex -24 60 0
      vertex -23.4755 64.9899 3
      vertex -23.4755 64.9899 0
    endloop
  endfacet
  facet normal -0.994522 0.104528 0
    outer loop
      vertex -23.4755 64.9899 3
      vertex -24 60 0
      vertex -24 60 3
    endloop
  endfacet
  facet normal 0 1 -0
    outer loop
      vertex 2.05419e-14 83.8685 0
      vertex -2.50868 83.8685 3
      vertex 2.05419e-14 83.8685 3
    endloop
  endfacet
  facet normal 0 1 0
    outer loop
      vertex -2.50868 83.8685 3
      vertex 2.05419e-14 83.8685 0
      vertex -2.50868 83.8685 0
    endloop
  endfacet
  facet normal -0.743145 0.669131 0
    outer loop
      vertex -19.4164 74.1068 0
      vertex -16.0591 77.8355 3
      vertex -16.0591 77.8355 0
    endloop
  endfacet
  facet normal -0.743145 0.669131 0
    outer loop
      vertex -16.0591 77.8355 3
      vertex -19.4164 74.1068 0
      vertex -19.4164 74.1068 3
    endloop
  endfacet
  facet normal -0.866025 0.500001 0
    outer loop
      vertex -21.9251 69.7617 0
      vertex -19.4164 74.1068 3
      vertex -19.4164 74.1068 0
    endloop
  endfacet
  facet normal -0.866025 0.500001 0
    outer loop
      vertex -19.4164 74.1068 3
      vertex -21.9251 69.7617 0
      vertex -21.9251 69.7617 3
    endloop
  endfacet
  facet normal -0.406737 0.913545 0
    outer loop
      vertex -7.41641 82.8254 0
      vertex -12 80.7846 3
      vertex -7.41641 82.8254 3
    endloop
  endfacet
  facet normal -0.406737 0.913545 0
    outer loop
      vertex -12 80.7846 3
      vertex -7.41641 82.8254 0
      vertex -12 80.7846 0
    endloop
  endfacet
  facet normal -0.951056 0.309017 0
    outer loop
      vertex -23.4755 64.9899 0
      vertex -21.9251 69.7617 3
      vertex -21.9251 69.7617 0
    endloop
  endfacet
  facet normal -0.951056 0.309017 0
    outer loop
      vertex -21.9251 69.7617 3
      vertex -23.4755 64.9899 0
      vertex -23.4755 64.9899 3
    endloop
  endfacet
  facet normal -0.587785 0.809017 0
    outer loop
      vertex -12 80.7846 0
      vertex -16.0591 77.8355 3
      vertex -12 80.7846 3
    endloop
  endfacet
  facet normal -0.587785 0.809017 0
    outer loop
      vertex -16.0591 77.8355 3
      vertex -12 80.7846 0
      vertex -16.0591 77.8355 0
    endloop
  endfacet
  facet normal -0.207911 0.978148 0
    outer loop
      vertex -2.50868 83.8685 0
      vertex -7.41641 82.8254 3
      vertex -2.50868 83.8685 3
    endloop
  endfacet
  facet normal -0.207911 0.978148 0
    outer loop
      vertex -7.41641 82.8254 3
      vertex -2.50868 83.8685 0
      vertex -7.41641 82.8254 0
    endloop
  endfacet
  facet normal -0.866025 -0.5 0
    outer loop
      vertex -19.4164 45.8932 0
      vertex -21.9251 50.2383 3
      vertex -21.9251 50.2383 0
    endloop
  endfacet
  facet normal -0.866025 -0.5 0
    outer loop
      vertex -21.9251 50.2383 3
      vertex -19.4164 45.8932 0
      vertex -19.4164 45.8932 3
    endloop
  endfacet
  facet normal -0.406737 -0.913545 0
    outer loop
      vertex -12 39.2154 0
      vertex -7.41641 37.1746 3
      vertex -12 39.2154 3
    endloop
  endfacet
  facet normal -0.406737 -0.913545 -0
    outer loop
      vertex -7.41641 37.1746 3
      vertex -12 39.2154 0
      vertex -7.41641 37.1746 0
    endloop
  endfacet
  facet normal -0.743145 -0.669131 0
    outer loop
      vertex -16.0591 42.1645 0
      vertex -19.4164 45.8932 3
      vertex -19.4164 45.8932 0
    endloop
  endfacet
  facet normal -0.743145 -0.669131 0
    outer loop
      vertex -19.4164 45.8932 3
      vertex -16.0591 42.1645 0
      vertex -16.0591 42.1645 3
    endloop
  endfacet
  facet normal -0.951057 -0.309017 0
    outer loop
      vertex -21.9251 50.2383 0
      vertex -23.4755 55.0101 3
      vertex -23.4755 55.0101 0
    endloop
  endfacet
  facet normal -0.951057 -0.309017 0
    outer loop
      vertex -23.4755 55.0101 3
      vertex -21.9251 50.2383 0
      vertex -21.9251 50.2383 3
    endloop
  endfacet
  facet normal -0.994522 -0.104529 0
    outer loop
      vertex -23.4755 55.0101 0
      vertex -24 60 3
      vertex -24 60 0
    endloop
  endfacet
  facet normal -0.994522 -0.104529 0
    outer loop
      vertex -24 60 3
      vertex -23.4755 55.0101 0
      vertex -23.4755 55.0101 3
    endloop
  endfacet
  facet normal -0.587785 -0.809017 0
    outer loop
      vertex -16.0591 42.1645 0
      vertex -12 39.2154 3
      vertex -16.0591 42.1645 3
    endloop
  endfacet
  facet normal -0.587785 -0.809017 -0
    outer loop
      vertex -12 39.2154 3
      vertex -16.0591 42.1645 0
      vertex -12 39.2154 0
    endloop
  endfacet
  facet normal -0.207912 -0.978148 0
    outer loop
      vertex -7.41641 37.1746 0
      vertex -3 36.2359 3
      vertex -7.41641 37.1746 3
    endloop
  endfacet
  facet normal -0.207912 -0.978148 -0
    outer loop
      vertex -3 36.2359 3
      vertex -7.41641 37.1746 0
      vertex -3 36.2359 0
    endloop
  endfacet
  facet normal 0.406737 -0.913545 0
    outer loop
      vertex -10 77.3205 0
      vertex -6.18034 79.0211 3
      vertex -10 77.3205 3
    endloop
  endfacet
  facet normal 0.406737 -0.913545 0
    outer loop
      vertex -6.18034 79.0211 3
      vertex -10 77.3205 0
      vertex -6.18034 79.0211 0
    endloop
  endfacet
  facet normal 0 -1 0
    outer loop
      vertex -2.09057 79.8904 0
      vertex 1.95675e-14 79.8904 3
      vertex -2.09057 79.8904 3
    endloop
  endfacet
  facet normal 0 -1 -0
    outer loop
      vertex 1.95675e-14 79.8904 3
      vertex -2.09057 79.8904 0
      vertex 1.95675e-14 79.8904 0
    endloop
  endfacet
  facet normal 0.994522 -0.104529 0
    outer loop
      vertex -20 60 3
      vertex -19.563 64.1582 0
      vertex -19.563 64.1582 3
    endloop
  endfacet
  facet normal 0.994522 -0.104529 0
    outer loop
      vertex -19.563 64.1582 0
      vertex -20 60 3
      vertex -20 60 0
    endloop
  endfacet
  facet normal 0.866025 -0.5 0
    outer loop
      vertex -18.2709 68.1347 3
      vertex -16.1803 71.7557 0
      vertex -16.1803 71.7557 3
    endloop
  endfacet
  facet normal 0.866025 -0.5 0
    outer loop
      vertex -16.1803 71.7557 0
      vertex -18.2709 68.1347 3
      vertex -18.2709 68.1347 0
    endloop
  endfacet
  facet normal 0.587785 -0.809017 0
    outer loop
      vertex -13.3826 74.8629 0
      vertex -10 77.3205 3
      vertex -13.3826 74.8629 3
    endloop
  endfacet
  facet normal 0.587785 -0.809017 0
    outer loop
      vertex -10 77.3205 3
      vertex -13.3826 74.8629 0
      vertex -10 77.3205 0
    endloop
  endfacet
  facet normal 0.20791 -0.978148 0
    outer loop
      vertex -6.18034 79.0211 0
      vertex -2.09057 79.8904 3
      vertex -6.18034 79.0211 3
    endloop
  endfacet
  facet normal 0.20791 -0.978148 0
    outer loop
      vertex -2.09057 79.8904 3
      vertex -6.18034 79.0211 0
      vertex -2.09057 79.8904 0
    endloop
  endfacet
  facet normal 0.743145 -0.669131 0
    outer loop
      vertex -16.1803 71.7557 3
      vertex -13.3826 74.8629 0
      vertex -13.3826 74.8629 3
    endloop
  endfacet
  facet normal 0.743145 -0.669131 0
    outer loop
      vertex -13.3826 74.8629 0
      vertex -16.1803 71.7557 3
      vertex -16.1803 71.7557 0
    endloop
  endfacet
  facet normal 0.866026 0.5 0
    outer loop
      vertex -16.1803 48.2443 3
      vertex -18.2709 51.8653 0
      vertex -18.2709 51.8653 3
    endloop
  endfacet
  facet normal 0.866026 0.5 0
    outer loop
      vertex -18.2709 51.8653 0
      vertex -16.1803 48.2443 3
      vertex -16.1803 48.2443 0
    endloop
  endfacet
  facet normal 0.951057 -0.309017 0
    outer loop
      vertex -19.563 64.1582 3
      vertex -18.2709 68.1347 0
      vertex -18.2709 68.1347 3
    endloop
  endfacet
  facet normal 0.951057 -0.309017 0
    outer loop
      vertex -18.2709 68.1347 0
      vertex -19.563 64.1582 3
      vertex -19.563 64.1582 0
    endloop
  endfacet
  facet normal 0.994522 0.104529 0
    outer loop
      vertex -19.563 55.8418 3
      vertex -20 60 0
      vertex -20 60 3
    endloop
  endfacet
  facet normal 0.994522 0.104529 0
    outer loop
      vertex -20 60 0
      vertex -19.563 55.8418 3
      vertex -19.563 55.8418 0
    endloop
  endfacet
  facet normal 0.207912 0.978148 -0
    outer loop
      vertex -2.09057 40.1096 0
      vertex -6.18034 40.9789 3
      vertex -2.09057 40.1096 3
    endloop
  endfacet
  facet normal 0.207912 0.978148 0
    outer loop
      vertex -6.18034 40.9789 3
      vertex -2.09057 40.1096 0
      vertex -6.18034 40.9789 0
    endloop
  endfacet
  facet normal 0 1 -0
    outer loop
      vertex 9.82401e-15 40.1096 0
      vertex -2.09057 40.1096 3
      vertex 9.82401e-15 40.1096 3
    endloop
  endfacet
  facet normal 0 1 0
    outer loop
      vertex -2.09057 40.1096 3
      vertex 9.82401e-15 40.1096 0
      vertex -2.09057 40.1096 0
    endloop
  endfacet
  facet normal 0.951057 0.309017 0
    outer loop
      vertex -18.2709 51.8653 3
      vertex -19.563 55.8418 0
      vertex -19.563 55.8418 3
    endloop
  endfacet
  facet normal 0.951057 0.309017 0
    outer loop
      vertex -19.563 55.8418 0
      vertex -18.2709 51.8653 3
      vertex -18.2709 51.8653 0
    endloop
  endfacet
  facet normal 0.743144 0.669131 0
    outer loop
      vertex -13.3826 45.1371 3
      vertex -16.1803 48.2443 0
      vertex -16.1803 48.2443 3
    endloop
  endfacet
  facet normal 0.743144 0.669131 0
    outer loop
      vertex -16.1803 48.2443 0
      vertex -13.3826 45.1371 3
      vertex -13.3826 45.1371 0
    endloop
  endfacet
  facet normal 0.406737 0.913545 -0
    outer loop
      vertex -6.18034 40.9789 0
      vertex -10 42.6795 3
      vertex -6.18034 40.9789 3
    endloop
  endfacet
  facet normal 0.406737 0.913545 0
    outer loop
      vertex -10 42.6795 3
      vertex -6.18034 40.9789 0
      vertex -10 42.6795 0
    endloop
  endfacet
  facet normal 0.587785 0.809017 -0
    outer loop
      vertex -10 42.6795 0
      vertex -13.3826 45.1371 3
      vertex -10 42.6795 3
    endloop
  endfacet
  facet normal 0.587785 0.809017 0
    outer loop
      vertex -13.3826 45.1371 3
      vertex -10 42.6795 0
      vertex -13.3826 45.1371 0
    endloop
  endfacet
  facet normal 1 -2.44929e-16 0
    outer loop
      vertex 9.79717e-15 40 3
      vertex 9.82401e-15 40.1096 0
      vertex 9.82401e-15 40.1096 3
    endloop
  endfacet
  facet normal 1 -2.44929e-16 0
    outer loop
      vertex 9.82401e-15 40.1096 0
      vertex 9.79717e-15 40 3
      vertex 9.79717e-15 40 0
    endloop
  endfacet
  facet normal 1 -2.44929e-16 0
    outer loop
      vertex 1.95675e-14 79.8904 3
      vertex 2.05419e-14 83.8685 0
      vertex 2.05419e-14 83.8685 3
    endloop
  endfacet
  facet normal 1 -2.44929e-16 0
    outer loop
      vertex 2.05419e-14 83.8685 0
      vertex 1.95675e-14 79.8904 3
      vertex 1.95675e-14 79.8904 0
    endloop
  endfacet
  facet normal -1 0 0
    outer loop
      vertex -3 10.5465 0
      vertex -3 36.2359 3
      vertex -3 36.2359 0
    endloop
  endfacet
  facet normal -1 -0 0
    outer loop
      vertex -3 36.2359 3
      vertex -3 10.5465 0
      vertex -3 10.5465 3
    endloop
  endfacet
  facet normal 1 -0 0
    outer loop
      vertex 3 10.5465 3
      vertex 3 40 0
      vertex 3 40 3
    endloop
  endfacet
  facet normal 1 0 0
    outer loop
      vertex 3 40 0
      vertex 3 10.5465 3
      vertex 3 10.5465 0
    endloop
  endfacet
  facet normal 0 1 -0
    outer loop
      vertex 3 40 0
      vertex 9.79717e-15 40 3
      vertex 3 40 3
    endloop
  endfacet
  facet normal 0 1 0
    outer loop
      vertex 9.79717e-15 40 3
      vertex 3 40 0
      vertex 9.79717e-15 40 0
    endloop
  endfacet
  facet normal 0.994522 0.104529 0
    outer loop
      vertex 11 0 3
      vertex 10.7596 2.28703 0
      vertex 10.7596 2.28703 3
    endloop
  endfacet
  facet normal 0.994522 0.104529 0
    outer loop
      vertex 10.7596 2.28703 0
      vertex 11 0 3
      vertex 11 0 0
    endloop
  endfacet
  facet normal -0.994522 0.104529 0
    outer loop
      vertex -11 0 0
      vertex -10.7596 2.28703 3
      vertex -10.7596 2.28703 0
    endloop
  endfacet
  facet normal -0.994522 0.104529 0
    outer loop
      vertex -10.7596 2.28703 3
      vertex -11 0 0
      vertex -11 0 3
    endloop
  endfacet
  facet normal 0.743145 0.66913 0
    outer loop
      vertex 8.89919 6.46564 3
      vertex 7.36044 8.17459 0
      vertex 7.36044 8.17459 3
    endloop
  endfacet
  facet normal 0.743145 0.66913 0
    outer loop
      vertex 7.36044 8.17459 0
      vertex 8.89919 6.46564 3
      vertex 8.89919 6.46564 0
    endloop
  endfacet
  facet normal 0.951057 0.309017 0
    outer loop
      vertex 10.7596 2.28703 3
      vertex 10.049 4.4741 0
      vertex 10.049 4.4741 3
    endloop
  endfacet
  facet normal 0.951057 0.309017 0
    outer loop
      vertex 10.049 4.4741 0
      vertex 10.7596 2.28703 3
      vertex 10.7596 2.28703 0
    endloop
  endfacet
  facet normal -0.587785 0.809017 0
    outer loop
      vertex -5.5 9.52628 0
      vertex -7.36044 8.17459 3
      vertex -5.5 9.52628 3
    endloop
  endfacet
  facet normal -0.587785 0.809017 0
    outer loop
      vertex -7.36044 8.17459 3
      vertex -5.5 9.52628 0
      vertex -7.36044 8.17459 0
    endloop
  endfacet
  facet normal -0.207911 0.978148 0
    outer loop
      vertex -3 10.5465 0
      vertex -3.39919 10.4616 3
      vertex -3 10.5465 3
    endloop
  endfacet
  facet normal -0.207911 0.978148 0
    outer loop
      vertex -3.39919 10.4616 3
      vertex -3 10.5465 0
      vertex -3.39919 10.4616 0
    endloop
  endfacet
  facet normal 0.866025 0.5 0
    outer loop
      vertex 10.049 4.4741 3
      vertex 8.89919 6.46564 0
      vertex 8.89919 6.46564 3
    endloop
  endfacet
  facet normal 0.866025 0.5 0
    outer loop
      vertex 8.89919 6.46564 0
      vertex 10.049 4.4741 3
      vertex 10.049 4.4741 0
    endloop
  endfacet
  facet normal 0.406737 0.913545 -0
    outer loop
      vertex 5.5 9.52628 0
      vertex 3.39919 10.4616 3
      vertex 5.5 9.52628 3
    endloop
  endfacet
  facet normal 0.406737 0.913545 0
    outer loop
      vertex 3.39919 10.4616 3
      vertex 5.5 9.52628 0
      vertex 3.39919 10.4616 0
    endloop
  endfacet
  facet normal 0.207911 0.978148 -0
    outer loop
      vertex 3.39919 10.4616 0
      vertex 3 10.5465 3
      vertex 3.39919 10.4616 3
    endloop
  endfacet
  facet normal 0.207911 0.978148 0
    outer loop
      vertex 3 10.5465 3
      vertex 3.39919 10.4616 0
      vertex 3 10.5465 0
    endloop
  endfacet
  facet normal 0.587785 0.809017 -0
    outer loop
      vertex 7.36044 8.17459 0
      vertex 5.5 9.52628 3
      vertex 7.36044 8.17459 3
    endloop
  endfacet
  facet normal 0.587785 0.809017 0
    outer loop
      vertex 5.5 9.52628 3
      vertex 7.36044 8.17459 0
      vertex 5.5 9.52628 0
    endloop
  endfacet
  facet normal -0.866025 0.5 0
    outer loop
      vertex -10.049 4.4741 0
      vertex -8.89919 6.46564 3
      vertex -8.89919 6.46564 0
    endloop
  endfacet
  facet normal -0.866025 0.5 0
    outer loop
      vertex -8.89919 6.46564 3
      vertex -10.049 4.4741 0
      vertex -10.049 4.4741 3
    endloop
  endfacet
  facet normal -0.743145 0.66913 0
    outer loop
      vertex -8.89919 6.46564 0
      vertex -7.36044 8.17459 3
      vertex -7.36044 8.17459 0
    endloop
  endfacet
  facet normal -0.743145 0.66913 0
    outer loop
      vertex -7.36044 8.17459 3
      vertex -8.89919 6.46564 0
      vertex -8.89919 6.46564 3
    endloop
  endfacet
  facet normal -0.951057 0.309017 0
    outer loop
      vertex -10.7596 2.28703 0
      vertex -10.049 4.4741 3
      vertex -10.049 4.4741 0
    endloop
  endfacet
  facet normal -0.951057 0.309017 0
    outer loop
      vertex -10.049 4.4741 3
      vertex -10.7596 2.28703 0
      vertex -10.7596 2.28703 3
    endloop
  endfacet
  facet normal -0.406737 0.913545 0
    outer loop
      vertex -3.39919 10.4616 0
      vertex -5.5 9.52628 3
      vertex -3.39919 10.4616 3
    endloop
  endfacet
  facet normal -0.406737 0.913545 0
    outer loop
      vertex -5.5 9.52628 3
      vertex -3.39919 10.4616 0
      vertex -5.5 9.52628 0
    endloop
  endfacet
  facet normal -0.207912 -0.978148 0
    outer loop
      vertex -3.39919 -10.4616 0
      vertex -1.14981 -10.9397 3
      vertex -3.39919 -10.4616 3
    endloop
  endfacet
  facet normal -0.207912 -0.978148 -0
    outer loop
      vertex -1.14981 -10.9397 3
      vertex -3.39919 -10.4616 0
      vertex -1.14981 -10.9397 0
    endloop
  endfacet
  facet normal 0.207912 -0.978148 0
    outer loop
      vertex 1.14981 -10.9397 0
      vertex 3.39919 -10.4616 3
      vertex 1.14981 -10.9397 3
    endloop
  endfacet
  facet normal 0.207912 -0.978148 0
    outer loop
      vertex 3.39919 -10.4616 3
      vertex 1.14981 -10.9397 0
      vertex 3.39919 -10.4616 0
    endloop
  endfacet
  facet normal 0.587785 -0.809017 0
    outer loop
      vertex 5.5 -9.52628 0
      vertex 7.36044 -8.17459 3
      vertex 5.5 -9.52628 3
    endloop
  endfacet
  facet normal 0.587785 -0.809017 0
    outer loop
      vertex 7.36044 -8.17459 3
      vertex 5.5 -9.52628 0
      vertex 7.36044 -8.17459 0
    endloop
  endfacet
  facet normal 0.743145 -0.66913 0
    outer loop
      vertex 7.36044 -8.17459 3
      vertex 7.63351 -7.87131 0
      vertex 7.63351 -7.87131 3
    endloop
  endfacet
  facet normal 0.743145 -0.66913 0
    outer loop
      vertex 7.63351 -7.87131 0
      vertex 7.36044 -8.17459 3
      vertex 7.36044 -8.17459 0
    endloop
  endfacet
  facet normal 0.951057 -0.309016 0
    outer loop
      vertex 10.6335 -2.67516 3
      vertex 10.7596 -2.28703 0
      vertex 10.7596 -2.28703 3
    endloop
  endfacet
  facet normal 0.951057 -0.309016 0
    outer loop
      vertex 10.7596 -2.28703 0
      vertex 10.6335 -2.67516 3
      vertex 10.6335 -2.67516 0
    endloop
  endfacet
  facet normal 0.994522 -0.104529 0
    outer loop
      vertex 10.7596 -2.28703 3
      vertex 11 0 0
      vertex 11 0 3
    endloop
  endfacet
  facet normal 0.994522 -0.104529 0
    outer loop
      vertex 11 0 0
      vertex 10.7596 -2.28703 3
      vertex 10.7596 -2.28703 0
    endloop
  endfacet
  facet normal -0.994522 -0.104529 0
    outer loop
      vertex -10.7596 -2.28703 0
      vertex -11 0 3
      vertex -11 0 0
    endloop
  endfacet
  facet normal -0.994522 -0.104529 0
    outer loop
      vertex -11 0 3
      vertex -10.7596 -2.28703 0
      vertex -10.7596 -2.28703 3
    endloop
  endfacet
  facet normal -0.951057 -0.309016 0
    outer loop
      vertex -10.6335 -2.67516 0
      vertex -10.7596 -2.28703 3
      vertex -10.7596 -2.28703 0
    endloop
  endfacet
  facet normal -0.951057 -0.309016 0
    outer loop
      vertex -10.7596 -2.28703 3
      vertex -10.6335 -2.67516 0
      vertex -10.6335 -2.67516 3
    endloop
  endfacet
  facet normal 0.406737 -0.913545 0
    outer loop
      vertex 3.39919 -10.4616 0
      vertex 5.5 -9.52628 3
      vertex 3.39919 -10.4616 3
    endloop
  endfacet
  facet normal 0.406737 -0.913545 0
    outer loop
      vertex 5.5 -9.52628 3
      vertex 3.39919 -10.4616 0
      vertex 5.5 -9.52628 0
    endloop
  endfacet
  facet normal 0 -1 0
    outer loop
      vertex -1.14981 -10.9397 0
      vertex 1.14981 -10.9397 3
      vertex -1.14981 -10.9397 3
    endloop
  endfacet
  facet normal 0 -1 -0
    outer loop
      vertex 1.14981 -10.9397 3
      vertex -1.14981 -10.9397 0
      vertex 1.14981 -10.9397 0
    endloop
  endfacet
  facet normal -0.587785 -0.809017 0
    outer loop
      vertex -7.36044 -8.17459 0
      vertex -5.5 -9.52628 3
      vertex -7.36044 -8.17459 3
    endloop
  endfacet
  facet normal -0.587785 -0.809017 -0
    outer loop
      vertex -5.5 -9.52628 3
      vertex -7.36044 -8.17459 0
      vertex -5.5 -9.52628 0
    endloop
  endfacet
  facet normal -0.743145 -0.66913 0
    outer loop
      vertex -7.36044 -8.17459 0
      vertex -7.63351 -7.87131 3
      vertex -7.63351 -7.87131 0
    endloop
  endfacet
  facet normal -0.743145 -0.66913 0
    outer loop
      vertex -7.63351 -7.87131 3
      vertex -7.36044 -8.17459 0
      vertex -7.36044 -8.17459 3
    endloop
  endfacet
  facet normal -0.406737 -0.913545 0
    outer loop
      vertex -5.5 -9.52628 0
      vertex -3.39919 -10.4616 3
      vertex -5.5 -9.52628 3
    endloop
  endfacet
  facet normal -0.406737 -0.913545 -0
    outer loop
      vertex -3.39919 -10.4616 3
      vertex -5.5 -9.52628 0
      vertex -3.39919 -10.4616 0
    endloop
  endfacet
  facet normal -0.986361 -0.164595 0
    outer loop
      vertex 6 0 0
      vertex 5.6749 1.9482 3
      vertex 5.6749 1.9482 0
    endloop
  endfacet
  facet normal -0.986361 -0.164595 0
    outer loop
      vertex 5.6749 1.9482 3
      vertex 6 0 0
      vertex 6 0 3
    endloop
  endfacet
  facet normal 1 -0 0
    outer loop
      vertex -5.91817 -0.987567 3
      vertex -5.91817 0.987567 0
      vertex -5.91817 0.987567 3
    endloop
  endfacet
  facet normal 1 0 0
    outer loop
      vertex -5.91817 0.987567 0
      vertex -5.91817 -0.987567 3
      vertex -5.91817 -0.987567 0
    endloop
  endfacet
  facet normal -0.401695 -0.915773 0
    outer loop
      vertex 1.47291 5.8164 0
      vertex 3.28169 5.023 3
      vertex 1.47291 5.8164 3
    endloop
  endfacet
  facet normal -0.401695 -0.915773 -0
    outer loop
      vertex 3.28169 5.023 3
      vertex 1.47291 5.8164 0
      vertex 3.28169 5.023 0
    endloop
  endfacet
  facet normal -0.401695 0.915773 0
    outer loop
      vertex 3.28169 -5.023 0
      vertex 1.47291 -5.8164 3
      vertex 3.28169 -5.023 3
    endloop
  endfacet
  facet normal -0.401695 0.915773 0
    outer loop
      vertex 1.47291 -5.8164 3
      vertex 3.28169 -5.023 0
      vertex 1.47291 -5.8164 0
    endloop
  endfacet
  facet normal 0.245486 0.9694 -0
    outer loop
      vertex -0.495476 -5.97951 0
      vertex -2.41017 -5.49464 3
      vertex -0.495476 -5.97951 3
    endloop
  endfacet
  facet normal 0.245486 0.9694 0
    outer loop
      vertex -2.41017 -5.49464 3
      vertex -0.495476 -5.97951 0
      vertex -2.41017 -5.49464 0
    endloop
  endfacet
  facet normal -0.677282 -0.735724 0
    outer loop
      vertex 3.28169 5.023 0
      vertex 4.73484 3.68528 3
      vertex 3.28169 5.023 3
    endloop
  endfacet
  facet normal -0.677282 -0.735724 -0
    outer loop
      vertex 4.73484 3.68528 3
      vertex 3.28169 5.023 0
      vertex 4.73484 3.68528 0
    endloop
  endfacet
  facet normal -0.879474 -0.475947 0
    outer loop
      vertex 5.6749 1.9482 0
      vertex 4.73484 3.68528 3
      vertex 4.73484 3.68528 0
    endloop
  endfacet
  facet normal -0.879474 -0.475947 0
    outer loop
      vertex 4.73484 3.68528 3
      vertex 5.6749 1.9482 0
      vertex 5.6749 1.9482 3
    endloop
  endfacet
  facet normal -0.0825792 -0.996585 0
    outer loop
      vertex -0.495476 5.97951 0
      vertex 1.47291 5.8164 3
      vertex -0.495476 5.97951 3
    endloop
  endfacet
  facet normal -0.0825792 -0.996585 -0
    outer loop
      vertex 1.47291 5.8164 3
      vertex -0.495476 5.97951 0
      vertex 1.47291 5.8164 0
    endloop
  endfacet
  facet normal 0.245486 -0.9694 0
    outer loop
      vertex -2.41017 5.49464 0
      vertex -0.495476 5.97951 3
      vertex -2.41017 5.49464 3
    endloop
  endfacet
  facet normal 0.245486 -0.9694 0
    outer loop
      vertex -0.495476 5.97951 3
      vertex -2.41017 5.49464 0
      vertex -0.495476 5.97951 0
    endloop
  endfacet
  facet normal 0.945817 0.324699 0
    outer loop
      vertex -5.27684 -2.85568 3
      vertex -5.91817 -0.987567 0
      vertex -5.91817 -0.987567 3
    endloop
  endfacet
  facet normal 0.945817 0.324699 0
    outer loop
      vertex -5.91817 -0.987567 0
      vertex -5.27684 -2.85568 3
      vertex -5.27684 -2.85568 0
    endloop
  endfacet
  facet normal 0.546948 0.837166 -0
    outer loop
      vertex -2.41017 -5.49464 0
      vertex -4.06369 -4.41434 3
      vertex -2.41017 -5.49464 3
    endloop
  endfacet
  facet normal 0.546948 0.837166 0
    outer loop
      vertex -4.06369 -4.41434 3
      vertex -2.41017 -5.49464 0
      vertex -4.06369 -4.41434 0
    endloop
  endfacet
  facet normal 0.78914 0.614213 0
    outer loop
      vertex -4.06369 -4.41434 3
      vertex -5.27684 -2.85568 0
      vertex -5.27684 -2.85568 3
    endloop
  endfacet
  facet normal 0.78914 0.614213 0
    outer loop
      vertex -5.27684 -2.85568 0
      vertex -4.06369 -4.41434 3
      vertex -4.06369 -4.41434 0
    endloop
  endfacet
  facet normal 0.945817 -0.324699 0
    outer loop
      vertex -5.91817 0.987567 3
      vertex -5.27684 2.85568 0
      vertex -5.27684 2.85568 3
    endloop
  endfacet
  facet normal 0.945817 -0.324699 0
    outer loop
      vertex -5.27684 2.85568 0
      vertex -5.91817 0.987567 3
      vertex -5.91817 0.987567 0
    endloop
  endfacet
  facet normal 0.546948 -0.837166 0
    outer loop
      vertex -4.06369 4.41434 0
      vertex -2.41017 5.49464 3
      vertex -4.06369 4.41434 3
    endloop
  endfacet
  facet normal 0.546948 -0.837166 0
    outer loop
      vertex -2.41017 5.49464 3
      vertex -4.06369 4.41434 0
      vertex -2.41017 5.49464 0
    endloop
  endfacet
  facet normal 0.78914 -0.614213 0
    outer loop
      vertex -5.27684 2.85568 3
      vertex -4.06369 4.41434 0
      vertex -4.06369 4.41434 3
    endloop
  endfacet
  facet normal 0.78914 -0.614213 0
    outer loop
      vertex -4.06369 4.41434 0
      vertex -5.27684 2.85568 3
      vertex -5.27684 2.85568 0
    endloop
  endfacet
  facet normal -0.677282 0.735724 0
    outer loop
      vertex 4.73484 -3.68528 0
      vertex 3.28169 -5.023 3
      vertex 4.73484 -3.68528 3
    endloop
  endfacet
  facet normal -0.677282 0.735724 0
    outer loop
      vertex 3.28169 -5.023 3
      vertex 4.73484 -3.68528 0
      vertex 3.28169 -5.023 0
    endloop
  endfacet
  facet normal -0.986361 0.164595 0
    outer loop
      vertex 5.6749 -1.9482 0
      vertex 6 0 3
      vertex 6 0 0
    endloop
  endfacet
  facet normal -0.986361 0.164595 0
    outer loop
      vertex 6 0 3
      vertex 5.6749 -1.9482 0
      vertex 5.6749 -1.9482 3
    endloop
  endfacet
  facet normal -0.0825792 0.996585 0
    outer loop
      vertex 1.47291 -5.8164 0
      vertex -0.495476 -5.97951 3
      vertex 1.47291 -5.8164 3
    endloop
  endfacet
  facet normal -0.0825792 0.996585 0
    outer loop
      vertex -0.495476 -5.97951 3
      vertex 1.47291 -5.8164 0
      vertex -0.495476 -5.97951 0
    endloop
  endfacet
  facet normal -0.879474 0.475947 0
    outer loop
      vertex 4.73484 -3.68528 0
      vertex 5.6749 -1.9482 3
      vertex 5.6749 -1.9482 0
    endloop
  endfacet
  facet normal -0.879474 0.475947 0
    outer loop
      vertex 5.6749 -1.9482 3
      vertex 4.73484 -3.68528 0
      vertex 4.73484 -3.68528 3
    endloop
  endfacet
endsolid OpenSCAD_Model
